<?xml version="1.0" encoding="UTF-8"?>
<!-- Created with Inkscape (http://www.inkscape.org/) -->
<svg width="210mm" height="297mm" version="1.1" viewBox="0 0 210 297" xml:space="preserve" xmlns="http://www.w3.org/2000/svg" xmlns:freecad="https://www.freecad.org/wiki/index.php?title=Svg_Namespace" xmlns:xlink="http://www.w3.org/1999/xlink"><defs><linearGradient id="linearGradient573"><stop stop-color="#063b8c" offset="0"/><stop stop-color="#063b8c" stop-opacity="0" offset="1"/></linearGradient><linearGradient id="linearGradient568" x1="79.604" x2="103.49" y1="68.294" y2="146.38" gradientTransform="translate(30.017 -38.793)" gradientUnits="userSpaceOnUse" xlink:href="#linearGradient573"/><linearGradient id="linearGradient570" x1="127.41" x2="132.09" y1="78.836" y2="117.89" gradientTransform="translate(.22862 -37.857)" gradientUnits="userSpaceOnUse" xlink:href="#linearGradient573"/><linearGradient id="linearGradient572" x1="68.578" x2="72.409" y1="86.836" y2="109.86" gradientTransform="translate(74.933 -38.637)" gradientUnits="userSpaceOnUse" xlink:href="#linearGradient573"/><linearGradient id="linearGradient574" x1="164.69" x2="173.06" y1="79.697" y2="121.65" gradientTransform="translate(-.19514 -38.052)" gradientUnits="userSpaceOnUse" xlink:href="#linearGradient573"/></defs><rect width="210" height="297" fill="#fff"/><rect x="3.1222" y="3.9028" width="203.76" height="290.37" fill="none" stroke="#000" stroke-linejoin="round" stroke-width="1.0583"/><g transform="matrix(.043367 0 0 .043367 187.6 271.99)" fill-rule="evenodd" stroke-width="5.6192"><path d="m400 80-80 80h-160v60h80v80h-80v100l-80 80h81.008c6.0652 0 11.438-3.9054 13.312-9.6738l14.48-44.566c1.384-4.2618 4.7298-7.5966 8.9916-8.9814l11.131-3.6172c4.262-1.386 8.9314-0.65 12.557 1.984l37.899 27.543c4.9066 3.5646 11.557 3.5646 16.464 0l33.972-24.691c4.9072-3.5648 6.9592-9.8788 5.085-15.647l-14.48-44.566c-1.386-4.262-0.64-8.9314 1.994-12.557l6.8834-9.4672c2.6338-3.6254 6.8358-5.777 11.317-5.7774l46.86 0.0102c6.0656 2e-4 11.438-3.9154 13.312-9.684l12.981-39.935c1.874-5.7684-0.18-12.093-5.085-15.658l-37.91-27.543c-3.6256-2.6342-5.767-6.8356-5.767-11.317v-11.71c4e-4 -4.4814 2.1412-8.6936 5.767-11.327l43.46-31.574c3.6262-2.6338 5.7678-6.8456 5.7678-11.327z" fill="#418fde"/><path d="m320 0-80 80h80v80l80-80v-80zm-240 320-80 80v80h80l80-80h-80z" fill="#ff585d"/><path d="m80 0-80 80v320l80-80v-240h160l80-80z" fill="#cb333b"/><path d="m80 400h80v-100h80v-80h-80v-60h160v-80h-240z" fill="#fff"/></g><g transform="matrix(.35153 0 0 .35153 4.309 271.99)"><g transform="translate(-96.576 -189.49)" fill="#fff"><rect x="219.2" y="189.49" width="116.78" height="57.175"/><rect x="220.74" y="190.84" width="113.7" height="54.089" stroke="#000" stroke-linecap="round" stroke-width=".26458"/><rect x="96.576" y="189.49" width="116.78" height="57.175"/><rect x="98.119" y="190.84" width="113.7" height="54.089" stroke="#000" stroke-linecap="round" stroke-width=".26458"/></g><g transform="translate(-96.576 -189.49)"><g transform="translate(130.35 176.01)" stroke="#031a51" stroke-linecap="round" stroke-linejoin="round" stroke-width="1.5875"><g><path d="m116.75 54.759c-8.6088-2e-6 -13.436-6.0156-13.436-13.436 0-7.4207 5.5865-13.436 13.436-13.436s10.636 0.0037 10.636 0.0037l0.42621 7.1783-0.1478-0.0084s-1.5423-0.77956-4.4488-1.06-5.051-0.13573-5.051-0.13573c-4.1057 0.02439-7.434 3.3527-7.434 7.4584s3.3283 7.434 7.434 7.434h3.5788v-4.7256h-4.243v-5.5538h11.004v14.902s-3.146 1.3795-11.755 1.3795z" fill="url(#linearGradient568)"/><path d="m128.82 52.785 2.0977 0.6342 1.7562 0.48784 1.5123 0.19514 1.6099 0.0488h1.7562l1.9514-0.2927 1.7562-0.53663 1.6099-0.68299 1.2684-0.97569 0.73176-0.97569 0.34149-1.2196 0.24393-1.8538-0.14636-1.6587-0.48784-1.2684-0.68298-1.2684-0.53663-0.6342-0.82934-0.87812-0.92691-1.0245-1.2196-1.0733-1.1708-0.87812-1.0732-0.78055-1.122-1.122-0.58541-0.73177-0.43906-0.78055 0.0976-0.73177 0.43906-0.48785 0.43906-0.43906 0.82933-0.39027 0.82934-0.0488h1.0245l0.68298 0.19514 0.68298 0.24392 0.73177 0.24392 1.0733 0.19514 0.87812-0.14636 0.29271-0.43906v-1.5611l-0.14636-2.1465-0.0976-0.6342-0.73177-0.58541-1.2196-0.53663-1.2196-0.34149-1.4148-0.04878-1.8538-0.04878-2.1953 0.29271-1.2684 0.29271-2.049 0.68298-1.6587 0.92691-0.97569 1.4635-0.58541 1.0245-0.29271 1.122-0.0976 0.97569 0.0488 1.0733 0.3415 1.4635 0.58541 0.82933 0.73177 1.0733 0.53663 0.87812 0.97568 1.0733 0.68299 0.6342 0.78055 0.68298 1.4148 1.0733 1.0733 0.6342 0.97569 0.82934 0.48784 0.58541 0.43907 0.6342 0.34149 1.0245-0.48785 1.0245-1.122 0.73177-2.049 0.14635-1.4148-0.39028-1.4148-0.63419-1.4635-0.68299-0.87812-0.34149-0.58541-0.0488z" fill="url(#linearGradient570)"/><path d="m144.3 34.539h7.3177l4.0003 11.611 4.293-12.001 6.342 0.09757-8.9764 24.392-0.87812 1.2684-1.0732 0.87812-0.9757 0.78055-1.2684 0.68298-7.025-0.19514-0.78055-0.19514-0.39028-0.97568 0.0976-3.8052 0.48785-0.39027 0.78055-0.29271 0.78055 0.19514 0.48785 0.39028 0.78055 0.09757 0.68298-0.09757 0.78055-0.39028 0.87813-0.68298 0.48784-0.87812 0.29271-0.58542 0.2927-1.1708z" fill="url(#linearGradient572)"/></g><path d="m186.54 29.577 0.6914 5.5798-1.6934 0.56562c-3.2272-2.7639-8.0672-2.4699-10.936 0.66416-2.8684 3.1341-2.7298 7.9771 0.31311 10.942 3.0429 2.9652 7.8918 2.9824 10.956 0.03878l1.6041 0.22913 5e-3 5.5528-1.3172 0.78055c-5.9621 3.3059-13.439 1.8614-17.738-3.427-4.2989-5.2884-4.1811-12.896 0.2796-18.049 4.4607-5.1529 11.978-6.3655 17.835-2.8768" fill="url(#linearGradient574)"/></g><g transform="translate(-157.55 -91.546)"><g transform="matrix(1.1855 0 0 1.1336 699.7 175.73)" aria-label="u"><path d="m-354.54 130.98v-2.2852q-1.1328 1.2305-2.5976 1.9141-1.4453 0.6836-2.8906 0.6836-1.6992 0-3.1445-0.83985-1.4258-0.85937-2.168-2.3047-0.72265-1.4648-0.72265-4.8438v-10.293h3.5547v10.254q0 2.832 0.80079 3.9648 0.82031 1.1133 2.8516 1.1133 2.5391 0 4.3164-2.4805v-12.852h3.5547v17.969z"/></g><path d="m274.67 286.93a1.6252 1.6252 0 0 0-1.6252 1.6252 1.6252 1.6252 0 0 0 1.6252 1.6252 1.6252 1.6252 0 0 0 1.6252-1.6252 1.6252 1.6252 0 0 0-1.6252-1.6252zm-6.4245 4.5615a2.6224 2.6224 0 0 0-2.6224 2.6224 2.6224 2.6224 0 0 0 2.6224 2.6224 2.6224 2.6224 0 0 0 2.6224-2.6224 2.6224 2.6224 0 0 0-2.6224-2.6224zm6.4245 0a2.6224 2.6224 0 0 0-2.6224 2.6224 2.6224 2.6224 0 0 0 2.6224 2.6224 2.6224 2.6224 0 0 0 2.6224-2.6224 2.6224 2.6224 0 0 0-2.6224-2.6224zm6.425 0a2.6224 2.6224 0 0 0-2.6224 2.6224 2.6224 2.6224 0 0 0 2.6224 2.6224 2.6224 2.6224 0 0 0 2.6224-2.6224 2.6224 2.6224 0 0 0-2.6224-2.6224zm-12.85 6.6997v2.2981h12.85v-2.2981z" fill="#e10024" style="paint-order:markers stroke fill"/><path d="m293.02 304.04v4.534c0 0.64583 0.0397 1.12 0.11922 1.4218 0.0831 0.3019 0.18616 0.55802 0.309 0.7682 0.12645 0.20635 0.27984 0.39354 0.46048 0.56168 0.59614 0.54264 1.3872 0.81389 2.3735 0.81389 0.96826 0 1.7524-0.27321 2.3522-0.81968 0.18064-0.16432 0.33217-0.34954 0.45501-0.55589 0.12646-0.21018 0.23137-0.47219 0.31447-0.78555 0.0867-0.31336 0.13016-0.77767 0.13016-1.3929v-4.5455h-1.0894v4.5455c0 0.63054-0.0466 1.0758-0.14055 1.3357-0.0939 0.25986-0.24787 0.48573-0.46104 0.6768-0.40465 0.35539-0.92812 0.53276-1.5712 0.53276-0.45162 0-0.84398-0.088-1.1764-0.26378-0.33239-0.17961-0.57955-0.4161-0.74213-0.71035s-0.24392-0.81826-0.24392-1.5711v-4.5455zm40.715 0v2.8431c-0.3902-0.14904-0.75156-0.22328-1.084-0.22328-0.71537 0-1.304 0.25022-1.7665 0.75083-0.45884 0.50061-0.68853 1.1389-0.68853 1.9147 0 0.82926 0.2191 1.49 0.65626 1.983 0.44078 0.49297 1.0294 0.73985 1.7665 0.73985h2.1083v-8.0082zm10.523 0v2.8431c-0.39019-0.14904-0.75101-0.22328-1.0834-0.22328-0.71537 0-1.3046 0.25022-1.767 0.75083-0.45885 0.50061-0.68799 1.1389-0.68799 1.9147 0 0.82926 0.21855 1.49 0.65572 1.983 0.44078 0.49297 1.0294 0.73985 1.7665 0.73985h2.1083v-8.0082zm-37.17 0.51599c-0.15174 0-0.28581 0.063-0.40142 0.18915-0.11562 0.12229-0.17337 0.26351-0.17337 0.42401 0 0.16432 0.0578 0.30947 0.17337 0.43558 0.11561 0.12229 0.24968 0.18395 0.40142 0.18395 0.16257 0 0.30167-0.0617 0.41727-0.18395 0.11562-0.12229 0.17337-0.26744 0.17337-0.43558 0-0.17196-0.0578-0.31711-0.17337-0.43558-0.1156-0.11846-0.2547-0.17758-0.41727-0.17758zm21.343 0c-0.15175 0-0.28527 0.063-0.40087 0.18915-0.11562 0.12229-0.17338 0.26351-0.17338 0.42401 0 0.16432 0.0578 0.30947 0.17338 0.43558 0.1156 0.12229 0.24912 0.18395 0.40087 0.18395 0.16258 0 0.30221-0.0617 0.41781-0.18395 0.11562-0.12229 0.17338-0.26744 0.17338-0.43558 0-0.17196-0.0578-0.31711-0.17338-0.43558-0.1156-0.11846-0.25523-0.17758-0.41781-0.17758zm-24.973 2.1154c-0.56001 0-1.0604 0.2575-1.5012 0.77339v-0.67043h-1.0079v5.2738h1.0079v-3.7663c0.32517-0.49296 0.72069-0.73927 1.1868-0.73927 0.36491 0 0.62506 0.11628 0.78042 0.34939 0.15535 0.22929 0.23297 0.61347 0.23297 1.1523v3.0039h0.9866v-3.0155c0-0.642-0.0707-1.1102-0.21164-1.4045-0.1373-0.29808-0.3397-0.53122-0.60706-0.69936-0.26735-0.17196-0.55611-0.25741-0.86682-0.25741zm12.381 0c-0.68645 0-1.2446 0.25219-1.6746 0.75662-0.42995 0.50061-0.6448 1.1521-0.6448 1.9546 0 0.535 0.10121 1.0066 0.30353 1.4155 0.20594 0.40508 0.47853 0.72817 0.81815 0.96892s0.78416 0.36096 1.3333 0.36096c0.40103 0 0.74994-0.0454 1.0462-0.1371 0.29987-0.0917 0.60161-0.24471 0.90511-0.45871v-1.0204c-0.54917 0.428-1.149 0.64209-1.7993 0.64209-0.46606 0-0.84729-0.14908-1.1436-0.44715-0.29265-0.29808-0.4516-0.69934-0.47689-1.2038h3.5061v-0.13189c0-0.82161-0.19683-1.477-0.59064-1.9662s-0.92154-0.73348-1.5827-0.73348zm5.8359 0c-0.47691 0-0.95377 0.40657-1.4307 1.2205l-0.0542 0.092v-1.2096h-0.99151v5.2738h0.99151v-2.7575c0-0.43946 0.11551-0.81971 0.34674-1.1407 0.23484-0.321 0.5117-0.48127 0.82964-0.48127 0.29264 0 0.61055 0.17205 0.95378 0.51598l0.52009-0.91743c-0.40464-0.39743-0.79329-0.59581-1.1654-0.59581zm3.3054 0c-0.46968 0-0.85463 0.12806-1.1545 0.38409-0.29626 0.25604-0.44463 0.5864-0.44463 0.99148 0 0.31336 0.098 0.60365 0.29314 0.87116 0.19872 0.26368 0.61596 0.58284 1.2518 0.95734 0.31794 0.19108 0.52351 0.33819 0.61745 0.44137 0.0975 0.0994 0.14656 0.22545 0.14656 0.37831 0 0.14904-0.0739 0.27709-0.22204 0.38409-0.14813 0.107-0.32564 0.16024-0.53158 0.16024-0.19871 0-0.44402-0.063-0.73666-0.18916-0.28904-0.12993-0.57277-0.29805-0.85096-0.50441v1.1239c0.35045 0.1796 0.64106 0.30374 0.87229 0.37253 0.23123 0.065 0.4951 0.0972 0.79135 0.0972 0.5022 0 0.91258-0.1373 1.2305-0.41244 0.32155-0.27897 0.48236-0.63428 0.48236-1.0661 0-0.60379-0.41595-1.1541-1.2469-1.6509l-0.3522-0.21229c-0.26735-0.15668-0.4549-0.29063-0.5633-0.40145-0.10477-0.11082-0.1575-0.2271-0.1575-0.34939 0-0.1414 0.0578-0.25433 0.17337-0.3384 0.11923-0.0879 0.27501-0.13189 0.46649-0.13189 0.37214 0 0.85085 0.18718 1.4362 0.56169v-1.0314c-0.51304-0.29042-1.0135-0.43557-1.5012-0.43557zm12.489 0c-0.71898 0-1.2698 0.23845-1.6527 0.71613v1.1407c0.50942-0.58851 1.0334-0.88273 1.5718-0.88273 0.59974 0 0.89964 0.3172 0.89964 0.95156v0.28113l-1.2628 0.45814c-0.41549 0.15286-0.73711 0.36163-0.96472 0.62531-0.224 0.25986-0.33579 0.55605-0.33579 0.88852 0 0.36685 0.1155 0.67228 0.34673 0.91685 0.23122 0.24075 0.51998 0.36096 0.86683 0.36096 0.47329 0 0.91969-0.17205 1.3388-0.51599 0.0759 0.35158 0.32489 0.52756 0.7476 0.52756 0.14813 0 0.28907-0.0283 0.42275-0.0856 0.1373-0.0535 0.31797-0.1572 0.54197-0.31006v-0.6363c-0.2529 0.18725-0.43861 0.28113-0.55783 0.28113-0.11561 0-0.17337-0.09-0.17337-0.26956v-2.241c0-0.44329-0.0129-0.7434-0.0383-0.90008-0.0217-0.1605-0.0757-0.31939-0.16242-0.47607-0.0867-0.1605-0.1842-0.28798-0.2926-0.38352-0.32516-0.29807-0.75726-0.44714-1.2956-0.44714zm-30.868 0.10296v5.2738h0.98605v-5.2738zm1.7982 0 2.2548 5.3652h0.33031l2.2002-5.3652h-1.0675l-1.295 3.2446-1.3443-3.2446zm19.545 0v5.2738h0.98605v-5.2738zm4.8602 0.79075c0.31433 0 0.62481 0.0827 0.93192 0.247v3.3418h-0.76402c-0.44078 0-0.74624-0.0308-0.91605-0.092-0.16981-0.0611-0.33062-0.17939-0.48236-0.35517-0.2529-0.29425-0.379-0.71261-0.379-1.2553 0-0.57704 0.14466-1.036 0.43369-1.3762 0.29265-0.34011 0.68447-0.5102 1.1758-0.5102zm10.523 0c0.31433 0 0.62481 0.0827 0.93191 0.247v3.3418h-0.76401c-0.44078 0-0.74569-0.0308-0.9155-0.092-0.16981-0.0611-0.33062-0.17939-0.48236-0.35517-0.2529-0.29425-0.37954-0.71261-0.37954-1.2553 0-0.57704 0.14465-1.036 0.43368-1.3762 0.29265-0.34011 0.68446-0.5102 1.1758-0.5102zm-27.488 0.0116c0.35407 0 0.63595 0.11293 0.8455 0.3384 0.20954 0.22546 0.3269 0.54659 0.3522 0.96313h-2.5092c0.0686-0.41654 0.21515-0.73767 0.43915-0.96313 0.22761-0.22547 0.51823-0.3384 0.8723-0.3384zm22.449 1.8632v1.5647c-0.26736 0.27133-0.55852 0.40724-0.87285 0.40724-0.20954 0-0.38095-0.0689-0.51463-0.20651-0.13006-0.13757-0.19524-0.31552-0.19524-0.53334 0-0.214 0.0689-0.39137 0.20618-0.53276 0.14091-0.14521 0.37934-0.2884 0.71534-0.42979zm0.46595 6.9577c-1.1525 0-2.1224 0.39733-2.91 1.1922-0.784 0.79486-1.1764 1.7753-1.1764 2.9409 0 0.73371 0.17195 1.4155 0.51518 2.046 0.34322 0.63054 0.80895 1.1257 1.3978 1.4849 0.58891 0.35921 1.3061 0.53854 2.1515 0.53854 1.0405 0 1.9582-0.22921 2.7531-0.68779v-1.261c-0.87434 0.59615-1.7703 0.8943-2.688 0.8943-0.87794 0-1.5988-0.28244-2.1624-0.84802-0.56362-0.56557-0.84495-1.288-0.84495-2.1669 0-0.87129 0.28505-1.5956 0.85589-2.1727 0.57446-0.58086 1.2953-0.87116 2.1624-0.87116 0.84542 0 1.7109 0.26732 2.5961 0.80232v-1.2321c-0.97187-0.43947-1.8554-0.65944-2.6502-0.65944zm-45.543 0.10296v8.0082h1.0839v-3.4852h0.28165c0.35407 0 0.60495 0.044 0.75308 0.13189 0.15174 0.0841 0.31997 0.22333 0.50423 0.41823 0.18787 0.19489 0.39399 0.4569 0.61799 0.78554l0.36259 0.62474 0.33634 0.58482 0.2111 0.31526c0.0325 0.0458 0.0542 0.0781 0.0651 0.0972l0.33087 0.52755h1.2896l-0.40087-0.57325c-0.15897-0.22928-0.37066-0.57143-0.6344-1.0262-0.4191-0.72226-0.74389-1.2286-0.97511-1.519-0.23123-0.29043-0.46781-0.51964-0.70987-0.68778 0.41187-0.16815 0.72792-0.4223 0.94831-0.76241s0.33033-0.74334 0.33033-1.2096c0-0.68404-0.22544-1.2265-0.67706-1.6278-0.448-0.40126-1.0552-0.60218-1.8212-0.60218zm19.983 0v7.7733c0 0.65729-0.0491 1.0868-0.14657 1.2894-0.094 0.20254-0.22374 0.34434-0.38994 0.42459-0.16257 0.0803-0.39915 0.12032-0.70987 0.12032h-0.27672l0.20071 1.0661c0.1662 0.0229 0.28356 0.0341 0.35219 0.0341 0.44802 0 0.8311-0.10705 1.149-0.32105 0.31793-0.21018 0.54708-0.49262 0.68799-0.84802 0.14451-0.35157 0.21711-0.89602 0.21711-1.6336v-7.9052zm37.946 0v8.0082h0.98605v-8.0082zm-56.846 0.9747h0.32486c0.5311 0 0.91047 0.042 1.1381 0.12611 0.23123 0.0841 0.41006 0.22922 0.53651 0.43558 0.12645 0.20253 0.18977 0.42978 0.18977 0.682 0 0.25603-0.0577 0.48583-0.17337 0.68836-0.112 0.19872-0.27095 0.34721-0.47689 0.44657-0.20232 0.0994-0.57798 0.14924-1.1272 0.14924h-0.41181zm7.5805 1.6567c-0.68646 0-1.2446 0.2522-1.6746 0.75663-0.42994 0.50061-0.64479 1.1521-0.64479 1.9546 0 0.535 0.1012 1.0072 0.30353 1.4161 0.20593 0.40507 0.47853 0.72759 0.81815 0.96834s0.78416 0.36154 1.3333 0.36154c0.40103 0 0.74994-0.046 1.0462-0.13768 0.29988-0.0917 0.60108-0.24471 0.90457-0.45871v-1.0204c-0.54917 0.428-1.1484 0.64209-1.7987 0.64209-0.46606 0-0.84729-0.14908-1.1436-0.44715-0.29265-0.29808-0.4516-0.69934-0.47689-1.2038h3.5061v-0.13189c0-0.82161-0.19683-1.477-0.59064-1.9662s-0.92155-0.73349-1.5827-0.73349zm20.741 0c-0.71898 0-1.2698 0.23904-1.6527 0.71672v1.1407c0.50942-0.5885 1.0334-0.8833 1.5718-0.8833 0.59975 0 0.89909 0.3172 0.89909 0.95156v0.28113l-1.2622 0.45872c-0.41548 0.15286-0.73711 0.36105-0.96472 0.62473-0.224 0.25986-0.33634 0.55605-0.33634 0.88852 0 0.36686 0.11605 0.67228 0.34728 0.91685 0.23122 0.24075 0.51999 0.36154 0.86683 0.36154 0.47329 0 0.91969-0.17206 1.3388-0.51599 0.0758 0.35158 0.32489 0.52698 0.7476 0.52698 0.14814 0 0.28908-0.0283 0.42275-0.0856 0.1373-0.0535 0.31797-0.15662 0.54197-0.30948v-0.6363c-0.2529 0.18725-0.43914 0.28055-0.55837 0.28055-0.11562 0-0.17337-0.0894-0.17337-0.26898v-2.2415c0-0.44329-0.0124-0.7434-0.0377-0.90008-0.0217-0.1605-0.0757-0.31881-0.16243-0.47549-0.0867-0.1605-0.18419-0.28856-0.29258-0.3841-0.32516-0.29807-0.75727-0.44715-1.2956-0.44715zm5.9496 0c-0.56 0-1.0604 0.25809-1.5012 0.77398v-0.67101h-1.0079v5.2738h1.0079v-3.7663c0.32516-0.49297 0.72069-0.73927 1.1868-0.73927 0.36491 0 0.62506 0.11686 0.78042 0.34997 0.15535 0.22929 0.23352 0.61289 0.23352 1.1517v3.0039h0.98605v-3.0149c0-0.642-0.0701-1.1102-0.2111-1.4045-0.13729-0.29807-0.3397-0.53121-0.60705-0.69935-0.26736-0.17197-0.55667-0.258-0.86738-0.258zm15.23 0c-0.71898 0-1.2698 0.23904-1.6527 0.71672v1.1407c0.50941-0.5885 1.0334-0.8833 1.5718-0.8833 0.59975 0 0.89965 0.3172 0.89965 0.95156v0.28113l-1.2628 0.45872c-0.41549 0.15286-0.73711 0.36105-0.96472 0.62473-0.224 0.25986-0.33634 0.55605-0.33634 0.88852 0 0.36686 0.11604 0.67228 0.34728 0.91685 0.23122 0.24075 0.51998 0.36154 0.86682 0.36154 0.47329 0 0.9197-0.17206 1.3388-0.51599 0.0758 0.35158 0.32489 0.52698 0.7476 0.52698 0.14813 0 0.28907-0.0283 0.42275-0.0856 0.13729-0.0535 0.31797-0.15662 0.54197-0.30948v-0.6363c-0.2529 0.18725-0.4386 0.28055-0.55783 0.28055-0.11561 0-0.17392-0.0894-0.17392-0.26898v-2.2415c0-0.44329-0.0124-0.7434-0.0377-0.90008-0.0216-0.1605-0.0757-0.31881-0.16242-0.47549-0.0867-0.1605-0.1842-0.28856-0.2926-0.3841-0.32516-0.29807-0.75726-0.44715-1.2956-0.44715zm5.7046 0c-0.4769 0-0.95377 0.40716-1.4307 1.2211l-0.0546 0.0914v-1.2096h-0.99153v5.2738h0.99153v-2.7575c0-0.43946 0.11604-0.81914 0.34728-1.1401 0.23483-0.321 0.51114-0.48185 0.82908-0.48185 0.29265 0 0.61056 0.17205 0.95379 0.51598l0.52009-0.91743c-0.40465-0.39743-0.79275-0.59582-1.1649-0.59582zm11.086 0c-0.46968 0-0.85407 0.12807-1.154 0.3841-0.29626 0.25604-0.44461 0.5864-0.44461 0.99148 0 0.31336 0.0975 0.60365 0.29258 0.87116 0.19871 0.26368 0.61596 0.58284 1.2518 0.95734 0.31794 0.19107 0.52405 0.33819 0.61799 0.44137 0.0976 0.0994 0.14602 0.22545 0.14602 0.37831 0 0.14904-0.0739 0.27709-0.22204 0.3841-0.14813 0.10699-0.3251 0.16081-0.53103 0.16081-0.19871 0-0.44457-0.063-0.73721-0.18916-0.28904-0.12993-0.57223-0.29805-0.85042-0.50441v1.1234c0.35045 0.1796 0.64106 0.30374 0.87229 0.37253 0.23123 0.065 0.4951 0.0972 0.79136 0.0972 0.50219 0 0.91202-0.1373 1.23-0.41244 0.32155-0.27897 0.48236-0.63428 0.48236-1.0661 0-0.60379-0.41539-1.1541-1.2464-1.6509l-0.3522-0.21229c-0.26736-0.15668-0.45546-0.29005-0.56384-0.40087-0.10479-0.11082-0.15696-0.22768-0.15696-0.34997 0-0.14139 0.0578-0.25433 0.17336-0.3384 0.11922-0.0879 0.27447-0.13131 0.46595-0.13131 0.37213 0 0.85085 0.18718 1.4362 0.56168v-1.032c-0.51304-0.29044-1.0135-0.43559-1.5012-0.43559zm-4.8969 0.0914c-0.76594 0-1.4036 0.25808-1.913 0.77398-0.50581 0.51207-0.75854 1.1543-0.75854 1.9263 0 0.76429 0.25142 1.4026 0.75362 1.9147 0.5022 0.50825 1.1269 0.76183 1.8748 0.76183 0.77317 0 1.4146-0.25023 1.924-0.75084 0.50943-0.50443 0.76401-1.1369 0.76401-1.8973 0-0.7834-0.25087-1.4329-0.75307-1.9488-0.5022-0.51971-1.133-0.77976-1.8917-0.77976zm-51.393 0.0116 1.9294 4.1446-1.6965 3.8172h1.1004l3.528-7.9619h-1.1107l-1.2846 2.975-1.3437-2.975zm11.346 0v3.0213c0 0.66111 0.067 1.1347 0.20071 1.4213 0.13729 0.28279 0.33784 0.50807 0.60158 0.67622 0.26736 0.16432 0.55798 0.24642 0.8723 0.24642 0.26736 0 0.53493-0.0664 0.80229-0.20015 0.27097-0.13375 0.51125-0.32093 0.72081-0.56168v0.67043h0.98605v-5.2738h-0.98605v3.7721c-0.32878 0.48532-0.72802 0.7277-1.1977 0.7277-0.37575 0-0.63961-0.10901-0.79135-0.32683-0.14813-0.22165-0.22205-0.60917-0.22205-1.1633v-3.0097zm-13.767 0.8029c0.35406 0 0.63594 0.11236 0.84549 0.33782 0.20955 0.22547 0.32691 0.5466 0.3522 0.96314h-2.5091c0.0686-0.41654 0.21515-0.73767 0.43915-0.96314 0.22762-0.22546 0.51823-0.33782 0.8723-0.33782zm53.761 0.12611c0.48774 0 0.89256 0.1642 1.2141 0.49284 0.32154 0.32865 0.48235 0.74308 0.48235 1.2437 0 0.50443-0.15524 0.91886-0.46595 1.2437-0.3071 0.321-0.70262 0.48186-1.1868 0.48186-0.48775 0-0.88699-0.15889-1.1977-0.47607-0.31071-0.32101-0.4665-0.73347-0.4665-1.2379 0-0.50826 0.15207-0.92661 0.45556-1.2553 0.30348-0.32864 0.69159-0.49284 1.1649-0.49284zm-32.201 1.7365v1.5647c-0.26735 0.27133-0.55797 0.40724-0.8723 0.40724-0.20954 0-0.38094-0.0689-0.51462-0.20651-0.13007-0.13757-0.19525-0.31494-0.19525-0.53276 0-0.214 0.0689-0.39194 0.20618-0.53334 0.14091-0.14521 0.37934-0.2884 0.71535-0.42979zm21.18 0v1.5647c-0.26736 0.27133-0.55852 0.40724-0.87285 0.40724-0.20955 0-0.38094-0.0689-0.51462-0.20651-0.13007-0.13757-0.19525-0.31494-0.19525-0.53276 0-0.214 0.0689-0.39194 0.20618-0.53334 0.1409-0.14521 0.37934-0.2884 0.71534-0.42979z"/><path d="m274.84 286.84a1.6289 1.6289 0 0 0-1.6289 1.6289 1.6289 1.6289 0 0 0 1.6289 1.6289 1.6289 1.6289 0 0 0 1.6289-1.6289 1.6289 1.6289 0 0 0-1.6289-1.6289zm-6.4394 4.5721a2.6285 2.6285 0 0 0-2.6285 2.6285 2.6285 2.6285 0 0 0 2.6285 2.6285 2.6285 2.6285 0 0 0 2.6285-2.6285 2.6285 2.6285 0 0 0-2.6285-2.6285zm6.4394 0a2.6285 2.6285 0 0 0-2.6285 2.6285 2.6285 2.6285 0 0 0 2.6285 2.6285 2.6285 2.6285 0 0 0 2.6285-2.6285 2.6285 2.6285 0 0 0-2.6285-2.6285zm6.44 0a2.6285 2.6285 0 0 0-2.6285 2.6285 2.6285 2.6285 0 0 0 2.6285 2.6285 2.6285 2.6285 0 0 0 2.6285-2.6285 2.6285 2.6285 0 0 0-2.6285-2.6285zm-12.879 6.7153v2.3034h12.879v-2.3034z" fill="#e10024" opacity=".56636" style="paint-order:markers stroke fill"/></g></g></g><text x="137.46671" y="286.93906" fill="#2a7fff" font-family="Ubuntu" font-size="11.992px" stroke-linecap="round" stroke-linejoin="round" stroke-width=".29386" text-align="center" text-anchor="middle" xml:space="preserve"><tspan x="137.46671" y="286.93906" fill="#2a7fff" font-family="Ubuntu" font-weight="bold" stroke-width=".29386">MECATRÓNICA</tspan></text><g stroke-linejoin="round" stroke-width=".52917"><rect x="66.079" y="247.55" width="80.827" height="10.871" fill="none" stroke="#000"/><text x="104.81019" y="254.64743" fill="#000000" font-family="Ubuntu" font-size="5.0043px" font-weight="bold" text-align="center" text-anchor="middle" xml:space="preserve"><tspan x="104.81019" y="254.64743" fill="#000000" stroke-width=".52917">Ejercicios de Diseño técnico 2D</tspan></text><rect x="4.9451" y="259.89" width="200.04" height="10.871" fill="#00f" stroke="#000"/><text x="104.75083" y="267.73666" fill="#ffffff" font-family="Ubuntu" font-size="6.9804px" font-weight="bold" text-align="center" text-anchor="middle" xml:space="preserve"><tspan x="104.75083" y="267.73666" fill="#ffffff" stroke-width=".52917">Libro: AUTOCAD MECHANICAL</tspan></text><rect x="41.658" y="247.55" width="22.846" height="10.871" fill="#acf" stroke="#000"/><text x="52.274963" y="256.45679" fill="#000000" font-family="Ubuntu" font-size="9.9031px" font-weight="bold" text-align="center" text-anchor="middle" xml:space="preserve"><tspan x="52.274963" y="256.45679" fill="#000000" stroke-width=".52917">2D</tspan></text><rect x="148.38" y="247.55" width="41.45" height="10.871" fill="none" stroke="#000"/><text x="168.8855" y="254.54958" fill="#000000" font-family="Ubuntu" font-size="5.0043px" font-weight="bold" text-align="center" text-anchor="middle" xml:space="preserve"><tspan x="168.8855" y="254.54958" fill="#000000" stroke-width=".52917">Unidades: mm</tspan></text><rect x="5.0158" y="247.52" width="35.121" height="10.871" fill="#acf" stroke="#000"/><text x="13.217894" y="256.42706" fill="#000000" font-family="Ubuntu" font-size="9.9031px" font-weight="bold" text-align="center" text-anchor="middle" xml:space="preserve"><tspan x="13.217894" y="256.42706" fill="#000000" stroke-width=".52917">EX-</tspan></text><text x="29.846279" y="256.39737" fill="#000000" font-family="Ubuntu" font-size="9.9031px" font-weight="bold" text-align="center" text-anchor="middle" freecad:editable="Numero de ejercicio"><tspan x="29.846279" y="256.39737" fill="#000000" stroke-width=".52917">000</tspan></text></g></svg>
