<?xml version="1.0" encoding="UTF-8" standalone="no"?>
<svg
   height="297mm"
   viewBox="0 0 2100 2970"
   width="210mm"
   version="1.2"
   id="svg63"
   sodipodi:docname="Ejemplo-2D-02.svg"
   inkscape:version="1.4-beta3 (01c8a1c, 2024-08-28)"
   inkscape:export-filename="../PDF/Ejemplo-2D-02.pdf"
   inkscape:export-xdpi="96"
   inkscape:export-ydpi="96"
   xmlns:inkscape="http://www.inkscape.org/namespaces/inkscape"
   xmlns:sodipodi="http://sodipodi.sourceforge.net/DTD/sodipodi-0.dtd"
   xmlns:xlink="http://www.w3.org/1999/xlink"
   xmlns="http://www.w3.org/2000/svg"
   xmlns:svg="http://www.w3.org/2000/svg"
   xmlns:freecad="https://www.freecad.org/wiki/index.php?title=Svg_Namespace">
  <sodipodi:namedview
     id="namedview63"
     pagecolor="#ffffff"
     bordercolor="#000000"
     borderopacity="0.25"
     inkscape:showpageshadow="2"
     inkscape:pageopacity="0.0"
     inkscape:pagecheckerboard="0"
     inkscape:deskcolor="#d1d1d1"
     inkscape:document-units="mm"
     inkscape:zoom="0.67793911"
     inkscape:cx="284.68633"
     inkscape:cy="574.53537"
     inkscape:window-width="1866"
     inkscape:window-height="1011"
     inkscape:window-x="0"
     inkscape:window-y="0"
     inkscape:window-maximized="1"
     inkscape:current-layer="Page" />
  <title
     id="title1">FreeCAD SVG Export</title>
  <desc
     id="desc1">Drawing page: Page exported from FreeCAD document: Unnamed</desc>
  <defs
     id="defs1">
    <defs
       id="defs2">
      <linearGradient
         id="linearGradient573">
        <stop
           stop-color="#063b8c"
           offset="0"
           id="stop1" />
        <stop
           stop-color="#063b8c"
           stop-opacity="0"
           offset="1"
           id="stop2" />
      </linearGradient>
      <linearGradient
         xlink:href="#linearGradient573"
         y2="146.38"
         gradientTransform="translate(30.017,-38.793)"
         y1="68.294"
         x2="103.49"
         x1="79.604"
         gradientUnits="userSpaceOnUse"
         id="linearGradient568" />
      <linearGradient
         xlink:href="#linearGradient573"
         y2="117.89"
         gradientTransform="translate(0.22862,-37.857)"
         y1="78.836"
         x2="132.09"
         x1="127.41"
         gradientUnits="userSpaceOnUse"
         id="linearGradient570" />
      <linearGradient
         xlink:href="#linearGradient573"
         y2="109.86"
         gradientTransform="translate(74.933,-38.637)"
         y1="86.836"
         x2="72.409"
         x1="68.578"
         gradientUnits="userSpaceOnUse"
         id="linearGradient572" />
      <linearGradient
         xlink:href="#linearGradient573"
         y2="121.65"
         gradientTransform="translate(-0.19514,-38.052)"
         y1="79.697"
         x2="173.06"
         x1="164.69"
         gradientUnits="userSpaceOnUse"
         id="linearGradient574" />
    </defs>
  </defs>
  <g
     inkscape:label="TechDraw"
     inkscape:groupmode="layer"
     id="Page">
    <rect
       height="2970"
       fill="#ffffff"
       width="2100"
       id="rect2"
       x="0"
       y="0"
       style="stroke:none;stroke-width:10" />
    <rect
       height="2903.7"
       y="39.028"
       fill="none"
       stroke-width="10.583"
       width="2037.6"
       stroke="#000000"
       x="31.222"
       stroke-linejoin="round"
       id="rect3" />
    <path
       fill="#418fde"
       d="m 2049.468,2754.5936 -34.6936,34.6936 h -69.3872 v 26.0202 h 34.6936 v 34.6936 h -34.6936 v 43.367 l -34.6936,34.6936 h 35.1307 c 2.6303,0 4.9604,-1.6937 5.7731,-4.1952 l 6.2795,-19.327 c 0.6002,-1.8482 2.0512,-3.2944 3.8994,-3.8949 l 4.8272,-1.5687 c 1.8483,-0.6011 3.8732,-0.2819 5.4456,0.8604 l 16.4356,11.9446 c 2.1279,1.5458 5.0119,1.5458 7.14,0 l 14.7326,-10.7078 c 2.1281,-1.5459 3.018,-4.2841 2.2052,-6.7856 l -6.2795,-19.327 c -0.6011,-1.8483 -0.2776,-3.8732 0.8647,-5.4455 l 2.9851,-4.1057 c 1.1422,-1.5722 2.9645,-2.5053 4.9079,-2.5055 h 20.3217 c 2.6305,0 4.9604,-1.698 5.7731,-4.1997 l 5.6294,-17.3186 c 0.8127,-2.5016 -0.078,-5.2444 -2.2052,-6.7904 l -16.4404,-11.9446 c -1.5723,-1.1424 -2.501,-2.9644 -2.501,-4.9078 v -5.0783 c 2e-4,-1.9435 0.9286,-3.7702 2.501,-4.9122 l 18.8473,-13.6927 c 1.5726,-1.1422 2.5013,-2.9687 2.5013,-4.9122 z"
       id="path3"
       style="fill-rule:evenodd;stroke:none;stroke-width:2.43688" />
    <path
       fill="#ff585d"
       d="m 2014.7744,2719.9 -34.6936,34.6936 h 34.6936 v 34.6936 l 34.6936,-34.6936 V 2719.9 Z M 1910.6936,2858.6744 1876,2893.368 v 34.6936 h 34.6936 l 34.6936,-34.6936 h -34.6936 z"
       id="path4"
       style="fill-rule:evenodd;stroke:none;stroke-width:2.43688" />
    <path
       fill="#cb333b"
       d="M 1910.6936,2719.9 1876,2754.5936 v 138.7744 l 34.6936,-34.6936 v -104.0808 h 69.3872 l 34.6936,-34.6936 z"
       id="path5"
       style="fill-rule:evenodd;stroke:none;stroke-width:2.43688" />
    <path
       fill="#ffffff"
       d="m 1910.6936,2893.368 h 34.6936 v -43.367 h 34.6936 v -34.6936 h -34.6936 v -26.0202 h 69.3872 v -34.6936 h -104.0808 z"
       id="path6"
       style="fill-rule:evenodd;stroke:none;stroke-width:2.43688" />
    <rect
       height="200.98727"
       y="2719.8999"
       width="410.51672"
       x="474.15015"
       id="rect6"
       style="fill:#ffffff;stroke:none;stroke-width:3.5153" />
    <rect
       height="190.13907"
       y="2724.6458"
       stroke-linecap="round"
       stroke-width="0.930078"
       width="399.68961"
       stroke="#000000"
       x="479.56372"
       id="rect7"
       style="fill:#ffffff" />
    <rect
       height="200.98727"
       y="2719.8999"
       width="410.51672"
       x="43.089989"
       id="rect8"
       style="fill:#ffffff;stroke:none;stroke-width:3.5153" />
    <rect
       height="190.13907"
       y="2724.6458"
       stroke-linecap="round"
       stroke-width="0.930078"
       width="399.68961"
       stroke="#000000"
       x="48.514122"
       id="rect9"
       style="fill:#ffffff" />
    <g
       transform="matrix(3.5153,0,0,3.5153,161.81574,2672.5138)"
       stroke-linecap="round"
       stroke-width="1.5875"
       stroke="#031a51"
       stroke-linejoin="round"
       id="g12">
      <path
         fill="url(#linearGradient568)"
         d="m 116.75,54.759 c -8.6088,-2e-6 -13.436,-6.0156 -13.436,-13.436 0,-7.4207 5.5865,-13.436 13.436,-13.436 7.8495,0 10.636,0.0037 10.636,0.0037 l 0.42621,7.1783 -0.1478,-0.0084 c 0,0 -1.5423,-0.77956 -4.4488,-1.06 -2.9065,-0.28044 -5.051,-0.13573 -5.051,-0.13573 -4.1057,0.02439 -7.434,3.3527 -7.434,7.4584 0,4.1057 3.3283,7.434 7.434,7.434 h 3.5788 v -4.7256 h -4.243 v -5.5538 h 11.004 v 14.902 c 0,0 -3.146,1.3795 -11.755,1.3795 z"
         id="path9"
         style="fill:url(#linearGradient568)" />
      <path
         fill="url(#linearGradient570)"
         d="m 128.82,52.785 2.0977,0.6342 1.7562,0.48784 1.5123,0.19514 1.6099,0.0488 h 1.7562 l 1.9514,-0.2927 1.7562,-0.53663 1.6099,-0.68299 1.2684,-0.97569 0.73176,-0.97569 0.34149,-1.2196 0.24393,-1.8538 -0.14636,-1.6587 -0.48784,-1.2684 -0.68298,-1.2684 -0.53663,-0.6342 -0.82934,-0.87812 -0.92691,-1.0245 -1.2196,-1.0733 -1.1708,-0.87812 -1.0732,-0.78055 -1.122,-1.122 -0.58541,-0.73177 -0.43906,-0.78055 0.0976,-0.73177 0.43906,-0.48785 0.43906,-0.43906 0.82933,-0.39027 0.82934,-0.0488 h 1.0245 l 0.68298,0.19514 0.68298,0.24392 0.73177,0.24392 1.0733,0.19514 0.87812,-0.14636 0.29271,-0.43906 v -1.5611 l -0.14636,-2.1465 -0.0976,-0.6342 -0.73177,-0.58541 -1.2196,-0.53663 -1.2196,-0.34149 -1.4148,-0.04878 -1.8538,-0.04878 -2.1953,0.29271 -1.2684,0.29271 -2.049,0.68298 -1.6587,0.92691 -0.97569,1.4635 -0.58541,1.0245 -0.29271,1.122 -0.0976,0.97569 0.0488,1.0733 0.3415,1.4635 0.58541,0.82933 0.73177,1.0733 0.53663,0.87812 0.97568,1.0733 0.68299,0.6342 0.78055,0.68298 1.4148,1.0733 1.0733,0.6342 0.97569,0.82934 0.48784,0.58541 0.43907,0.6342 0.34149,1.0245 -0.48785,1.0245 -1.122,0.73177 -2.049,0.14635 -1.4148,-0.39028 -1.4148,-0.63419 -1.4635,-0.68299 -0.87812,-0.34149 -0.58541,-0.0488 z"
         id="path10"
         style="fill:url(#linearGradient570)" />
      <path
         fill="url(#linearGradient572)"
         d="m 144.3,34.539 h 7.3177 l 4.0003,11.611 4.293,-12.001 6.342,0.09757 -8.9764,24.392 -0.87812,1.2684 -1.0732,0.87812 -0.9757,0.78055 -1.2684,0.68298 -7.025,-0.19514 -0.78055,-0.19514 -0.39028,-0.97568 0.0976,-3.8052 0.48785,-0.39027 0.78055,-0.29271 0.78055,0.19514 0.48785,0.39028 0.78055,0.09757 0.68298,-0.09757 0.78055,-0.39028 0.87813,-0.68298 0.48784,-0.87812 0.29271,-0.58542 0.2927,-1.1708 z"
         id="path11"
         style="fill:url(#linearGradient572)" />
      <path
         fill="url(#linearGradient574)"
         d="m 186.54,29.577 0.6914,5.5798 -1.6934,0.56562 c -3.2272,-2.7639 -8.0672,-2.4699 -10.936,0.66416 -2.8684,3.1341 -2.7298,7.9771 0.31311,10.942 3.0429,2.9652 7.8918,2.9824 10.956,0.03878 l 1.6041,0.22913 0.005,5.5528 -1.3172,0.78055 c -5.9621,3.3059 -13.439,1.8614 -17.738,-3.427 -4.2989,-5.2884 -4.1811,-12.896 0.2796,-18.049 4.4607,-5.1529 11.978,-6.3655 17.835,-2.8768"
         id="path12"
         style="fill:url(#linearGradient574)" />
    </g>
    <g
       transform="matrix(3.5153,0,0,3.5153,-850.23913,1731.9741)"
       id="g16"
       style="stroke:none">
      <g
         transform="matrix(1.1855,0,0,1.1336,699.7,175.73)"
         aria-label="u"
         id="g13">
        <path
           d="m -354.54,130.98 v -2.2852 q -1.1328,1.2305 -2.5976,1.9141 -1.4453,0.6836 -2.8906,0.6836 -1.6992,0 -3.1445,-0.83985 -1.4258,-0.85937 -2.168,-2.3047 -0.72265,-1.4648 -0.72265,-4.8438 v -10.293 h 3.5547 v 10.254 q 0,2.832 0.80079,3.9648 0.82031,1.1133 2.8516,1.1133 2.5391,0 4.3164,-2.4805 v -12.852 h 3.5547 v 17.969 z"
           id="path13" />
      </g>
      <path
         style="paint-order:markers stroke fill"
         fill="#e10024"
         d="m 274.67,286.93 a 1.6252,1.6252 0 0 0 -1.6252,1.6252 1.6252,1.6252 0 0 0 1.6252,1.6252 1.6252,1.6252 0 0 0 1.6252,-1.6252 1.6252,1.6252 0 0 0 -1.6252,-1.6252 z m -6.4245,4.5615 a 2.6224,2.6224 0 0 0 -2.6224,2.6224 2.6224,2.6224 0 0 0 2.6224,2.6224 2.6224,2.6224 0 0 0 2.6224,-2.6224 2.6224,2.6224 0 0 0 -2.6224,-2.6224 z m 6.4245,0 a 2.6224,2.6224 0 0 0 -2.6224,2.6224 2.6224,2.6224 0 0 0 2.6224,2.6224 2.6224,2.6224 0 0 0 2.6224,-2.6224 2.6224,2.6224 0 0 0 -2.6224,-2.6224 z m 6.425,0 a 2.6224,2.6224 0 0 0 -2.6224,2.6224 2.6224,2.6224 0 0 0 2.6224,2.6224 2.6224,2.6224 0 0 0 2.6224,-2.6224 2.6224,2.6224 0 0 0 -2.6224,-2.6224 z m -12.85,6.6997 v 2.2981 h 12.85 v -2.2981 z"
         id="path14" />
      <path
         d="m 293.02,304.04 v 4.534 c 0,0.64583 0.0397,1.12 0.11922,1.4218 0.0831,0.3019 0.18616,0.55802 0.309,0.7682 0.12645,0.20635 0.27984,0.39354 0.46048,0.56168 0.59614,0.54264 1.3872,0.81389 2.3735,0.81389 0.96826,0 1.7524,-0.27321 2.3522,-0.81968 0.18064,-0.16432 0.33217,-0.34954 0.45501,-0.55589 0.12646,-0.21018 0.23137,-0.47219 0.31447,-0.78555 0.0867,-0.31336 0.13016,-0.77767 0.13016,-1.3929 v -4.5455 h -1.0894 v 4.5455 c 0,0.63054 -0.0466,1.0758 -0.14055,1.3357 -0.0939,0.25986 -0.24787,0.48573 -0.46104,0.6768 -0.40465,0.35539 -0.92812,0.53276 -1.5712,0.53276 -0.45162,0 -0.84398,-0.088 -1.1764,-0.26378 -0.33239,-0.17961 -0.57955,-0.4161 -0.74213,-0.71035 -0.16258,-0.29425 -0.24392,-0.81826 -0.24392,-1.5711 v -4.5455 z m 40.715,0 v 2.8431 c -0.3902,-0.14904 -0.75156,-0.22328 -1.084,-0.22328 -0.71537,0 -1.304,0.25022 -1.7665,0.75083 -0.45884,0.50061 -0.68853,1.1389 -0.68853,1.9147 0,0.82926 0.2191,1.49 0.65626,1.983 0.44078,0.49297 1.0294,0.73985 1.7665,0.73985 h 2.1083 V 304.04 Z m 10.523,0 v 2.8431 c -0.39019,-0.14904 -0.75101,-0.22328 -1.0834,-0.22328 -0.71537,0 -1.3046,0.25022 -1.767,0.75083 -0.45885,0.50061 -0.68799,1.1389 -0.68799,1.9147 0,0.82926 0.21855,1.49 0.65572,1.983 0.44078,0.49297 1.0294,0.73985 1.7665,0.73985 h 2.1083 V 304.04 Z m -37.17,0.51599 c -0.15174,0 -0.28581,0.063 -0.40142,0.18915 -0.11562,0.12229 -0.17337,0.26351 -0.17337,0.42401 0,0.16432 0.0578,0.30947 0.17337,0.43558 0.11561,0.12229 0.24968,0.18395 0.40142,0.18395 0.16257,0 0.30167,-0.0617 0.41727,-0.18395 0.11562,-0.12229 0.17337,-0.26744 0.17337,-0.43558 0,-0.17196 -0.0578,-0.31711 -0.17337,-0.43558 -0.1156,-0.11846 -0.2547,-0.17758 -0.41727,-0.17758 z m 21.343,0 c -0.15175,0 -0.28527,0.063 -0.40087,0.18915 -0.11562,0.12229 -0.17338,0.26351 -0.17338,0.42401 0,0.16432 0.0578,0.30947 0.17338,0.43558 0.1156,0.12229 0.24912,0.18395 0.40087,0.18395 0.16258,0 0.30221,-0.0617 0.41781,-0.18395 0.11562,-0.12229 0.17338,-0.26744 0.17338,-0.43558 0,-0.17196 -0.0578,-0.31711 -0.17338,-0.43558 -0.1156,-0.11846 -0.25523,-0.17758 -0.41781,-0.17758 z m -24.973,2.1154 c -0.56001,0 -1.0604,0.2575 -1.5012,0.77339 v -0.67043 h -1.0079 v 5.2738 h 1.0079 v -3.7663 c 0.32517,-0.49296 0.72069,-0.73927 1.1868,-0.73927 0.36491,0 0.62506,0.11628 0.78042,0.34939 0.15535,0.22929 0.23297,0.61347 0.23297,1.1523 v 3.0039 h 0.9866 v -3.0155 c 0,-0.642 -0.0707,-1.1102 -0.21164,-1.4045 -0.1373,-0.29808 -0.3397,-0.53122 -0.60706,-0.69936 -0.26735,-0.17196 -0.55611,-0.25741 -0.86682,-0.25741 z m 12.381,0 c -0.68645,0 -1.2446,0.25219 -1.6746,0.75662 -0.42995,0.50061 -0.6448,1.1521 -0.6448,1.9546 0,0.535 0.10121,1.0066 0.30353,1.4155 0.20594,0.40508 0.47853,0.72817 0.81815,0.96892 0.33962,0.24075 0.78416,0.36096 1.3333,0.36096 0.40103,0 0.74994,-0.0454 1.0462,-0.1371 0.29987,-0.0917 0.60161,-0.24471 0.90511,-0.45871 v -1.0204 c -0.54917,0.428 -1.149,0.64209 -1.7993,0.64209 -0.46606,0 -0.84729,-0.14908 -1.1436,-0.44715 -0.29265,-0.29808 -0.4516,-0.69934 -0.47689,-1.2038 h 3.5061 v -0.13189 c 0,-0.82161 -0.19683,-1.477 -0.59064,-1.9662 -0.39381,-0.4892 -0.92154,-0.73348 -1.5827,-0.73348 z m 5.8359,0 c -0.47691,0 -0.95377,0.40657 -1.4307,1.2205 l -0.0542,0.092 v -1.2096 h -0.99151 v 5.2738 H 320.19 v -2.7575 c 0,-0.43946 0.11551,-0.81971 0.34674,-1.1407 0.23484,-0.321 0.5117,-0.48127 0.82964,-0.48127 0.29264,0 0.61055,0.17205 0.95378,0.51598 l 0.52009,-0.91743 c -0.40464,-0.39743 -0.79329,-0.59581 -1.1654,-0.59581 z m 3.3054,0 c -0.46968,0 -0.85463,0.12806 -1.1545,0.38409 -0.29626,0.25604 -0.44463,0.5864 -0.44463,0.99148 0,0.31336 0.098,0.60365 0.29314,0.87116 0.19872,0.26368 0.61596,0.58284 1.2518,0.95734 0.31794,0.19108 0.52351,0.33819 0.61745,0.44137 0.0975,0.0994 0.14656,0.22545 0.14656,0.37831 0,0.14904 -0.0739,0.27709 -0.22204,0.38409 -0.14813,0.107 -0.32564,0.16024 -0.53158,0.16024 -0.19871,0 -0.44402,-0.063 -0.73666,-0.18916 -0.28904,-0.12993 -0.57277,-0.29805 -0.85096,-0.50441 v 1.1239 c 0.35045,0.1796 0.64106,0.30374 0.87229,0.37253 0.23123,0.065 0.4951,0.0972 0.79135,0.0972 0.5022,0 0.91258,-0.1373 1.2305,-0.41244 0.32155,-0.27897 0.48236,-0.63428 0.48236,-1.0661 0,-0.60379 -0.41595,-1.1541 -1.2469,-1.6509 l -0.3522,-0.21229 c -0.26735,-0.15668 -0.4549,-0.29063 -0.5633,-0.40145 -0.10477,-0.11082 -0.1575,-0.2271 -0.1575,-0.34939 0,-0.1414 0.0578,-0.25433 0.17337,-0.3384 0.11923,-0.0879 0.27501,-0.13189 0.46649,-0.13189 0.37214,0 0.85085,0.18718 1.4362,0.56169 v -1.0314 c -0.51304,-0.29042 -1.0135,-0.43557 -1.5012,-0.43557 z m 12.489,0 c -0.71898,0 -1.2698,0.23845 -1.6527,0.71613 v 1.1407 c 0.50942,-0.58851 1.0334,-0.88273 1.5718,-0.88273 0.59974,0 0.89964,0.3172 0.89964,0.95156 v 0.28113 l -1.2628,0.45814 c -0.41549,0.15286 -0.73711,0.36163 -0.96472,0.62531 -0.224,0.25986 -0.33579,0.55605 -0.33579,0.88852 0,0.36685 0.1155,0.67228 0.34673,0.91685 0.23122,0.24075 0.51998,0.36096 0.86683,0.36096 0.47329,0 0.91969,-0.17205 1.3388,-0.51599 0.0759,0.35158 0.32489,0.52756 0.7476,0.52756 0.14813,0 0.28907,-0.0283 0.42275,-0.0856 0.1373,-0.0535 0.31797,-0.1572 0.54197,-0.31006 v -0.6363 c -0.2529,0.18725 -0.43861,0.28113 -0.55783,0.28113 -0.11561,0 -0.17337,-0.09 -0.17337,-0.26956 v -2.241 c 0,-0.44329 -0.0129,-0.7434 -0.0383,-0.90008 -0.0217,-0.1605 -0.0757,-0.31939 -0.16242,-0.47607 -0.0867,-0.1605 -0.1842,-0.28798 -0.2926,-0.38352 -0.32516,-0.29807 -0.75726,-0.44714 -1.2956,-0.44714 z m -30.868,0.10296 v 5.2738 h 0.98605 v -5.2738 z m 1.7982,0 2.2548,5.3652 h 0.33031 l 2.2002,-5.3652 h -1.0675 l -1.295,3.2446 -1.3443,-3.2446 z m 19.545,0 v 5.2738 h 0.98605 v -5.2738 z m 4.8602,0.79075 c 0.31433,0 0.62481,0.0827 0.93192,0.247 v 3.3418 h -0.76402 c -0.44078,0 -0.74624,-0.0308 -0.91605,-0.092 -0.16981,-0.0611 -0.33062,-0.17939 -0.48236,-0.35517 -0.2529,-0.29425 -0.379,-0.71261 -0.379,-1.2553 0,-0.57704 0.14466,-1.036 0.43369,-1.3762 0.29265,-0.34011 0.68447,-0.5102 1.1758,-0.5102 z m 10.523,0 c 0.31433,0 0.62481,0.0827 0.93191,0.247 v 3.3418 h -0.76401 c -0.44078,0 -0.74569,-0.0308 -0.9155,-0.092 -0.16981,-0.0611 -0.33062,-0.17939 -0.48236,-0.35517 -0.2529,-0.29425 -0.37954,-0.71261 -0.37954,-1.2553 0,-0.57704 0.14465,-1.036 0.43368,-1.3762 0.29265,-0.34011 0.68446,-0.5102 1.1758,-0.5102 z m -27.488,0.0116 c 0.35407,0 0.63595,0.11293 0.8455,0.3384 0.20954,0.22546 0.3269,0.54659 0.3522,0.96313 h -2.5092 c 0.0686,-0.41654 0.21515,-0.73767 0.43915,-0.96313 0.22761,-0.22547 0.51823,-0.3384 0.8723,-0.3384 z m 22.449,1.8632 v 1.5647 c -0.26736,0.27133 -0.55852,0.40724 -0.87285,0.40724 -0.20954,0 -0.38095,-0.0689 -0.51463,-0.20651 -0.13006,-0.13757 -0.19524,-0.31552 -0.19524,-0.53334 0,-0.214 0.0689,-0.39137 0.20618,-0.53276 0.14091,-0.14521 0.37934,-0.2884 0.71534,-0.42979 z m 0.46595,6.9577 c -1.1525,0 -2.1224,0.39733 -2.91,1.1922 -0.784,0.79486 -1.1764,1.7753 -1.1764,2.9409 0,0.73371 0.17195,1.4155 0.51518,2.046 0.34322,0.63054 0.80895,1.1257 1.3978,1.4849 0.58891,0.35921 1.3061,0.53854 2.1515,0.53854 1.0405,0 1.9582,-0.22921 2.7531,-0.68779 v -1.261 c -0.87434,0.59615 -1.7703,0.8943 -2.688,0.8943 -0.87794,0 -1.5988,-0.28244 -2.1624,-0.84802 -0.56362,-0.56557 -0.84495,-1.288 -0.84495,-2.1669 0,-0.87129 0.28505,-1.5956 0.85589,-2.1727 0.57446,-0.58086 1.2953,-0.87116 2.1624,-0.87116 0.84542,0 1.7109,0.26732 2.5961,0.80232 v -1.2321 c -0.97187,-0.43947 -1.8554,-0.65944 -2.6502,-0.65944 z m -45.543,0.10296 v 8.0082 h 1.0839 v -3.4852 h 0.28165 c 0.35407,0 0.60495,0.044 0.75308,0.13189 0.15174,0.0841 0.31997,0.22333 0.50423,0.41823 0.18787,0.19489 0.39399,0.4569 0.61799,0.78554 l 0.36259,0.62474 0.33634,0.58482 0.2111,0.31526 c 0.0325,0.0458 0.0542,0.0781 0.0651,0.0972 l 0.33087,0.52755 h 1.2896 l -0.40087,-0.57325 c -0.15897,-0.22928 -0.37066,-0.57143 -0.6344,-1.0262 -0.4191,-0.72226 -0.74389,-1.2286 -0.97511,-1.519 -0.23123,-0.29043 -0.46781,-0.51964 -0.70987,-0.68778 0.41187,-0.16815 0.72792,-0.4223 0.94831,-0.76241 0.22039,-0.34011 0.33033,-0.74334 0.33033,-1.2096 0,-0.68404 -0.22544,-1.2265 -0.67706,-1.6278 -0.448,-0.40126 -1.0552,-0.60218 -1.8212,-0.60218 z m 19.983,0 v 7.7733 c 0,0.65729 -0.0491,1.0868 -0.14657,1.2894 -0.094,0.20254 -0.22374,0.34434 -0.38994,0.42459 -0.16257,0.0803 -0.39915,0.12032 -0.70987,0.12032 h -0.27672 l 0.20071,1.0661 c 0.1662,0.0229 0.28356,0.0341 0.35219,0.0341 0.44802,0 0.8311,-0.10705 1.149,-0.32105 0.31793,-0.21018 0.54708,-0.49262 0.68799,-0.84802 0.14451,-0.35157 0.21711,-0.89602 0.21711,-1.6336 v -7.9052 z m 37.946,0 v 8.0082 h 0.98605 v -8.0082 z m -56.846,0.9747 h 0.32486 c 0.5311,0 0.91047,0.042 1.1381,0.12611 0.23123,0.0841 0.41006,0.22922 0.53651,0.43558 0.12645,0.20253 0.18977,0.42978 0.18977,0.682 0,0.25603 -0.0577,0.48583 -0.17337,0.68836 -0.112,0.19872 -0.27095,0.34721 -0.47689,0.44657 -0.20232,0.0994 -0.57798,0.14924 -1.1272,0.14924 h -0.41181 z m 7.5805,1.6567 c -0.68646,0 -1.2446,0.2522 -1.6746,0.75663 -0.42994,0.50061 -0.64479,1.1521 -0.64479,1.9546 0,0.535 0.1012,1.0072 0.30353,1.4161 0.20593,0.40507 0.47853,0.72759 0.81815,0.96834 0.33962,0.24075 0.78416,0.36154 1.3333,0.36154 0.40103,0 0.74994,-0.046 1.0462,-0.13768 0.29988,-0.0917 0.60108,-0.24471 0.90457,-0.45871 v -1.0204 c -0.54917,0.428 -1.1484,0.64209 -1.7987,0.64209 -0.46606,0 -0.84729,-0.14908 -1.1436,-0.44715 -0.29265,-0.29808 -0.4516,-0.69934 -0.47689,-1.2038 h 3.5061 v -0.13189 c 0,-0.82161 -0.19683,-1.477 -0.59064,-1.9662 -0.39381,-0.4892 -0.92155,-0.73349 -1.5827,-0.73349 z m 20.741,0 c -0.71898,0 -1.2698,0.23904 -1.6527,0.71672 v 1.1407 c 0.50942,-0.5885 1.0334,-0.8833 1.5718,-0.8833 0.59975,0 0.89909,0.3172 0.89909,0.95156 v 0.28113 l -1.2622,0.45872 c -0.41548,0.15286 -0.73711,0.36105 -0.96472,0.62473 -0.224,0.25986 -0.33634,0.55605 -0.33634,0.88852 0,0.36686 0.11605,0.67228 0.34728,0.91685 0.23122,0.24075 0.51999,0.36154 0.86683,0.36154 0.47329,0 0.91969,-0.17206 1.3388,-0.51599 0.0758,0.35158 0.32489,0.52698 0.7476,0.52698 0.14814,0 0.28908,-0.0283 0.42275,-0.0856 0.1373,-0.0535 0.31797,-0.15662 0.54197,-0.30948 v -0.6363 c -0.2529,0.18725 -0.43914,0.28055 -0.55837,0.28055 -0.11562,0 -0.17337,-0.0894 -0.17337,-0.26898 v -2.2415 c 0,-0.44329 -0.0124,-0.7434 -0.0377,-0.90008 -0.0217,-0.1605 -0.0757,-0.31881 -0.16243,-0.47549 -0.0867,-0.1605 -0.18419,-0.28856 -0.29258,-0.3841 -0.32516,-0.29807 -0.75727,-0.44715 -1.2956,-0.44715 z m 5.9496,0 c -0.56,0 -1.0604,0.25809 -1.5012,0.77398 v -0.67101 h -1.0079 v 5.2738 h 1.0079 v -3.7663 c 0.32516,-0.49297 0.72069,-0.73927 1.1868,-0.73927 0.36491,0 0.62506,0.11686 0.78042,0.34997 0.15535,0.22929 0.23352,0.61289 0.23352,1.1517 v 3.0039 h 0.98605 v -3.0149 c 0,-0.642 -0.0701,-1.1102 -0.2111,-1.4045 -0.13729,-0.29807 -0.3397,-0.53121 -0.60705,-0.69935 -0.26736,-0.17197 -0.55667,-0.258 -0.86738,-0.258 z m 15.23,0 c -0.71898,0 -1.2698,0.23904 -1.6527,0.71672 v 1.1407 c 0.50941,-0.5885 1.0334,-0.8833 1.5718,-0.8833 0.59975,0 0.89965,0.3172 0.89965,0.95156 v 0.28113 l -1.2628,0.45872 c -0.41549,0.15286 -0.73711,0.36105 -0.96472,0.62473 -0.224,0.25986 -0.33634,0.55605 -0.33634,0.88852 0,0.36686 0.11604,0.67228 0.34728,0.91685 0.23122,0.24075 0.51998,0.36154 0.86682,0.36154 0.47329,0 0.9197,-0.17206 1.3388,-0.51599 0.0758,0.35158 0.32489,0.52698 0.7476,0.52698 0.14813,0 0.28907,-0.0283 0.42275,-0.0856 0.13729,-0.0535 0.31797,-0.15662 0.54197,-0.30948 v -0.6363 c -0.2529,0.18725 -0.4386,0.28055 -0.55783,0.28055 -0.11561,0 -0.17392,-0.0894 -0.17392,-0.26898 v -2.2415 c 0,-0.44329 -0.0124,-0.7434 -0.0377,-0.90008 -0.0216,-0.1605 -0.0757,-0.31881 -0.16242,-0.47549 -0.0867,-0.1605 -0.1842,-0.28856 -0.2926,-0.3841 -0.32516,-0.29807 -0.75726,-0.44715 -1.2956,-0.44715 z m 5.7046,0 c -0.4769,0 -0.95377,0.40716 -1.4307,1.2211 l -0.0546,0.0914 v -1.2096 h -0.99153 v 5.2738 h 0.99153 v -2.7575 c 0,-0.43946 0.11604,-0.81914 0.34728,-1.1401 0.23483,-0.321 0.51114,-0.48185 0.82908,-0.48185 0.29265,0 0.61056,0.17205 0.95379,0.51598 l 0.52009,-0.91743 c -0.40465,-0.39743 -0.79275,-0.59582 -1.1649,-0.59582 z m 11.086,0 c -0.46968,0 -0.85407,0.12807 -1.154,0.3841 -0.29626,0.25604 -0.44461,0.5864 -0.44461,0.99148 0,0.31336 0.0975,0.60365 0.29258,0.87116 0.19871,0.26368 0.61596,0.58284 1.2518,0.95734 0.31794,0.19107 0.52405,0.33819 0.61799,0.44137 0.0976,0.0994 0.14602,0.22545 0.14602,0.37831 0,0.14904 -0.0739,0.27709 -0.22204,0.3841 -0.14813,0.10699 -0.3251,0.16081 -0.53103,0.16081 -0.19871,0 -0.44457,-0.063 -0.73721,-0.18916 -0.28904,-0.12993 -0.57223,-0.29805 -0.85042,-0.50441 v 1.1234 c 0.35045,0.1796 0.64106,0.30374 0.87229,0.37253 0.23123,0.065 0.4951,0.0972 0.79136,0.0972 0.50219,0 0.91202,-0.1373 1.23,-0.41244 0.32155,-0.27897 0.48236,-0.63428 0.48236,-1.0661 0,-0.60379 -0.41539,-1.1541 -1.2464,-1.6509 l -0.3522,-0.21229 c -0.26736,-0.15668 -0.45546,-0.29005 -0.56384,-0.40087 -0.10479,-0.11082 -0.15696,-0.22768 -0.15696,-0.34997 0,-0.14139 0.0578,-0.25433 0.17336,-0.3384 0.11922,-0.0879 0.27447,-0.13131 0.46595,-0.13131 0.37213,0 0.85085,0.18718 1.4362,0.56168 v -1.032 c -0.51304,-0.29044 -1.0135,-0.43559 -1.5012,-0.43559 z m -4.8969,0.0914 c -0.76594,0 -1.4036,0.25808 -1.913,0.77398 -0.50581,0.51207 -0.75854,1.1543 -0.75854,1.9263 0,0.76429 0.25142,1.4026 0.75362,1.9147 0.5022,0.50825 1.1269,0.76183 1.8748,0.76183 0.77317,0 1.4146,-0.25023 1.924,-0.75084 0.50943,-0.50443 0.76401,-1.1369 0.76401,-1.8973 0,-0.7834 -0.25087,-1.4329 -0.75307,-1.9488 -0.5022,-0.51971 -1.133,-0.77976 -1.8917,-0.77976 z m -51.393,0.0116 1.9294,4.1446 -1.6965,3.8172 h 1.1004 l 3.528,-7.9619 h -1.1107 l -1.2846,2.975 -1.3437,-2.975 z m 11.346,0 v 3.0213 c 0,0.66111 0.067,1.1347 0.20071,1.4213 0.13729,0.28279 0.33784,0.50807 0.60158,0.67622 0.26736,0.16432 0.55798,0.24642 0.8723,0.24642 0.26736,0 0.53493,-0.0664 0.80229,-0.20015 0.27097,-0.13375 0.51125,-0.32093 0.72081,-0.56168 v 0.67043 h 0.98605 v -5.2738 h -0.98605 v 3.7721 c -0.32878,0.48532 -0.72802,0.7277 -1.1977,0.7277 -0.37575,0 -0.63961,-0.10901 -0.79135,-0.32683 -0.14813,-0.22165 -0.22205,-0.60917 -0.22205,-1.1633 v -3.0097 z m -13.767,0.8029 c 0.35406,0 0.63594,0.11236 0.84549,0.33782 0.20955,0.22547 0.32691,0.5466 0.3522,0.96314 h -2.5091 c 0.0686,-0.41654 0.21515,-0.73767 0.43915,-0.96314 0.22762,-0.22546 0.51823,-0.33782 0.8723,-0.33782 z m 53.761,0.12611 c 0.48774,0 0.89256,0.1642 1.2141,0.49284 0.32154,0.32865 0.48235,0.74308 0.48235,1.2437 0,0.50443 -0.15524,0.91886 -0.46595,1.2437 -0.3071,0.321 -0.70262,0.48186 -1.1868,0.48186 -0.48775,0 -0.88699,-0.15889 -1.1977,-0.47607 -0.31071,-0.32101 -0.4665,-0.73347 -0.4665,-1.2379 0,-0.50826 0.15207,-0.92661 0.45556,-1.2553 0.30348,-0.32864 0.69159,-0.49284 1.1649,-0.49284 z m -32.201,1.7365 v 1.5647 c -0.26735,0.27133 -0.55797,0.40724 -0.8723,0.40724 -0.20954,0 -0.38094,-0.0689 -0.51462,-0.20651 -0.13007,-0.13757 -0.19525,-0.31494 -0.19525,-0.53276 0,-0.214 0.0689,-0.39194 0.20618,-0.53334 0.14091,-0.14521 0.37934,-0.2884 0.71535,-0.42979 z m 21.18,0 v 1.5647 c -0.26736,0.27133 -0.55852,0.40724 -0.87285,0.40724 -0.20955,0 -0.38094,-0.0689 -0.51462,-0.20651 -0.13007,-0.13757 -0.19525,-0.31494 -0.19525,-0.53276 0,-0.214 0.0689,-0.39194 0.20618,-0.53334 0.1409,-0.14521 0.37934,-0.2884 0.71534,-0.42979 z"
         id="path15" />
      <path
         style="paint-order:markers stroke fill"
         fill="#e10024"
         opacity="0.56636"
         d="m 274.84,286.84 a 1.6289,1.6289 0 0 0 -1.6289,1.6289 1.6289,1.6289 0 0 0 1.6289,1.6289 1.6289,1.6289 0 0 0 1.6289,-1.6289 1.6289,1.6289 0 0 0 -1.6289,-1.6289 z m -6.4394,4.5721 a 2.6285,2.6285 0 0 0 -2.6285,2.6285 2.6285,2.6285 0 0 0 2.6285,2.6285 2.6285,2.6285 0 0 0 2.6285,-2.6285 2.6285,2.6285 0 0 0 -2.6285,-2.6285 z m 6.4394,0 a 2.6285,2.6285 0 0 0 -2.6285,2.6285 2.6285,2.6285 0 0 0 2.6285,2.6285 2.6285,2.6285 0 0 0 2.6285,-2.6285 2.6285,2.6285 0 0 0 -2.6285,-2.6285 z m 6.44,0 a 2.6285,2.6285 0 0 0 -2.6285,2.6285 2.6285,2.6285 0 0 0 2.6285,2.6285 2.6285,2.6285 0 0 0 2.6285,-2.6285 2.6285,2.6285 0 0 0 -2.6285,-2.6285 z m -12.879,6.7153 v 2.3034 h 12.879 v -2.3034 z"
         id="path16" />
    </g>
    <text
       y="2869.3906"
       font-family="Ubuntu"
       stroke-linecap="round"
       text-align="center"
       fill="#2a7fff"
       stroke-width="2.9386"
       text-anchor="middle"
       x="1374.667"
       xml:space="preserve"
       font-size="119.92px"
       id="text18"
       style="stroke:none;stroke-linejoin:round">      <tspan
   font-weight="bold"
   y="2869.3906"
   font-family="Ubuntu"
   fill="#2a7fff"
   stroke-width="2.9386"
   x="1374.667"
   id="tspan18">MECATRÓNICA</tspan>    </text>
    <rect
       height="108.71001"
       y="2475.5"
       fill="none"
       width="808.27002"
       stroke="#000000"
       x="812.34003"
       id="rect18"
       style="stroke-width:5.2917;stroke-linejoin:round" />
    <text
       font-weight="bold"
       y="2546.4744"
       font-family="Ubuntu"
       text-align="center"
       fill="#000000"
       text-anchor="middle"
       x="1217.5906"
       xml:space="preserve"
       font-size="50.043px"
       id="text19"
       style="stroke:none;stroke-width:5.2917;stroke-linejoin:round">       <tspan
   y="2546.4744"
   fill="#000000"
   stroke-width="5.2917"
   x="1217.5906"
   id="tspan19">Ejemplo de Dibujo técnico 2D</tspan>     </text>
    <rect
       height="108.71001"
       y="2598.9001"
       fill="#0000ff"
       width="2000.3999"
       stroke="#000000"
       x="49.450996"
       id="rect19"
       style="stroke-width:5.2917;stroke-linejoin:round" />
    <text
       font-weight="bold"
       y="2677.3667"
       font-family="Ubuntu"
       text-align="center"
       fill="#ffffff"
       text-anchor="middle"
       x="1047.5083"
       xml:space="preserve"
       font-size="69.804px"
       id="text20"
       style="stroke:none;stroke-width:5.2917;stroke-linejoin:round">       <tspan
   y="2677.3667"
   fill="#ffffff"
   stroke-width="5.2917"
   x="1047.5083"
   id="tspan20">TUTORIAL (Obijuan)</tspan>     </text>
    <rect
       height="108.71001"
       y="2475.5"
       fill="#aaccff"
       width="176.29999"
       stroke="#000000"
       x="622.67999"
       id="rect20"
       style="stroke-width:5.2917;stroke-linejoin:round" />
    <text
       font-weight="bold"
       y="2564.5679"
       font-family="Ubuntu"
       text-align="center"
       fill="#000000"
       text-anchor="middle"
       x="763.80853"
       xml:space="preserve"
       font-size="99.031px"
       id="text21"
       style="stroke:none;stroke-width:5.2917;stroke-linejoin:round">       <tspan
   y="2564.5679"
   fill="#000000"
   stroke-width="5.2917"
   x="763.80853"
   id="tspan21">2D</tspan>     </text>
    <rect
       height="108.71001"
       y="2475.5"
       fill="none"
       width="414.5"
       stroke="#000000"
       x="1635.3999"
       id="rect21"
       style="stroke-width:5.2917;stroke-linejoin:round" />
    <text
       font-weight="bold"
       y="2545.4958"
       font-family="Ubuntu"
       text-align="center"
       fill="#000000"
       text-anchor="middle"
       x="1840.4059"
       xml:space="preserve"
       font-size="50.043px"
       id="text22"
       style="stroke:none;stroke-width:5.2917;stroke-linejoin:round">       <tspan
   y="2545.4958"
   fill="#000000"
   stroke-width="5.2917"
   x="1840.4059"
   id="tspan22">Unidades: mm</tspan>     </text>
    <rect
       height="108.71001"
       y="2476.6001"
       fill="#aaccff"
       width="560.75"
       stroke="#000000"
       x="49.450996"
       id="rect22"
       style="stroke-width:5.2917;stroke-linejoin:round" />
    <text
       font-weight="bold"
       y="2553.4702"
       font-family="Ubuntu"
       text-align="center"
       fill="#000000"
       text-anchor="middle"
       x="326.58392"
       xml:space="preserve"
       font-size="83.01px"
       id="text23"
       style="stroke:none;stroke-width:5.2917;stroke-linejoin:round">       <tspan
   y="2553.4702"
   fill="#000000"
   stroke-width="5.2917"
   x="326.58392"
   id="tspan23">Ejemplo -</tspan>     </text>
    <text
       font-weight="bold"
       freecad:editable="Numero de ejemplo"
       y="2557.0229"
       font-family="Ubuntu"
       text-align="center"
       fill="#000000"
       text-anchor="middle"
       x="536.99854"
       font-size="80.811px"
       id="text24"
       style="stroke:none;stroke-width:5.2917;stroke-linejoin:round"><tspan
         y="2557.0229"
         fill="#000000"
         stroke-width="5.2917"
         x="536.99854"
         xml:space="preserve"
         id="tspan24">02</tspan></text>
    <rect
       height="217.9817"
       y="2253.3"
       fill="#ffffff"
       width="591.45367"
       x="1468.3"
       id="rect25"
       style="stroke:none;stroke-width:1.0042" />
    <path
       fill="#aab2ab"
       d="m 1492.3305,2262.3077 544.3768,0.9692 c 7.603,0 14.3942,-1.1329 14.3942,15.2779 l -0.6679,180.4347 H 1478.5919 V 2277.882 c 0,-8.0876 0.7793,-15.5731 13.7394,-15.5731 z"
       id="path26"
       style="stroke:none;stroke-width:1.0042" />
    <path
       fill="#ffffff"
       d="m 1641.7494,2354.6258 c 0.02,36.3912 -29.2794,65.9127 -65.4407,65.9388 -36.1622,0.02 -65.4939,-29.4692 -65.52,-65.8604 v -0.079 c -0.019,-36.3972 29.2795,-65.9187 65.4477,-65.9388 36.1623,-0.027 65.4939,29.4693 65.5201,65.8605 -0.01,0.02 -0.01,0.046 -0.01,0.078 z m 138.4892,-72.9722 c 28.4802,0 51.5707,23.2352 51.5707,51.8981 0,28.6639 -23.0905,51.9051 -51.5707,51.9051 -28.4871,0 -51.5706,-23.2352 -51.5706,-51.9051 -0.01,-28.6639 23.0845,-51.8981 51.5706,-51.8981 z m 187.5043,50.7593 c 0.02,28.2512 -22.7241,51.171 -50.7985,51.1982 -28.0674,0.02 -50.8507,-22.8677 -50.8768,-51.1188 v -0.079 c -0.014,-28.2512 22.7301,-51.1711 50.8045,-51.1911 28.0744,-0.019 50.8507,22.8676 50.8708,51.1188 z"
       id="path27"
       style="stroke:none;stroke-width:1.0042" />
    <path
       d="m 1629.5032,2300.9463 c 14.5187,14.6172 21.7811,32.508 21.7811,53.6795 0,21.1716 -7.1315,38.8726 -21.4075,53.1102 -15.1474,14.9897 -33.0452,22.488 -53.6996,22.488 -20.4054,0 -37.9959,-7.4328 -52.7627,-22.2982 -14.7738,-14.8722 -22.1547,-32.6255 -22.1547,-53.2929 0,-20.6675 7.3804,-38.5653 22.1547,-53.6866 14.3942,-14.6171 31.9838,-21.9247 52.7627,-21.9247 21.0339,0 38.8073,7.3084 53.326,21.9247 z m -96.3118,9.8296 c -12.2784,12.4752 -18.415,27.0984 -18.415,43.8635 0,16.7711 6.0772,31.2567 18.2252,43.4829 12.1478,12.2261 26.6143,18.3427 43.3985,18.3427 16.7842,0 31.3752,-6.1689 43.7711,-18.5265 11.7682,-11.473 17.6618,-25.9003 17.6618,-43.2931 0,-17.2622 -5.9855,-31.9185 -17.943,-43.9548 -11.958,-12.0364 -26.4567,-18.0545 -43.4899,-18.0545 -17.0332,0 -31.4405,6.0444 -43.2087,18.1398 z m 32.3051,36.4896 c -1.8795,-4.1126 -4.6823,-6.1689 -8.4281,-6.1689 -6.6207,0 -9.9279,4.4859 -9.9279,13.4513 0,8.9717 3.3072,13.4573 9.9279,13.4573 4.3679,0 7.4982,-2.1807 9.3711,-6.5618 l 9.1748,4.9181 c -4.3745,7.8191 -10.9367,11.7351 -19.6853,11.7351 -6.7451,0 -12.1548,-2.076 -16.2148,-6.2474 -4.0667,-4.1651 -6.0968,-9.9016 -6.0968,-17.217 0,-7.197 2.0955,-12.901 6.2801,-17.1317 4.1846,-4.2305 9.404,-6.3391 15.6515,-6.3391 9.2533,0 15.8744,3.6672 19.8751,10.995 z m 43.1756,0 c -1.8795,-4.1126 -4.63,-6.1689 -8.258,-6.1689 -6.7517,0 -10.1303,4.4859 -10.1303,13.4513 0,8.9717 3.3791,13.4573 10.1303,13.4573 4.3812,0 7.4459,-2.1807 9.1944,-6.5618 l 9.3842,4.9181 c -4.3679,7.8191 -10.9166,11.7351 -19.6521,11.7351 -6.7386,0 -12.1348,-2.076 -16.1948,-6.2474 -4.0536,-4.1651 -6.0772,-9.9016 -6.0772,-17.217 0,-7.197 2.0563,-12.901 6.1754,-17.1317 4.1126,-4.2305 9.3515,-6.3391 15.7168,-6.3391 9.2336,0 15.8483,3.6672 19.8359,10.995 z m 432.7901,-87.2609 h -554.71 c -5.9463,0 -10.7862,4.8723 -10.7862,10.8574 v 189.6934 c 0,1.3555 1.0937,2.4557 2.4361,2.4557 h 571.4099 c 1.3425,0 2.4361,-1.1002 2.4361,-2.4557 V 2270.862 c 0,-5.9855 -4.8394,-10.8574 -10.7861,-10.8574 z m -554.71,4.905 h 554.71 c 3.2612,0 5.9134,2.6719 5.9134,5.9528 v 131.6908 h -396.4682 c -14.5317,26.4436 -42.5268,44.3937 -74.6612,44.3937 -32.1415,0 -60.1366,-17.93 -74.6553,-44.3937 h -20.7528 v -131.6908 c 0,-3.2809 2.6522,-5.9528 5.9136,-5.9528 z m 429.7875,11.467 c -15.4225,0 -28.4801,5.4157 -39.1608,16.2469 -10.9688,11.2109 -16.4508,24.4724 -16.4508,39.7965 0,15.324 5.4813,28.4931 16.4508,39.5152 10.9629,11.0211 24.0205,16.5292 39.1608,16.5292 15.3372,0 28.6247,-5.5599 39.8748,-16.6728 10.5823,-10.5501 15.8935,-23.68 15.8935,-39.3706 0,-15.6907 -5.3962,-28.9582 -16.1817,-39.7965 -10.7731,-10.8313 -23.9683,-16.2469 -39.5866,-16.2469 z m 0.1441,10.0851 c 12.6389,0 23.3728,4.4859 32.2067,13.4513 8.9128,8.8735 13.379,19.7114 13.379,32.508 0,12.8879 -4.3615,23.5886 -13.1038,32.0882 -9.2009,9.1485 -20.0258,13.7264 -32.4819,13.7264 -12.449,0 -23.189,-4.5251 -32.1996,-13.5818 -9.011,-9.0634 -13.5166,-19.8029 -13.5166,-32.2258 0,-12.423 4.5514,-23.2613 13.6602,-32.508 8.7228,-8.9782 19.4172,-13.4573 32.056,-13.4573 z m -24.8258,38.0411 c 2.2265,-14.0989 12.0886,-21.6365 24.4462,-21.6365 17.7864,0 28.6117,12.9793 28.6117,30.2948 0,16.8956 -11.5262,30.0195 -28.8858,30.0195 -11.945,0 -22.6387,-7.4 -24.5909,-21.9187 h 14.0337 c 0.4126,7.5376 5.2783,10.1897 12.2202,10.1897 7.9173,0 13.0576,-7.4001 13.0576,-18.7093 0,-11.8666 -4.4466,-18.1469 -12.7765,-18.1469 -6.1165,0 -11.3886,2.2331 -12.5013,9.9081 l 4.0799,-0.019 -11.0472,11.1134 -11.0412,-11.1134 z m -96.6914,-5.9658 c 0,-2.0039 -1.6109,-3.6215 -3.6018,-3.6215 h -22.7762 c -1.9843,0 -3.6018,1.6176 -3.6018,3.6215 v 22.9209 h 6.3588 v 27.1445 h 17.2622 v -27.1445 h 6.3588 z m -14.9837,-22.3184 c 4.296,0 7.7864,3.5101 7.7864,7.8388 0,4.3287 -3.4905,7.8388 -7.7864,7.8388 -4.3025,0 -7.7863,-3.5101 -7.7863,-7.8388 0,-4.3287 3.4838,-7.8388 7.7863,-7.8388 z m -0.079,-19.8429 c -15.4225,0 -28.4801,5.4157 -39.1678,16.2469 -10.9689,11.2049 -16.4508,24.4724 -16.4508,39.7894 0,15.3171 5.4812,28.4932 16.4508,39.5153 10.9628,11.0211 24.0204,16.5291 39.1678,16.5291 15.3371,0 28.6247,-5.5598 39.8687,-16.6797 10.6024,-10.5502 15.9005,-23.6741 15.9005,-39.3707 0,-15.6967 -5.3895,-28.9521 -16.1756,-39.7894 -10.7731,-10.8313 -23.9743,-16.2409 -39.5936,-16.2409 z m 0.1441,10.0781 c 12.6389,0 23.3728,4.4859 32.1997,13.4513 8.9259,8.8735 13.386,19.7114 13.386,32.5009 0,12.8879 -4.3615,23.5887 -13.1038,32.0882 -9.2009,9.1551 -20.0258,13.7264 -32.4819,13.7264 -12.4491,0 -23.189,-4.5251 -32.1997,-13.5888 -9.0175,-9.0569 -13.5225,-19.7968 -13.5225,-32.2258 0,-12.4159 4.5513,-23.2543 13.6601,-32.5009 8.7359,-8.9652 19.4232,-13.4513 32.0621,-13.4513 z"
       id="path28"
       style="stroke:none;stroke-width:1.0042" />
    <path
       fill="#ffffff"
       d="m 1929.6395,2418.2921 11.8927,32.0099 h -7.2624 l -2.4034,-7.1315 h -11.8927 l -2.4951,7.1315 h -7.0333 l 12.0233,-32.0099 z m 0.406,19.6261 -4.0077,-11.7421 h -0.092 l -4.1454,11.7421 z m -39.8095,4.4662 c 0.3864,0.7531 0.8972,1.3555 1.5324,1.814 0.6418,0.4649 1.3818,0.812 2.2397,1.0347 0.871,0.2226 1.755,0.334 2.6719,0.334 0.6221,0 1.2901,-0.052 2.0039,-0.1507 0.7138,-0.098 1.3752,-0.3078 2.0038,-0.609 0.6156,-0.3012 1.1395,-0.7073 1.5455,-1.2312 0.4191,-0.5238 0.6287,-1.1853 0.6287,-1.9973 0,-0.8644 -0.2751,-1.5586 -0.8251,-2.1021 -0.5436,-0.5435 -1.2706,-0.9823 -2.1546,-1.349 -0.8906,-0.3602 -1.8991,-0.668 -3.0189,-0.9365 -1.1329,-0.275 -2.2789,-0.5763 -3.4249,-0.9037 -1.1919,-0.3013 -2.3444,-0.668 -3.4774,-1.0937 -1.1197,-0.4322 -2.1283,-0.9954 -3.0189,-1.6896 -0.8971,-0.681 -1.6109,-1.5389 -2.161,-2.5736 -0.5436,-1.0347 -0.8186,-2.2855 -0.8186,-3.7459 0,-1.6503 0.3471,-3.0713 1.0478,-4.2828 0.6876,-1.2049 1.6109,-2.2135 2.7373,-3.0255 1.1264,-0.8054 2.3969,-1.4014 3.8244,-1.7943 1.4211,-0.3863 2.8553,-0.5762 4.2698,-0.5762 1.6633,0 3.2547,0.1833 4.7806,0.5631 1.5193,0.3733 2.8814,0.9758 4.0667,1.814 1.1919,0.8317 2.1349,1.9057 2.829,3.2088 0.7007,1.2967 1.0478,2.875 1.0478,4.7347 h -6.7845 c -0.059,-0.9561 -0.2619,-1.755 -0.5959,-2.3771 -0.3471,-0.6287 -0.7924,-1.1264 -1.3556,-1.4865 -0.5631,-0.3602 -1.2049,-0.6156 -1.9318,-0.7531 -0.7204,-0.1506 -1.5062,-0.2292 -2.3641,-0.2292 -0.5632,0 -1.1264,0.066 -1.6896,0.1768 -0.5632,0.1244 -1.0675,0.334 -1.5192,0.6287 -0.4585,0.3078 -0.8448,0.681 -1.1395,1.1264 -0.2947,0.4453 -0.4388,1.015 -0.4388,1.7026 0,0.6287 0.1244,1.1395 0.3537,1.5193 0.2423,0.3994 0.7138,0.753 1.4079,1.0805 0.6942,0.3274 1.6634,0.6614 2.888,0.9888 1.2312,0.3209 2.8421,0.74 4.8199,1.2509 0.6025,0.1178 1.421,0.3339 2.4688,0.6548 1.0543,0.3078 2.0956,0.8055 3.1368,1.4997 1.0413,0.6876 1.9384,1.611 2.6981,2.7636 0.7531,1.1525 1.1329,2.6194 1.1329,4.4138 0,1.4735 -0.2881,2.8291 -0.8513,4.0799 -0.5632,1.2574 -1.4014,2.3379 -2.5147,3.2482 -1.1199,0.9234 -2.495,1.6241 -4.1388,2.1348 -1.6503,0.5108 -3.5625,0.7597 -5.7236,0.7597 -1.755,0 -3.4511,-0.2162 -5.1014,-0.6549 -1.6437,-0.4257 -3.1041,-1.1198 -4.368,-2.0431 -1.2573,-0.9365 -2.2658,-2.1153 -3.0058,-3.556 -0.74,-1.4342 -1.1002,-3.1368 -1.0675,-5.108 h 6.7845 c -0.01,1.0805 0.1833,1.9908 0.5697,2.7374 z m -113.2034,-24.0928 h 7.8453 l 7.4523,12.6459 7.4001,-12.6459 h 7.793 l -11.8074,19.7245 v 12.2854 h -7.0071 v -12.4621 z m -12.9341,0 c 1.5127,0 2.8945,0.1375 4.1453,0.406 1.2508,0.2685 2.3183,0.7073 3.2154,1.3163 0.8907,0.6156 1.5783,1.4342 2.0694,2.4426 0.4912,1.0151 0.7335,2.279 0.7335,3.7655 0,1.6176 -0.3602,2.9534 -1.0937,4.034 -0.7204,1.074 -1.8075,1.9514 -3.2285,2.6326 1.9646,0.5763 3.4249,1.5651 4.4007,2.9862 0.9692,1.4275 1.4604,3.1368 1.4604,5.1341 0,1.611 -0.3209,3.0124 -0.943,4.1978 -0.6221,1.1787 -1.467,2.1415 -2.5278,2.888 -1.0543,0.7465 -2.2659,1.3031 -3.6149,1.6633 -1.3556,0.3602 -2.7439,0.537 -4.1781,0.537 h -15.4416 v -32.0098 h 15.0028 z m -0.8972,12.9401 c 1.2508,0 2.2724,-0.3012 3.0779,-0.8906 0.8055,-0.6025 1.2114,-1.5652 1.2114,-2.9077 0,-0.7465 -0.1376,-1.3621 -0.406,-1.8336 -0.2685,-0.4715 -0.6221,-0.8448 -1.074,-1.1133 -0.4519,-0.2685 -0.9561,-0.4584 -1.5389,-0.5632 -0.5829,-0.1048 -1.1854,-0.1506 -1.8075,-0.1506 h -6.5487 v 7.4655 h 7.0857 z m 0.406,13.5889 c 0.6876,0 1.3425,-0.066 1.9646,-0.1965 0.6221,-0.1376 1.1788,-0.3602 1.6503,-0.681 0.4781,-0.3078 0.8514,-0.7335 1.1395,-1.2705 0.2881,-0.537 0.4257,-1.2246 0.4257,-2.0628 0,-1.6371 -0.465,-2.816 -1.3883,-3.5101 -0.9234,-0.7007 -2.148,-1.0543 -3.6607,-1.0543 h -7.6358 v 8.7819 h 7.5048 z"
       id="path29"
       style="stroke:none;stroke-width:1.0042" />
    <g
       stroke-linecap="square"
       fill="none"
       stroke-width="1"
       fill-rule="evenodd"
       stroke="black"
       stroke-linejoin="bevel"
       id="DrawingContent">
      <g
         font-weight="400"
         font-style="normal"
         transform="matrix(1,0,0,1,939.472,1119.92)"
         font-family="Sans Serif"
         fill="#f1f3f5"
         fill-opacity="0"
         stroke="none"
         font-size="31.75"
         id="g31">
        <path
           vector-effect="non-scaling-stroke"
           fill-rule="evenodd"
           d="M-350,-200 L350,-200 L350,0 L50,0 L50,200 L-150,200 L-150,0 L-350,0 L-350,-200"
           id="path30" />
      </g>
      <g
         font-weight="400"
         font-style="normal"
         transform="matrix(1,0,0,1,939.472,1119.92)"
         font-family="Sans Serif"
         stroke-linecap="round"
         fill="none"
         stroke-width="7"
         stroke-opacity="1"
         stroke="#000000"
         stroke-linejoin="bevel"
         font-size="31.75"
         id="g32">
        <path
           vector-effect="none"
           fill-rule="evenodd"
           d="M-350,-200 L350,-200"
           id="path31" />
      </g>
      <g
         font-weight="400"
         font-style="normal"
         transform="matrix(1,0,0,1,939.472,1119.92)"
         font-family="Sans Serif"
         stroke-linecap="round"
         fill="none"
         stroke-width="7"
         stroke-opacity="1"
         stroke="#000000"
         stroke-linejoin="bevel"
         font-size="31.75"
         id="g33">
        <path
           vector-effect="none"
           fill-rule="evenodd"
           d="M350,-200 L350,0"
           id="path32" />
      </g>
      <g
         font-weight="400"
         font-style="normal"
         transform="matrix(1,0,0,1,939.472,1119.92)"
         font-family="Sans Serif"
         stroke-linecap="round"
         fill="none"
         stroke-width="7"
         stroke-opacity="1"
         stroke="#000000"
         stroke-linejoin="bevel"
         font-size="31.75"
         id="g34">
        <path
           vector-effect="none"
           fill-rule="evenodd"
           d="M350,0 L50,0"
           id="path33" />
      </g>
      <g
         font-weight="400"
         font-style="normal"
         transform="matrix(1,0,0,1,939.472,1119.92)"
         font-family="Sans Serif"
         stroke-linecap="round"
         fill="none"
         stroke-width="7"
         stroke-opacity="1"
         stroke="#000000"
         stroke-linejoin="bevel"
         font-size="31.75"
         id="g35">
        <path
           vector-effect="none"
           fill-rule="evenodd"
           d="M50,0 L50,200"
           id="path34" />
      </g>
      <g
         font-weight="400"
         font-style="normal"
         transform="matrix(1,0,0,1,939.472,1119.92)"
         font-family="Sans Serif"
         stroke-linecap="round"
         fill="none"
         stroke-width="7"
         stroke-opacity="1"
         stroke="#000000"
         stroke-linejoin="bevel"
         font-size="31.75"
         id="g36">
        <path
           vector-effect="none"
           fill-rule="evenodd"
           d="M50,200 L-150,200"
           id="path35" />
      </g>
      <g
         font-weight="400"
         font-style="normal"
         transform="matrix(1,0,0,1,939.472,1119.92)"
         font-family="Sans Serif"
         stroke-linecap="round"
         fill="none"
         stroke-width="7"
         stroke-opacity="1"
         stroke="#000000"
         stroke-linejoin="bevel"
         font-size="31.75"
         id="g37">
        <path
           vector-effect="none"
           fill-rule="evenodd"
           d="M-150,200 L-150,0"
           id="path36" />
      </g>
      <g
         font-weight="400"
         font-style="normal"
         transform="matrix(1,0,0,1,939.472,1119.92)"
         font-family="Sans Serif"
         stroke-linecap="round"
         fill="none"
         stroke-width="7"
         stroke-opacity="1"
         stroke="#000000"
         stroke-linejoin="bevel"
         font-size="31.75"
         id="g38">
        <path
           vector-effect="none"
           fill-rule="evenodd"
           d="M-150,0 L-350,0"
           id="path37" />
      </g>
      <g
         font-weight="400"
         font-style="normal"
         transform="matrix(1,0,0,1,939.472,1119.92)"
         font-family="Sans Serif"
         stroke-linecap="round"
         fill="none"
         stroke-width="7"
         stroke-opacity="1"
         stroke="#000000"
         stroke-linejoin="bevel"
         font-size="31.75"
         id="g39">
        <path
           vector-effect="none"
           fill-rule="evenodd"
           d="M-350,0 L-350,-200"
           id="path38" />
      </g>
      <g
         font-weight="400"
         font-style="normal"
         transform="matrix(1,0,0,1,919.464,722.594)"
         font-family="Sans Serif"
         stroke-linecap="square"
         fill="none"
         stroke-width="1"
         stroke-opacity="1"
         stroke="#000000"
         stroke-linejoin="bevel"
         font-size="31.75"
         id="g40">
        <text
           font-weight="400"
           font-style="normal"
           y="93"
           font-family="osifont"
           fill="#000000"
           fill-opacity="1"
           stroke="none"
           x="4"
           xml:space="preserve"
           font-size="67"
           id="text39">7</text>
      </g>
      <g
         font-weight="400"
         font-style="normal"
         transform="matrix(1,0,0,1,939.472,1119.92)"
         font-family="Sans Serif"
         stroke-linecap="round"
         fill="none"
         stroke-width="3.5"
         stroke-opacity="1"
         stroke="#000000"
         stroke-linejoin="bevel"
         font-size="31.75"
         id="g41">
        <path
           vector-effect="none"
           fill-rule="evenodd"
           d="M-350,-287.078 L350,-287.078 M350,-221 L350,-315.078 M-350,-221 L-350,-315.078"
           id="path40" />
      </g>
      <g
         font-weight="400"
         font-style="normal"
         transform="matrix(1,0,0,1,1289.47,832.844)"
         font-family="Sans Serif"
         stroke-linecap="round"
         fill="#000000"
         stroke-width="3.5"
         stroke-opacity="1"
         fill-opacity="1"
         stroke="#000000"
         stroke-linejoin="bevel"
         font-size="31.75"
         id="g42">
        <path
           vector-effect="none"
           fill-rule="evenodd"
           d="M0,0 L-35,-5.83333 L-35,5.83333 L0,0"
           id="path41" />
      </g>
      <g
         font-weight="400"
         font-style="normal"
         transform="matrix(1,0,0,1,589.472,832.844)"
         font-family="Sans Serif"
         stroke-linecap="round"
         fill="#000000"
         stroke-width="3.5"
         stroke-opacity="1"
         fill-opacity="1"
         stroke="#000000"
         stroke-linejoin="bevel"
         font-size="31.75"
         id="g43">
        <path
           vector-effect="none"
           fill-rule="evenodd"
           d="M0,0 L35,5.83333 L35,-5.83333 L0,0"
           id="path42" />
      </g>
      <g
         font-weight="400"
         font-style="normal"
         transform="matrix(0,-1,1,0,1379.28,1039.54)"
         font-family="Sans Serif"
         stroke-linecap="square"
         fill="none"
         stroke-width="1"
         stroke-opacity="1"
         stroke="#000000"
         stroke-linejoin="bevel"
         font-size="31.75"
         id="g44">
        <text
           font-weight="400"
           font-style="normal"
           y="93"
           font-family="osifont"
           fill="#000000"
           fill-opacity="1"
           stroke="none"
           x="4"
           xml:space="preserve"
           font-size="67"
           id="text43">2</text>
      </g>
      <g
         font-weight="400"
         font-style="normal"
         transform="matrix(1,0,0,1,939.472,1119.92)"
         font-family="Sans Serif"
         stroke-linecap="round"
         fill="none"
         stroke-width="3.5"
         stroke-opacity="1"
         stroke="#000000"
         stroke-linejoin="bevel"
         font-size="31.75"
         id="g45">
        <path
           vector-effect="none"
           fill-rule="evenodd"
           d="M550.057,-200 L550.057,1.77636e-14 M371,1.86464e-15 L578.057,2.02498e-14 M371,-200 L578.057,-200"
           id="path44" />
      </g>
      <g
         font-weight="400"
         font-style="normal"
         transform="matrix(1,0,0,1,1489.53,1119.92)"
         font-family="Sans Serif"
         stroke-linecap="round"
         fill="#000000"
         stroke-width="3.5"
         stroke-opacity="1"
         fill-opacity="1"
         stroke="#000000"
         stroke-linejoin="bevel"
         font-size="31.75"
         id="g46">
        <path
           vector-effect="none"
           fill-rule="evenodd"
           d="M0,0 L5.83333,-35 L-5.83333,-35 L0,0"
           id="path45" />
      </g>
      <g
         font-weight="400"
         font-style="normal"
         transform="matrix(1,0,0,1,1489.53,919.922)"
         font-family="Sans Serif"
         stroke-linecap="round"
         fill="#000000"
         stroke-width="3.5"
         stroke-opacity="1"
         fill-opacity="1"
         stroke="#000000"
         stroke-linejoin="bevel"
         font-size="31.75"
         id="g47">
        <path
           vector-effect="none"
           fill-rule="evenodd"
           d="M0,0 L-5.83333,35 L5.83333,35 L0,0"
           id="path46" />
      </g>
      <g
         font-weight="400"
         font-style="normal"
         transform="matrix(0,-1,1,0,1379.28,1239.54)"
         font-family="Sans Serif"
         stroke-linecap="square"
         fill="none"
         stroke-width="1"
         stroke-opacity="1"
         stroke="#000000"
         stroke-linejoin="bevel"
         font-size="31.75"
         id="g48">
        <text
           font-weight="400"
           font-style="normal"
           y="93"
           font-family="osifont"
           fill="#000000"
           fill-opacity="1"
           stroke="none"
           x="4"
           xml:space="preserve"
           font-size="67"
           id="text47">2</text>
      </g>
      <g
         font-weight="400"
         font-style="normal"
         transform="matrix(1,0,0,1,939.472,1119.92)"
         font-family="Sans Serif"
         stroke-linecap="round"
         fill="none"
         stroke-width="3.5"
         stroke-opacity="1"
         stroke="#000000"
         stroke-linejoin="bevel"
         font-size="31.75"
         id="g49">
        <path
           vector-effect="none"
           fill-rule="evenodd"
           d="M550.057,3.55271e-14 L550.057,200 M71,200 L578.057,200 M371,1.86464e-15 L578.057,2.02498e-14"
           id="path48" />
      </g>
      <g
         font-weight="400"
         font-style="normal"
         transform="matrix(1,0,0,1,1489.53,1319.92)"
         font-family="Sans Serif"
         stroke-linecap="round"
         fill="#000000"
         stroke-width="3.5"
         stroke-opacity="1"
         fill-opacity="1"
         stroke="#000000"
         stroke-linejoin="bevel"
         font-size="31.75"
         id="g50">
        <path
           vector-effect="none"
           fill-rule="evenodd"
           d="M0,0 L5.83333,-35 L-5.83333,-35 L0,0"
           id="path49" />
      </g>
      <g
         font-weight="400"
         font-style="normal"
         transform="matrix(1,0,0,1,1489.53,1119.92)"
         font-family="Sans Serif"
         stroke-linecap="round"
         fill="#000000"
         stroke-width="3.5"
         stroke-opacity="1"
         fill-opacity="1"
         stroke="#000000"
         stroke-linejoin="bevel"
         font-size="31.75"
         id="g51">
        <path
           vector-effect="none"
           fill-rule="evenodd"
           d="M0,0 L-5.83333,35 L5.83333,35 L0,0"
           id="path50" />
      </g>
      <g
         font-weight="400"
         font-style="normal"
         transform="matrix(1,0,0,1,669.855,1482.89)"
         font-family="Sans Serif"
         stroke-linecap="square"
         fill="none"
         stroke-width="1"
         stroke-opacity="1"
         stroke="#000000"
         stroke-linejoin="bevel"
         font-size="31.75"
         id="g52">
        <text
           font-weight="400"
           font-style="normal"
           y="93"
           font-family="osifont"
           fill="#000000"
           fill-opacity="1"
           stroke="none"
           x="4"
           xml:space="preserve"
           font-size="67"
           id="text51">2</text>
      </g>
      <g
         font-weight="400"
         font-style="normal"
         transform="matrix(1,0,0,1,939.472,1119.92)"
         font-family="Sans Serif"
         stroke-linecap="round"
         fill="none"
         stroke-width="3.5"
         stroke-opacity="1"
         stroke="#000000"
         stroke-linejoin="bevel"
         font-size="31.75"
         id="g53">
        <path
           vector-effect="none"
           fill-rule="evenodd"
           d="M-350,473.222 L-150,473.222 M-150,221 L-150,501.222 M-350,21 L-350,501.222"
           id="path52" />
      </g>
      <g
         font-weight="400"
         font-style="normal"
         transform="matrix(1,0,0,1,789.472,1593.14)"
         font-family="Sans Serif"
         stroke-linecap="round"
         fill="#000000"
         stroke-width="3.5"
         stroke-opacity="1"
         fill-opacity="1"
         stroke="#000000"
         stroke-linejoin="bevel"
         font-size="31.75"
         id="g54">
        <path
           vector-effect="none"
           fill-rule="evenodd"
           d="M0,0 L-35,-5.83333 L-35,5.83333 L0,0"
           id="path53" />
      </g>
      <g
         font-weight="400"
         font-style="normal"
         transform="matrix(1,0,0,1,589.472,1593.14)"
         font-family="Sans Serif"
         stroke-linecap="round"
         fill="#000000"
         stroke-width="3.5"
         stroke-opacity="1"
         fill-opacity="1"
         stroke="#000000"
         stroke-linejoin="bevel"
         font-size="31.75"
         id="g55">
        <path
           vector-effect="none"
           fill-rule="evenodd"
           d="M0,0 L35,5.83333 L35,-5.83333 L0,0"
           id="path54" />
      </g>
      <g
         font-weight="400"
         font-style="normal"
         transform="matrix(1,0,0,1,869.855,1482.89)"
         font-family="Sans Serif"
         stroke-linecap="square"
         fill="none"
         stroke-width="1"
         stroke-opacity="1"
         stroke="#000000"
         stroke-linejoin="bevel"
         font-size="31.75"
         id="g56">
        <text
           font-weight="400"
           font-style="normal"
           y="93"
           font-family="osifont"
           fill="#000000"
           fill-opacity="1"
           stroke="none"
           x="4"
           xml:space="preserve"
           font-size="67"
           id="text55">2</text>
      </g>
      <g
         font-weight="400"
         font-style="normal"
         transform="matrix(1,0,0,1,939.472,1119.92)"
         font-family="Sans Serif"
         stroke-linecap="round"
         fill="none"
         stroke-width="3.5"
         stroke-opacity="1"
         stroke="#000000"
         stroke-linejoin="bevel"
         font-size="31.75"
         id="g57">
        <path
           vector-effect="none"
           fill-rule="evenodd"
           d="M-150,473.222 L50,473.222 M50,221 L50,501.222 M-150,221 L-150,501.222"
           id="path56" />
      </g>
      <g
         font-weight="400"
         font-style="normal"
         transform="matrix(1,0,0,1,989.472,1593.14)"
         font-family="Sans Serif"
         stroke-linecap="round"
         fill="#000000"
         stroke-width="3.5"
         stroke-opacity="1"
         fill-opacity="1"
         stroke="#000000"
         stroke-linejoin="bevel"
         font-size="31.75"
         id="g58">
        <path
           vector-effect="none"
           fill-rule="evenodd"
           d="M0,0 L-35,-5.83333 L-35,5.83333 L0,0"
           id="path57" />
      </g>
      <g
         font-weight="400"
         font-style="normal"
         transform="matrix(1,0,0,1,789.472,1593.14)"
         font-family="Sans Serif"
         stroke-linecap="round"
         fill="#000000"
         stroke-width="3.5"
         stroke-opacity="1"
         fill-opacity="1"
         stroke="#000000"
         stroke-linejoin="bevel"
         font-size="31.75"
         id="g59">
        <path
           vector-effect="none"
           fill-rule="evenodd"
           d="M0,0 L35,5.83333 L35,-5.83333 L0,0"
           id="path58" />
      </g>
      <g
         font-weight="400"
         font-style="normal"
         transform="matrix(1,0,0,1,1119.38,1482.89)"
         font-family="Sans Serif"
         stroke-linecap="square"
         fill="none"
         stroke-width="1"
         stroke-opacity="1"
         stroke="#000000"
         stroke-linejoin="bevel"
         font-size="31.75"
         id="g60">
        <text
           font-weight="400"
           font-style="normal"
           y="93"
           font-family="osifont"
           fill="#000000"
           fill-opacity="1"
           stroke="none"
           x="4"
           xml:space="preserve"
           font-size="67"
           id="text59">3</text>
      </g>
      <g
         font-weight="400"
         font-style="normal"
         transform="matrix(1,0,0,1,939.472,1119.92)"
         font-family="Sans Serif"
         stroke-linecap="round"
         fill="none"
         stroke-width="3.5"
         stroke-opacity="1"
         stroke="#000000"
         stroke-linejoin="bevel"
         font-size="31.75"
         id="g61">
        <path
           vector-effect="none"
           fill-rule="evenodd"
           d="M50,473.222 L350,473.222 M350,21 L350,501.222 M50,221 L50,501.222"
           id="path60" />
      </g>
      <g
         font-weight="400"
         font-style="normal"
         transform="matrix(1,0,0,1,1289.47,1593.14)"
         font-family="Sans Serif"
         stroke-linecap="round"
         fill="#000000"
         stroke-width="3.5"
         stroke-opacity="1"
         fill-opacity="1"
         stroke="#000000"
         stroke-linejoin="bevel"
         font-size="31.75"
         id="g62">
        <path
           vector-effect="none"
           fill-rule="evenodd"
           d="M0,0 L-35,-5.83333 L-35,5.83333 L0,0"
           id="path61" />
      </g>
      <g
         font-weight="400"
         font-style="normal"
         transform="matrix(1,0,0,1,989.472,1593.14)"
         font-family="Sans Serif"
         stroke-linecap="round"
         fill="#000000"
         stroke-width="3.5"
         stroke-opacity="1"
         fill-opacity="1"
         stroke="#000000"
         stroke-linejoin="bevel"
         font-size="31.75"
         id="g63">
        <path
           vector-effect="none"
           fill-rule="evenodd"
           d="M0,0 L35,5.83333 L35,-5.83333 L0,0"
           id="path62" />
      </g>
    </g>
  </g>
</svg>
