<?xml version="1.0" encoding="UTF-8" standalone="no"?>
<svg
   width="210mm"
   viewBox="0 0 2100 2970"
   version="1.2"
   height="297mm"
   id="svg58"
   sodipodi:docname="Ex-2D-019.svg"
   inkscape:version="1.4 (e7c3feb, 2024-10-09)"
   xmlns:inkscape="http://www.inkscape.org/namespaces/inkscape"
   xmlns:sodipodi="http://sodipodi.sourceforge.net/DTD/sodipodi-0.dtd"
   xmlns:xlink="http://www.w3.org/1999/xlink"
   xmlns="http://www.w3.org/2000/svg"
   xmlns:svg="http://www.w3.org/2000/svg"
   xmlns:freecad="https://www.freecad.org/wiki/index.php?title=Svg_Namespace">
  <sodipodi:namedview
     id="namedview58"
     pagecolor="#ffffff"
     bordercolor="#000000"
     borderopacity="0.25"
     inkscape:showpageshadow="2"
     inkscape:pageopacity="0.0"
     inkscape:pagecheckerboard="0"
     inkscape:deskcolor="#d1d1d1"
     inkscape:document-units="mm"
     showgrid="false"
     inkscape:zoom="0.67793911"
     inkscape:cx="164.46905"
     inkscape:cy="735.31677"
     inkscape:window-width="1866"
     inkscape:window-height="1011"
     inkscape:window-x="0"
     inkscape:window-y="0"
     inkscape:window-maximized="1"
     inkscape:current-layer="Page" />
  <title
     id="title1">FreeCAD SVG Export</title>
  <desc
     id="desc1">Drawing page: Page exported from FreeCAD document: Unnamed</desc>
  <defs
     id="defs1">
    <defs
       id="defs2">
      <linearGradient
         id="linearGradient573">
        <stop
           stop-color="#063b8c"
           offset="0"
           id="stop1" />
        <stop
           stop-opacity="0"
           stop-color="#063b8c"
           offset="1"
           id="stop2" />
      </linearGradient>
      <linearGradient
         x1="79.604"
         y2="146.38"
         xlink:href="#linearGradient573"
         gradientUnits="userSpaceOnUse"
         id="linearGradient568"
         gradientTransform="translate(30.017,-38.793)"
         x2="103.49"
         y1="68.294" />
      <linearGradient
         x1="127.41"
         y2="117.89"
         xlink:href="#linearGradient573"
         gradientUnits="userSpaceOnUse"
         id="linearGradient570"
         gradientTransform="translate(0.22862,-37.857)"
         x2="132.09"
         y1="78.836" />
      <linearGradient
         x1="68.578"
         y2="109.86"
         xlink:href="#linearGradient573"
         gradientUnits="userSpaceOnUse"
         id="linearGradient572"
         gradientTransform="translate(74.933,-38.637)"
         x2="72.409"
         y1="86.836" />
      <linearGradient
         x1="164.69"
         y2="121.65"
         xlink:href="#linearGradient573"
         gradientUnits="userSpaceOnUse"
         id="linearGradient574"
         gradientTransform="matrix(3.5153,0,0,3.5153,161.12976,2538.7496)"
         x2="173.06"
         y1="79.697" />
    </defs>
  </defs>
  <g
     inkscape:label="TechDraw"
     id="Page"
     inkscape:groupmode="layer">
    <rect
       width="2100"
       fill="#ffffff"
       height="2970"
       id="rect2"
       x="0"
       y="0"
       style="stroke:none;stroke-width:10" />
    <rect
       width="2037.6"
       x="31.222"
       stroke="#000000"
       y="39.028"
       stroke-linejoin="round"
       fill="none"
       stroke-width="10.583"
       height="2903.7"
       id="rect3" />
    <path
       d="m 2049.468,2754.5936 -34.6936,34.6936 h -69.3872 v 26.0202 h 34.6936 v 34.6936 h -34.6936 v 43.367 l -34.6936,34.6936 h 35.1307 c 2.6303,0 4.9604,-1.6937 5.7731,-4.1952 l 6.2795,-19.327 c 0.6002,-1.8482 2.0512,-3.2944 3.8994,-3.8949 l 4.8272,-1.5687 c 1.8483,-0.6011 3.8732,-0.2819 5.4456,0.8604 l 16.4356,11.9446 c 2.1279,1.5458 5.0119,1.5458 7.14,0 l 14.7326,-10.7078 c 2.1281,-1.5459 3.018,-4.2841 2.2052,-6.7856 l -6.2795,-19.327 c -0.6011,-1.8483 -0.2776,-3.8732 0.8647,-5.4455 l 2.9851,-4.1057 c 1.1422,-1.5722 2.9645,-2.5053 4.9079,-2.5055 h 20.3217 c 2.6305,0 4.9604,-1.698 5.7731,-4.1997 l 5.6294,-17.3186 c 0.8127,-2.5016 -0.078,-5.2444 -2.2052,-6.7904 l -16.4404,-11.9446 c -1.5723,-1.1424 -2.501,-2.9644 -2.501,-4.9078 v -5.0783 c 2e-4,-1.9435 0.9286,-3.7702 2.501,-4.9122 l 18.8473,-13.6927 c 1.5726,-1.1422 2.5013,-2.9687 2.5013,-4.9122 z"
       fill="#418fde"
       id="path3"
       style="fill-rule:evenodd;stroke:none;stroke-width:2.43688" />
    <path
       d="m 2014.7744,2719.9 -34.6936,34.6936 h 34.6936 v 34.6936 l 34.6936,-34.6936 V 2719.9 Z M 1910.6936,2858.6744 1876,2893.368 v 34.6936 h 34.6936 l 34.6936,-34.6936 h -34.6936 z"
       fill="#ff585d"
       id="path4"
       style="fill-rule:evenodd;stroke:none;stroke-width:2.43688" />
    <path
       d="M 1910.6936,2719.9 1876,2754.5936 v 138.7744 l 34.6936,-34.6936 v -104.0808 h 69.3872 l 34.6936,-34.6936 z"
       fill="#cb333b"
       id="path5"
       style="fill-rule:evenodd;stroke:none;stroke-width:2.43688" />
    <path
       d="m 1910.6936,2893.368 h 34.6936 v -43.367 h 34.6936 v -34.6936 h -34.6936 v -26.0202 h 69.3872 v -34.6936 h -104.0808 z"
       fill="#ffffff"
       id="path6"
       style="fill-rule:evenodd;stroke:none;stroke-width:2.43688" />
    <rect
       width="410.51672"
       x="474.15015"
       y="2719.8999"
       height="200.98727"
       id="rect6"
       style="fill:#ffffff;stroke:none;stroke-width:3.5153" />
    <rect
       width="399.68961"
       x="479.56372"
       stroke="#000000"
       y="2724.6458"
       stroke-linecap="round"
       stroke-width="0.930078"
       height="190.13907"
       id="rect7"
       style="fill:#ffffff" />
    <rect
       width="410.51672"
       x="43.089989"
       y="2719.8999"
       height="200.98727"
       id="rect8"
       style="fill:#ffffff;stroke:none;stroke-width:3.5153" />
    <rect
       width="399.68961"
       x="48.514122"
       stroke="#000000"
       y="2724.6458"
       stroke-linecap="round"
       stroke-width="0.930078"
       height="190.13907"
       id="rect9"
       style="fill:#ffffff" />
    <g
       id="g11"
       transform="matrix(3.5153,0,0,3.5153,161.81574,2672.5138)"
       style="stroke:#031a51;stroke-width:1.5875;stroke-linecap:round;stroke-linejoin:round">
      <path
         d="m 116.75,54.759 c -8.6088,-2e-6 -13.436,-6.0156 -13.436,-13.436 0,-7.4207 5.5865,-13.436 13.436,-13.436 7.8495,0 10.636,0.0037 10.636,0.0037 l 0.42621,7.1783 -0.1478,-0.0084 c 0,0 -1.5423,-0.77956 -4.4488,-1.06 -2.9065,-0.28044 -5.051,-0.13573 -5.051,-0.13573 -4.1057,0.02439 -7.434,3.3527 -7.434,7.4584 0,4.1057 3.3283,7.434 7.434,7.434 h 3.5788 v -4.7256 h -4.243 v -5.5538 h 11.004 v 14.902 c 0,0 -3.146,1.3795 -11.755,1.3795 z"
         fill="url(#linearGradient568)"
         id="path9"
         style="fill:url(#linearGradient568)" />
      <path
         d="m 128.82,52.785 2.0977,0.6342 1.7562,0.48784 1.5123,0.19514 1.6099,0.0488 h 1.7562 l 1.9514,-0.2927 1.7562,-0.53663 1.6099,-0.68299 1.2684,-0.97569 0.73176,-0.97569 0.34149,-1.2196 0.24393,-1.8538 -0.14636,-1.6587 -0.48784,-1.2684 -0.68298,-1.2684 -0.53663,-0.6342 -0.82934,-0.87812 -0.92691,-1.0245 -1.2196,-1.0733 -1.1708,-0.87812 -1.0732,-0.78055 -1.122,-1.122 -0.58541,-0.73177 -0.43906,-0.78055 0.0976,-0.73177 0.43906,-0.48785 0.43906,-0.43906 0.82933,-0.39027 0.82934,-0.0488 h 1.0245 l 0.68298,0.19514 0.68298,0.24392 0.73177,0.24392 1.0733,0.19514 0.87812,-0.14636 0.29271,-0.43906 v -1.5611 l -0.14636,-2.1465 -0.0976,-0.6342 -0.73177,-0.58541 -1.2196,-0.53663 -1.2196,-0.34149 -1.4148,-0.04878 -1.8538,-0.04878 -2.1953,0.29271 -1.2684,0.29271 -2.049,0.68298 -1.6587,0.92691 -0.97569,1.4635 -0.58541,1.0245 -0.29271,1.122 -0.0976,0.97569 0.0488,1.0733 0.3415,1.4635 0.58541,0.82933 0.73177,1.0733 0.53663,0.87812 0.97568,1.0733 0.68299,0.6342 0.78055,0.68298 1.4148,1.0733 1.0733,0.6342 0.97569,0.82934 0.48784,0.58541 0.43907,0.6342 0.34149,1.0245 -0.48785,1.0245 -1.122,0.73177 -2.049,0.14635 -1.4148,-0.39028 -1.4148,-0.63419 -1.4635,-0.68299 -0.87812,-0.34149 -0.58541,-0.0488 z"
         fill="url(#linearGradient570)"
         id="path10"
         style="fill:url(#linearGradient570)" />
      <path
         d="m 144.3,34.539 h 7.3177 l 4.0003,11.611 4.293,-12.001 6.342,0.09757 -8.9764,24.392 -0.87812,1.2684 -1.0732,0.87812 -0.9757,0.78055 -1.2684,0.68298 -7.025,-0.19514 -0.78055,-0.19514 -0.39028,-0.97568 0.0976,-3.8052 0.48785,-0.39027 0.78055,-0.29271 0.78055,0.19514 0.48785,0.39028 0.78055,0.09757 0.68298,-0.09757 0.78055,-0.39028 0.87813,-0.68298 0.48784,-0.87812 0.29271,-0.58542 0.2927,-1.1708 z"
         fill="url(#linearGradient572)"
         id="path11"
         style="fill:url(#linearGradient572)" />
    </g>
    <path
       d="m 817.5598,2776.4858 2.43048,19.6147 -5.95281,1.9883 c -11.34457,-9.7159 -28.35863,-8.6824 -38.44332,2.3347 -10.08329,11.0173 -9.59607,28.0419 1.10068,38.4645 10.6967,10.4235 27.74204,10.484 38.51362,0.1363 l 5.6389,0.8054 0.0176,19.5198 -4.63035,2.7439 c -20.95857,11.6212 -47.24212,6.5433 -62.35439,-12.047 -15.11193,-18.5903 -14.69782,-45.3333 0.98288,-63.4476 15.68069,-18.114 42.10626,-22.3767 62.69537,-10.1128"
       fill="url(#linearGradient574)"
       id="path12"
       style="fill:url(#linearGradient574);stroke:#031a51;stroke-width:5.58054;stroke-linecap:round;stroke-linejoin:round" />
    <g
       transform="matrix(4.1673881,0,0,3.9849441,1609.4163,2349.7178)"
       aria-label="u"
       id="g13"
       style="stroke:none">
      <path
         d="m -354.54,130.98 v -2.2852 q -1.1328,1.2305 -2.5976,1.9141 -1.4453,0.6836 -2.8906,0.6836 -1.6992,0 -3.1445,-0.83985 -1.4258,-0.85937 -2.168,-2.3047 -0.72265,-1.4648 -0.72265,-4.8438 v -10.293 h 3.5547 v 10.254 q 0,2.832 0.80079,3.9648 0.82031,1.1133 2.8516,1.1133 2.5391,0 4.3164,-2.4805 v -12.852 h 3.5547 v 17.969 z"
         id="path13" />
    </g>
    <path
       d="m 115.30832,2740.6191 a 5.7130656,5.7130656 0 0 0 -5.71306,5.7131 5.7130656,5.7130656 0 0 0 5.71306,5.7131 5.7130656,5.7130656 0 0 0 5.71307,-5.7131 5.7130656,5.7130656 0 0 0 -5.71307,-5.7131 z m -22.584044,16.0351 a 9.2185227,9.2185227 0 0 0 -9.218523,9.2185 9.2185227,9.2185227 0 0 0 9.218523,9.2185 9.2185227,9.2185227 0 0 0 9.218524,-9.2185 9.2185227,9.2185227 0 0 0 -9.218524,-9.2185 z m 22.584044,0 a 9.2185227,9.2185227 0 0 0 -9.21852,9.2185 9.2185227,9.2185227 0 0 0 9.21852,9.2185 9.2185227,9.2185227 0 0 0 9.21852,-9.2185 9.2185227,9.2185227 0 0 0 -9.21852,-9.2185 z m 22.5858,0 a 9.2185227,9.2185227 0 0 0 -9.21852,9.2185 9.2185227,9.2185227 0 0 0 9.21852,9.2185 9.2185227,9.2185227 0 0 0 9.21853,-9.2185 9.2185227,9.2185227 0 0 0 -9.21853,-9.2185 z m -45.171602,23.5514 v 8.0785 h 45.171602 v -8.0785 z"
       fill="#e10024"
       style="stroke:none;stroke-width:3.5153;paint-order:markers stroke fill"
       id="path14" />
    <path
       d="m 179.81408,2800.7659 v 15.9384 c 0,2.2703 0.13955,3.9371 0.41909,4.998 0.29212,1.0613 0.65441,1.9616 1.08623,2.7005 0.44451,0.7254 0.98372,1.3834 1.61872,1.9745 2.09561,1.9075 4.87643,2.861 8.34357,2.861 3.40372,0 6.16021,-0.9604 8.26869,-2.8814 0.635,-0.5776 1.16767,-1.2287 1.59949,-1.9541 0.44455,-0.7389 0.81334,-1.6599 1.10546,-2.7615 0.30478,-1.1015 0.45755,-2.7337 0.45755,-4.8964 v -15.9788 h -3.82957 v 15.9788 c 0,2.2165 -0.16381,3.7817 -0.49407,4.6954 -0.33009,0.9135 -0.87134,1.7075 -1.6207,2.3791 -1.42246,1.2493 -3.26262,1.8728 -5.52324,1.8728 -1.58758,0 -2.96684,-0.3093 -4.13539,-0.9272 -1.16846,-0.6314 -2.0373,-1.4627 -2.60881,-2.4971 -0.57152,-1.0344 -0.85746,-2.8765 -0.85746,-5.5229 v -15.9788 z m 143.12544,0 v 9.9944 c -1.37167,-0.524 -2.64196,-0.7849 -3.81059,-0.7849 -2.51474,0 -4.58395,0.8796 -6.20978,2.6394 -1.61296,1.7598 -2.42039,4.0035 -2.42039,6.7307 0,2.9151 0.77021,5.2378 2.30695,6.9708 1.54948,1.733 3.61865,2.6008 6.20978,2.6008 h 7.41131 v -28.1512 z m 36.9915,0 v 9.9944 c -1.37164,-0.524 -2.64003,-0.7849 -3.80848,-0.7849 -2.51474,0 -4.58606,0.8796 -6.21153,2.6394 -1.613,1.7598 -2.41849,4.0035 -2.41849,6.7307 0,2.9151 0.76826,5.2378 2.30505,6.9708 1.54947,1.733 3.61865,2.6008 6.20977,2.6008 h 7.41131 v -28.1512 z m -130.6637,1.8139 c -0.53342,0 -1.00471,0.2214 -1.41112,0.6649 -0.40643,0.4299 -0.60944,0.9263 -0.60944,1.4905 0,0.5776 0.20318,1.0879 0.60944,1.5312 0.40641,0.4299 0.8777,0.6466 1.41112,0.6466 0.57148,0 1.06046,-0.2168 1.46683,-0.6466 0.40643,-0.4299 0.60944,-0.9401 0.60944,-1.5312 0,-0.6045 -0.20318,-1.1147 -0.60944,-1.5312 -0.40637,-0.4164 -0.89535,-0.6242 -1.46683,-0.6242 z m 75.02704,0 c -0.53344,0 -1.00281,0.2214 -1.40917,0.6649 -0.40644,0.4299 -0.60949,0.9263 -0.60949,1.4905 0,0.5776 0.20319,1.0879 0.60949,1.5312 0.40636,0.4299 0.87573,0.6466 1.40917,0.6466 0.57152,0 1.06236,-0.2168 1.46873,-0.6466 0.40644,-0.4299 0.60948,-0.9401 0.60948,-1.5312 0,-0.6045 -0.20318,-1.1147 -0.60948,-1.5312 -0.40637,-0.4164 -0.89721,-0.6242 -1.46873,-0.6242 z m -87.78758,7.4362 c -1.96861,0 -3.72763,0.9052 -5.27717,2.7187 v -2.3567 h -3.54307 v 18.539 h 3.54307 v -13.2397 c 1.14307,-1.7329 2.53344,-2.5988 4.17196,-2.5988 1.28277,0 2.19727,0.4088 2.74341,1.2282 0.5461,0.8061 0.81896,2.1566 0.81896,4.0507 v 10.5596 h 3.46819 v -10.6004 c 0,-2.2568 -0.24853,-3.9026 -0.74398,-4.9372 -0.48265,-1.0478 -1.19414,-1.8674 -2.13399,-2.4585 -0.93982,-0.6044 -1.9549,-0.9048 -3.04714,-0.9048 z m 43.52293,0 c -2.41308,0 -4.37515,0.8866 -5.88672,2.6598 -1.51141,1.7598 -2.26667,4.05 -2.26667,6.871 0,1.8807 0.35578,3.5385 1.067,4.9759 0.72394,1.424 1.68218,2.5597 2.87604,3.406 1.19387,0.8463 2.75656,1.2689 4.68695,1.2689 1.40974,0 2.63627,-0.1596 3.67771,-0.4819 1.05413,-0.3224 2.11484,-0.8603 3.18173,-1.6125 v -3.587 c -1.9305,1.5045 -4.03908,2.2571 -6.32508,2.2571 -1.63834,0 -2.97848,-0.5241 -4.0201,-1.5719 -1.02875,-1.0478 -1.5875,-2.4584 -1.67641,-4.2317 h 12.325 v -0.4636 c 0,-2.8882 -0.69192,-5.1921 -2.07628,-6.9118 -1.38436,-1.7197 -3.23949,-2.5784 -5.56367,-2.5784 z m 20.51494,0 c -1.67649,0 -3.35279,1.4293 -5.02934,4.2905 l -0.19053,0.3234 v -4.2521 h -3.48546 v 18.539 h 3.48546 v -9.6935 c 0,-1.5448 0.40605,-2.8815 1.21889,-4.0099 0.82554,-1.1284 1.79878,-1.6918 2.91644,-1.6918 1.02871,0 2.14626,0.6048 3.35282,1.8138 l 1.82827,-3.225 c -1.42243,-1.3971 -2.78865,-2.0945 -4.09673,-2.0945 z m 11.61947,0 c -1.65107,0 -3.00428,0.4502 -4.05842,1.3502 -1.04144,0.9001 -1.563,2.0614 -1.563,3.4854 0,1.1015 0.3445,2.122 1.03047,3.0624 0.69856,0.9269 2.16529,2.0488 4.40045,3.3653 1.11766,0.6717 1.8403,1.1888 2.17053,1.5516 0.34274,0.3494 0.5152,0.7925 0.5152,1.3298 0,0.5239 -0.25978,0.9741 -0.78054,1.3502 -0.52072,0.3762 -1.14472,0.5633 -1.86866,0.5633 -0.69853,0 -1.56087,-0.2215 -2.58958,-0.6649 -1.01606,-0.4568 -2.01346,-1.0478 -2.99138,-1.7732 v 3.9508 c 1.23193,0.6314 2.25352,1.0678 3.06636,1.3096 0.81284,0.2285 1.74042,0.3417 2.78183,0.3417 1.76539,0 3.20799,-0.4827 4.32558,-1.4499 1.13034,-0.9806 1.69564,-2.2296 1.69564,-3.7476 0,-2.1225 -1.46219,-4.057 -4.38323,-5.8034 l -1.23809,-0.7463 c -0.93981,-0.5508 -1.59911,-1.0216 -1.98017,-1.4112 -0.36829,-0.3896 -0.55366,-0.7983 -0.55366,-1.2282 0,-0.4971 0.20319,-0.8941 0.60945,-1.1896 0.41913,-0.309 0.96674,-0.4636 1.63985,-0.4636 1.30819,0 2.991,0.658 5.04868,1.9745 v -3.6257 c -1.80349,-1.0209 -3.56276,-1.5312 -5.27717,-1.5312 z m 43.90258,0 c -2.52743,0 -4.46373,0.8383 -5.80974,2.5174 v 4.01 c 1.79077,-2.0688 3.63271,-3.1031 5.52535,-3.1031 2.10827,0 3.16251,1.115 3.16251,3.345 v 0.9883 l -4.43912,1.6105 c -1.46058,0.5373 -2.59117,1.2712 -3.39128,2.1981 -0.78743,0.9135 -1.18041,1.9547 -1.18041,3.1234 0,1.2896 0.40602,2.3633 1.21886,3.223 0.81281,0.8463 1.82789,1.2689 3.04717,1.2689 1.66376,0 3.23299,-0.6048 4.70628,-1.8138 0.26682,1.2359 1.14209,1.8545 2.62804,1.8545 0.52072,0 1.01617,-0.099 1.4861,-0.3009 0.48265,-0.1881 1.11776,-0.5526 1.90518,-1.09 v -2.2368 c -0.88902,0.6583 -1.54184,0.9883 -1.96094,0.9883 -0.4064,0 -0.60944,-0.3164 -0.60944,-0.9476 v -7.8778 c 0,-1.5583 -0.0453,-2.6132 -0.13464,-3.164 -0.0763,-0.5642 -0.26611,-1.1228 -0.57096,-1.6736 -0.30477,-0.5642 -0.64751,-1.0123 -1.02857,-1.3481 -1.14304,-1.0478 -2.662,-1.5719 -4.55442,-1.5719 z m -108.51028,0.362 v 18.539 h 3.46626 v -18.539 z m 6.32121,0 7.9263,18.8603 h 1.16114 l 7.73436,-18.8603 h -3.75258 l -4.55231,11.4057 -4.72562,-11.4057 z m 68.70654,0 v 18.539 h 3.46626 v -18.539 z m 17.08506,2.7797 c 1.10497,0 2.1964,0.2907 3.27598,0.8683 v 11.7474 h -2.68576 c -1.54947,0 -2.62326,-0.1083 -3.22019,-0.3234 -0.59693,-0.2148 -1.16223,-0.6306 -1.69564,-1.2485 -0.88902,-1.0344 -1.3323,-2.5051 -1.3323,-4.4128 0,-2.0285 0.50852,-3.6418 1.52455,-4.8377 1.02875,-1.1956 2.40612,-1.7936 4.13329,-1.7936 z m 36.9915,0 c 1.10497,0 2.1964,0.2907 3.27595,0.8683 v 11.7474 h -2.68573 c -1.54947,0 -2.62132,-0.1083 -3.21825,-0.3234 -0.59694,-0.2148 -1.16223,-0.6306 -1.69564,-1.2485 -0.88902,-1.0344 -1.3342,-2.5051 -1.3342,-4.4128 0,-2.0285 0.50849,-3.6418 1.52451,-4.8377 1.02876,-1.1956 2.40609,-1.7936 4.13329,-1.7936 z m -96.62856,0.041 c 1.24466,0 2.23555,0.397 2.97218,1.1896 0.7366,0.7925 1.14916,1.9214 1.23809,3.3856 h -8.82059 c 0.24115,-1.4642 0.75632,-2.5931 1.54375,-3.3856 0.80011,-0.7926 1.82173,-1.1896 3.06639,-1.1896 z m 78.91497,6.5497 v 5.5004 c -0.93985,0.9538 -1.96337,1.4315 -3.06833,1.4315 -0.7366,0 -1.33916,-0.2422 -1.80908,-0.7259 -0.4572,-0.4836 -0.68633,-1.1092 -0.68633,-1.8749 0,-0.7522 0.24221,-1.3757 0.72479,-1.8728 0.49534,-0.5104 1.33349,-1.0138 2.51463,-1.5108 z m 1.63795,24.4584 c -4.05138,0 -7.46087,1.3967 -10.22952,4.1909 -2.756,2.7942 -4.1354,6.2407 -4.1354,10.3382 0,2.5792 0.60446,4.9759 1.81101,7.1923 1.20652,2.2165 2.8437,3.9571 4.91369,5.2198 2.07019,1.2628 4.59133,1.8932 7.56317,1.8932 3.65767,0 6.88366,-0.8058 9.67797,-2.4178 v -4.4328 c -3.07357,2.0956 -6.22314,3.1437 -9.44913,3.1437 -3.08622,0 -5.62026,-0.9928 -7.60148,-2.981 -1.9813,-1.9882 -2.97026,-4.5277 -2.97026,-7.6173 0,-3.0629 1.00204,-5.609 3.00871,-7.6377 2.0194,-2.0419 4.55337,-3.0624 7.60149,-3.0624 2.9719,0 6.01433,0.9397 9.12607,2.8204 v -4.3312 c -3.41642,-1.5449 -6.52229,-2.3181 -9.31625,-2.3181 z m -160.09731,0.3619 v 28.1512 h 3.81024 v -12.2515 h 0.99008 c 1.24466,0 2.12658,0.1547 2.6473,0.4637 0.53341,0.2956 1.12479,0.785 1.77252,1.4702 0.66042,0.6851 1.385,1.6061 2.17242,2.7614 l 1.27462,2.1961 1.18233,2.0558 0.74208,1.1083 c 0.11425,0.161 0.19053,0.2745 0.22885,0.3417 l 1.16311,1.8544 h 4.53333 l -1.40918,-2.0151 c -0.55883,-0.806 -1.30298,-2.0087 -2.23011,-3.6074 -1.47326,-2.539 -2.615,-4.3189 -3.4278,-5.3397 -0.81285,-1.021 -1.6445,-1.8267 -2.49541,-2.4178 1.44785,-0.5911 2.55886,-1.4845 3.3336,-2.6801 0.77473,-1.1956 1.1612,-2.6131 1.1612,-4.2521 0,-2.4046 -0.79248,-4.3115 -2.38006,-5.7222 -1.57486,-1.4106 -3.70935,-2.1168 -6.40207,-2.1168 z m 70.24624,0 v 27.3255 c 0,2.3106 -0.1726,3.8204 -0.51523,4.5326 -0.33044,0.712 -0.78652,1.2105 -1.37076,1.4926 -0.57148,0.2823 -1.40313,0.423 -2.49541,0.423 h -0.97275 l 0.70556,3.7476 c 0.58424,0.081 0.99679,0.1199 1.23805,0.1199 1.57492,0 2.92156,-0.3763 4.03908,-1.1286 1.11762,-0.7388 1.92315,-1.7317 2.41849,-2.981 0.508,-1.2359 0.76321,-3.1498 0.76321,-5.7426 v -27.7892 z m 133.39158,0 v 28.1512 h 3.46626 v -28.1512 z m -199.83075,3.4264 h 1.14198 c 1.86698,0 3.20058,0.1476 4.00077,0.4433 0.81284,0.2956 1.44148,0.8058 1.88599,1.5312 0.44451,0.7119 0.6671,1.5108 0.6671,2.3974 0,0.9 -0.20283,1.7079 -0.60945,2.4198 -0.39371,0.6986 -0.95247,1.2206 -1.67641,1.5698 -0.71122,0.3495 -2.03177,0.5247 -3.96245,0.5247 h -1.44763 z m 26.64773,5.8238 c -2.41311,0 -4.37514,0.8865 -5.88672,2.6598 -1.51136,1.7598 -2.26663,4.0499 -2.26663,6.871 0,1.8807 0.35575,3.5406 1.067,4.978 0.72391,1.4239 1.68218,2.5577 2.87604,3.404 1.19387,0.8463 2.75656,1.2709 4.68695,1.2709 1.40975,0 2.63627,-0.1617 3.67771,-0.484 1.05417,-0.3223 2.11298,-0.8602 3.17984,-1.6125 v -3.587 c -1.9305,1.5046 -4.03697,2.2571 -6.32297,2.2571 -1.63834,0 -2.97848,-0.524 -4.0201,-1.5718 -1.02875,-1.0479 -1.58751,-2.4584 -1.67641,-4.2317 h 12.32499 v -0.4637 c 0,-2.8882 -0.69192,-5.1921 -2.07628,-6.9118 -1.38436,-1.7196 -3.23952,-2.5784 -5.56366,-2.5784 z m 72.91084,0 c -2.52743,0 -4.46373,0.8403 -5.80973,2.5195 v 4.0099 c 1.79076,-2.0688 3.63271,-3.1051 5.52534,-3.1051 2.10831,0 3.16058,1.1151 3.16058,3.345 v 0.9883 l -4.43702,1.6125 c -1.46053,0.5374 -2.59116,1.2692 -3.39128,2.1961 -0.78742,0.9135 -1.18233,1.9547 -1.18233,3.1234 0,1.2897 0.40795,2.3633 1.22079,3.223 0.81281,0.8464 1.82792,1.271 3.04717,1.271 1.66375,0 3.23298,-0.6049 4.70628,-1.8139 0.26646,1.2359 1.14209,1.8525 2.62804,1.8525 0.52076,0 1.0162,-0.099 1.48609,-0.3009 0.48265,-0.1881 1.11776,-0.5506 1.90519,-1.0879 v -2.2368 c -0.88902,0.6582 -1.54371,0.9862 -1.96284,0.9862 -0.40644,0 -0.60945,-0.3143 -0.60945,-0.9455 v -7.8796 c 0,-1.5583 -0.0436,-2.6133 -0.13252,-3.164 -0.0763,-0.5642 -0.26611,-1.1207 -0.57099,-1.6715 -0.30478,-0.5642 -0.64749,-1.0144 -1.02851,-1.3502 -1.14303,-1.0479 -2.66203,-1.5719 -4.55442,-1.5719 z m 20.91463,0 c -1.96857,0 -3.72762,0.9072 -5.27717,2.7208 v -2.3589 h -3.54307 v 18.539 h 3.54307 V 2859.48 c 1.14304,-1.733 2.53344,-2.5988 4.17196,-2.5988 1.28277,0 2.19727,0.4108 2.74341,1.2303 0.5461,0.806 0.82089,2.1545 0.82089,4.0485 v 10.5596 h 3.46627 v -10.5982 c 0,-2.2569 -0.24643,-3.9027 -0.74208,-4.9373 -0.48262,-1.0478 -1.19415,-1.8673 -2.13397,-2.4584 -0.93985,-0.6045 -1.95686,-0.907 -3.0491,-0.907 z m 53.53802,0 c -2.52743,0 -4.46373,0.8403 -5.80974,2.5195 v 4.0099 c 1.79073,-2.0688 3.63271,-3.1051 5.52535,-3.1051 2.1083,0 3.16254,1.1151 3.16254,3.345 v 0.9883 l -4.43912,1.6125 c -1.46057,0.5374 -2.59116,1.2692 -3.39128,2.1961 -0.78743,0.9135 -1.18234,1.9547 -1.18234,3.1234 0,1.2897 0.40792,2.3633 1.2208,3.223 0.81281,0.8464 1.82788,1.271 3.04713,1.271 1.66376,0 3.23302,-0.6049 4.70628,-1.8139 0.26646,1.2359 1.14209,1.8525 2.62804,1.8525 0.52072,0 1.01617,-0.099 1.4861,-0.3009 0.48261,-0.1881 1.11776,-0.5506 1.90518,-1.0879 v -2.2368 c -0.88902,0.6582 -1.54181,0.9862 -1.96094,0.9862 -0.4064,0 -0.61138,-0.3143 -0.61138,-0.9455 v -7.8796 c 0,-1.5583 -0.0436,-2.6133 -0.13252,-3.164 -0.0759,-0.5642 -0.26611,-1.1207 -0.57096,-1.6715 -0.30478,-0.5642 -0.64752,-1.0144 -1.02858,-1.3502 -1.14303,-1.0479 -2.66199,-1.5719 -4.55442,-1.5719 z m 20.05338,0 c -1.67645,0 -3.35279,1.4313 -5.02934,4.2925 l -0.19193,0.3213 v -4.2521 h -3.48553 v 18.539 h 3.48553 v -9.6934 c 0,-1.5449 0.40791,-2.8796 1.22079,-4.0078 0.8255,-1.1285 1.79681,-1.6939 2.91446,-1.6939 1.02876,0 2.14631,0.6048 3.35286,1.8138 l 1.82827,-3.225 c -1.42246,-1.3971 -2.78675,-2.0945 -4.09497,-2.0945 z m 38.97062,0 c -1.65107,0 -3.00232,0.4502 -4.05666,1.3502 -1.04144,0.9001 -1.56294,2.0614 -1.56294,3.4854 0,1.1015 0.34274,2.122 1.02851,3.0623 0.69852,0.927 2.16528,2.0489 4.40045,3.3654 1.11766,0.6716 1.84219,1.1888 2.17242,1.5515 0.34309,0.3495 0.51331,0.7926 0.51331,1.3299 0,0.5239 -0.25978,0.9741 -0.78054,1.3502 -0.52072,0.3761 -1.14283,0.5653 -1.86673,0.5653 -0.69853,0 -1.5628,-0.2214 -2.59152,-0.6649 -1.01606,-0.4568 -2.01156,-1.0478 -2.98948,-1.7732 v 3.9491 c 1.23194,0.6314 2.25352,1.0677 3.06636,1.3096 0.81285,0.2285 1.74043,0.3416 2.78187,0.3416 1.76535,0 3.20603,-0.4826 4.32382,-1.4498 1.13035,-0.9807 1.69564,-2.2297 1.69564,-3.7477 0,-2.1225 -1.46022,-4.057 -4.38147,-5.8034 l -1.23809,-0.7462 c -0.93985,-0.5508 -1.60108,-1.0196 -1.98206,-1.4092 -0.36837,-0.3896 -0.55177,-0.8004 -0.55177,-1.2303 0,-0.497 0.20319,-0.894 0.60942,-1.1895 0.41909,-0.309 0.96484,-0.4616 1.63795,-0.4616 1.30815,0 2.99099,0.658 5.04867,1.9744 v -3.6278 c -1.80348,-1.0209 -3.56275,-1.5312 -5.27716,-1.5312 z m -17.21408,0.3213 c -2.69251,0 -4.93407,0.9072 -6.72477,2.7207 -1.77807,1.8001 -2.66649,4.0578 -2.66649,6.7716 0,2.6867 0.88382,4.9305 2.6492,6.7307 1.76538,1.7867 3.96139,2.6781 6.59048,2.6781 2.71793,0 4.97275,-0.8797 6.76344,-2.6395 1.7908,-1.7732 2.68573,-3.9965 2.68573,-6.6695 0,-2.7539 -0.88189,-5.0371 -2.64727,-6.8506 -1.76539,-1.827 -3.98284,-2.7411 -6.64989,-2.7411 z m -180.66181,0.041 6.78242,14.5695 -5.96371,13.4186 h 3.86824 l 12.40198,-27.9885 h -3.90445 l -4.51575,10.458 -4.72351,-10.458 z m 39.88459,0 v 10.6207 c 0,2.324 0.23553,3.9888 0.70556,4.9963 0.48262,0.9941 1.18761,1.786 2.11473,2.3771 0.93986,0.5777 1.96147,0.8663 3.0664,0.8663 0.93985,0 1.88044,-0.2334 2.82029,-0.7036 0.95254,-0.4702 1.7972,-1.1282 2.53386,-1.9745 v 2.3568 h 3.46627 v -18.539 h -3.46627 v 13.2601 c -1.15576,1.706 -2.5592,2.558 -4.21027,2.558 -1.32087,0 -2.24842,-0.3832 -2.78183,-1.1489 -0.52072,-0.7791 -0.78058,-2.1414 -0.78058,-4.0893 v -10.58 z m -48.39513,2.8224 c 1.24463,0 2.23552,0.395 2.97215,1.1875 0.73663,0.7926 1.14919,1.9215 1.23809,3.3858 h -8.82024 c 0.24115,-1.4643 0.75632,-2.5932 1.54374,-3.3858 0.80016,-0.7925 1.82174,-1.1875 3.0664,-1.1875 z m 188.98604,0.4433 c 1.71456,0 3.13762,0.5772 4.26793,1.7325 1.13031,1.1553 1.6956,2.6121 1.6956,4.372 0,1.7732 -0.54571,3.23 -1.63795,4.3719 -1.07955,1.1285 -2.46992,1.6939 -4.17196,1.6939 -1.71459,0 -3.11803,-0.5585 -4.21027,-1.6735 -1.09224,-1.1285 -1.63989,-2.5784 -1.63989,-4.3516 0,-1.7867 0.53457,-3.2573 1.60143,-4.4128 1.06682,-1.1552 2.43115,-1.7324 4.09497,-1.7324 z m -113.19617,6.1043 v 5.5004 c -0.93982,0.9538 -1.96143,1.4316 -3.0664,1.4316 -0.73659,0 -1.33912,-0.2422 -1.80904,-0.726 -0.45724,-0.4836 -0.68636,-1.1071 -0.68636,-1.8728 0,-0.7522 0.2422,-1.3778 0.72478,-1.8748 0.49534,-0.5105 1.33349,-1.0138 2.51467,-1.5109 z m 74.45405,0 v 5.5004 c -0.93985,0.9538 -1.96336,1.4316 -3.06833,1.4316 -0.73663,0 -1.33912,-0.2422 -1.80904,-0.726 -0.45724,-0.4836 -0.68636,-1.1071 -0.68636,-1.8728 0,-0.7522 0.2422,-1.3778 0.72478,-1.8748 0.49531,-0.5105 1.33349,-1.0138 2.51464,-1.5109 z"
       id="path15"
       style="stroke:none;stroke-width:3.5153" />
    <path
       d="m 115.90592,2740.3028 a 5.7260722,5.7260722 0 0 0 -5.72607,5.726 5.7260722,5.7260722 0 0 0 5.72607,5.7261 5.7260722,5.7260722 0 0 0 5.72607,-5.7261 5.7260722,5.7260722 0 0 0 -5.72607,-5.726 z m -22.636421,16.0723 a 9.2399661,9.2399661 0 0 0 -9.239966,9.2399 9.2399661,9.2399661 0 0 0 9.239966,9.24 9.2399661,9.2399661 0 0 0 9.239971,-9.24 9.2399661,9.2399661 0 0 0 -9.239971,-9.2399 z m 22.636421,0 a 9.2399661,9.2399661 0 0 0 -9.23996,9.2399 9.2399661,9.2399661 0 0 0 9.23996,9.24 9.2399661,9.2399661 0 0 0 9.23997,-9.24 9.2399661,9.2399661 0 0 0 -9.23997,-9.2399 z m 22.63853,0 a 9.2399661,9.2399661 0 0 0 -9.23996,9.2399 9.2399661,9.2399661 0 0 0 9.23996,9.24 9.2399661,9.2399661 0 0 0 9.23997,-9.24 9.2399661,9.2399661 0 0 0 -9.23997,-9.2399 z m -45.273545,23.6062 v 8.0972 h 45.273545 v -8.0972 z"
       opacity="0.56636"
       fill="#e10024"
       style="stroke:none;stroke-width:3.5153;paint-order:markers stroke fill"
       id="path16" />
    <text
       x="1374.667"
       font-family="Ubuntu"
       text-align="center"
       y="2869.3906"
       stroke-linecap="round"
       font-size="119.92px"
       stroke-linejoin="round"
       fill="#2a7fff"
       stroke-width="2.9386"
       text-anchor="middle"
       xml:space="preserve"
       id="text18"
       style="stroke:none">     <tspan
   x="1374.667"
   font-family="Ubuntu"
   y="2869.3906"
   fill="#2a7fff"
   stroke-width="2.9386"
   font-weight="bold"
   id="tspan18">MECATRÓNICA</tspan>   </text>
    <rect
       width="808.27002"
       x="660.79004"
       stroke="#000000"
       y="2475.5"
       fill="none"
       height="108.71001"
       id="rect18"
       style="stroke-width:5.2917;stroke-linejoin:round" />
    <text
       x="1075.6986"
       font-family="Ubuntu"
       text-align="center"
       y="2546.4744"
       font-size="50.043px"
       fill="#000000"
       text-anchor="middle"
       font-weight="bold"
       xml:space="preserve"
       id="text19"
       style="stroke:none;stroke-width:5.2917;stroke-linejoin:round">      <tspan
   x="1075.6986"
   y="2546.4744"
   fill="#000000"
   stroke-width="5.2917"
   id="tspan19">Ejercicios de Dibujo técnico 2D</tspan>    </text>
    <rect
       width="2000.3999"
       x="49.450996"
       stroke="#000000"
       y="2598.9001"
       fill="#0000ff"
       height="108.71001"
       id="rect19"
       style="stroke-width:5.2917;stroke-linejoin:round" />
    <text
       x="1047.5083"
       font-family="Ubuntu"
       text-align="center"
       y="2677.3667"
       font-size="69.804px"
       fill="#ffffff"
       text-anchor="middle"
       font-weight="bold"
       xml:space="preserve"
       id="text20"
       style="stroke:none;stroke-width:5.2917;stroke-linejoin:round">      <tspan
   x="1047.5083"
   y="2677.3667"
   fill="#ffffff"
   stroke-width="5.2917"
   id="tspan20">Libro: AUTOCAD MECHANICAL</tspan>    </text>
    <rect
       width="228.46001"
       x="416.58002"
       stroke="#000000"
       y="2475.5"
       fill="#aaccff"
       height="108.71001"
       id="rect20"
       style="stroke-width:5.2917;stroke-linejoin:round" />
    <text
       x="560.00513"
       font-family="Ubuntu"
       text-align="center"
       y="2564.5679"
       font-size="99.031px"
       fill="#000000"
       text-anchor="middle"
       font-weight="bold"
       xml:space="preserve"
       id="text21"
       style="stroke:none;stroke-width:5.2917;stroke-linejoin:round">      <tspan
   x="560.00513"
   y="2564.5679"
   fill="#000000"
   stroke-width="5.2917"
   id="tspan21">2D</tspan>    </text>
    <rect
       width="414.5"
       x="1483.8"
       stroke="#000000"
       y="2475.5"
       fill="none"
       height="108.71001"
       id="rect21"
       style="stroke-width:5.2917;stroke-linejoin:round" />
    <text
       x="1688.855"
       font-family="Ubuntu"
       text-align="center"
       y="2545.4958"
       font-size="50.043px"
       fill="#000000"
       text-anchor="middle"
       font-weight="bold"
       xml:space="preserve"
       id="text22"
       style="stroke:none;stroke-width:5.2917;stroke-linejoin:round">      <tspan
   x="1688.855"
   y="2545.4958"
   fill="#000000"
   stroke-width="5.2917"
   id="tspan22">Unidades: mm</tspan>    </text>
    <rect
       width="351.20999"
       x="50.158001"
       stroke="#000000"
       y="2475.2"
       fill="#aaccff"
       height="108.71001"
       id="rect22"
       style="stroke-width:5.2917;stroke-linejoin:round" />
    <text
       x="183.23279"
       font-family="Ubuntu"
       text-align="center"
       y="2564.2705"
       font-size="99.031px"
       fill="#000000"
       text-anchor="middle"
       font-weight="bold"
       xml:space="preserve"
       id="text23"
       style="stroke:none;stroke-width:5.2917;stroke-linejoin:round">      <tspan
   x="183.23279"
   y="2564.2705"
   fill="#000000"
   stroke-width="5.2917"
   id="tspan23">EX-</tspan>    </text>
    <text
       freecad:editable="Numero de ejercicio"
       x="306.74179"
       font-family="Ubuntu"
       text-align="center"
       y="2563.9736"
       font-size="99.031px"
       fill="#000000"
       text-anchor="middle"
       font-weight="bold"
       id="text24"
       style="stroke:none;stroke-width:5.2917;stroke-linejoin:round"><tspan
         x="306.74179"
         y="2563.9736"
         fill="#000000"
         stroke-width="5.2917"
         xml:space="preserve"
         id="tspan24">019</tspan></text>
    <g
       stroke="black"
       fill-rule="evenodd"
       stroke-linecap="square"
       stroke-linejoin="bevel"
       fill="none"
       id="DrawingContent"
       stroke-width="1">
      <g
         stroke="none"
         font-family="Sans Serif"
         font-size="31.75"
         font-style="normal"
         fill="#f1f3f5"
         transform="matrix(1,0,0,1,1004.82,1259.11)"
         fill-opacity="0"
         font-weight="400"
         id="g25">
        <path
           d="M28.5138,-279 C-125.574,-279 -250.486,-154.087 -250.486,-3.41676e-14 C-250.486,154.087 -125.574,279 28.5138,279 L682.486,279 C549.935,589.697 217.078,764.243 -113.871,696.597 C-444.819,628.952 -682.486,337.791 -682.486,-3.8781e-13 C-682.486,-337.791 -444.819,-628.952 -113.871,-696.597 C217.078,-764.243 549.935,-589.697 682.486,-279 L28.5138,-279"
           fill-rule="evenodd"
           vector-effect="non-scaling-stroke"
           id="path24" />
      </g>
      <g
         stroke="none"
         font-family="Sans Serif"
         font-size="31.75"
         font-style="normal"
         fill="#f1f3f5"
         transform="matrix(1,0,0,1,1004.82,1259.11)"
         fill-opacity="0"
         font-weight="400"
         id="g26">
        <path
           d="M118.514,495 C118.514,544.706 78.2194,585 28.5138,585 C-21.1919,585 -61.4862,544.706 -61.4862,495 C-61.4862,445.294 -21.1919,405 28.5138,405 C78.2194,405 118.514,445.294 118.514,495 "
           fill-rule="evenodd"
           vector-effect="non-scaling-stroke"
           id="path25" />
      </g>
      <g
         stroke="none"
         font-family="Sans Serif"
         font-size="31.75"
         font-style="normal"
         fill="#f1f3f5"
         transform="matrix(1,0,0,1,1004.82,1259.11)"
         fill-opacity="0"
         font-weight="400"
         id="g27">
        <path
           d="M-376.486,0 C-376.486,49.7056 -416.781,90 -466.486,90 C-516.192,90 -556.486,49.7056 -556.486,0 C-556.486,-49.7056 -516.192,-90 -466.486,-90 C-416.781,-90 -376.486,-49.7056 -376.486,0 "
           fill-rule="evenodd"
           vector-effect="non-scaling-stroke"
           id="path26" />
      </g>
      <g
         stroke="none"
         font-family="Sans Serif"
         font-size="31.75"
         font-style="normal"
         fill="#f1f3f5"
         transform="matrix(1,0,0,1,1004.82,1259.11)"
         fill-opacity="0"
         font-weight="400"
         id="g28">
        <path
           d="M118.514,-495 C118.514,-445.294 78.2194,-405 28.5138,-405 C-21.1919,-405 -61.4862,-445.294 -61.4862,-495 C-61.4862,-544.706 -21.1919,-585 28.5138,-585 C78.2194,-585 118.514,-544.706 118.514,-495 "
           fill-rule="evenodd"
           vector-effect="non-scaling-stroke"
           id="path27" />
      </g>
      <g
         stroke-opacity="1"
         stroke="#000000"
         font-family="Sans Serif"
         stroke-linecap="round"
         font-size="31.75"
         stroke-linejoin="bevel"
         font-style="normal"
         fill="none"
         stroke-width="7"
         transform="matrix(1,0,0,1,1004.82,1259.11)"
         font-weight="400"
         id="g29">
        <path
           d="M118.514,-495 C118.514,-445.294 78.2194,-405 28.5138,-405 C-21.1919,-405 -61.4862,-445.294 -61.4862,-495 C-61.4862,-544.706 -21.1919,-585 28.5138,-585 C78.2194,-585 118.514,-544.706 118.514,-495 "
           fill-rule="evenodd"
           vector-effect="none"
           id="path28" />
      </g>
      <g
         stroke-opacity="1"
         stroke="#000000"
         font-family="Sans Serif"
         stroke-linecap="round"
         font-size="31.75"
         stroke-linejoin="bevel"
         font-style="normal"
         fill="none"
         stroke-width="7"
         transform="matrix(1,0,0,1,1004.82,1259.11)"
         font-weight="400"
         id="g30">
        <path
           d="M118.514,495 C118.514,544.706 78.2194,585 28.5138,585 C-21.1919,585 -61.4862,544.706 -61.4862,495 C-61.4862,445.294 -21.1919,405 28.5138,405 C78.2194,405 118.514,445.294 118.514,495 "
           fill-rule="evenodd"
           vector-effect="none"
           id="path29" />
      </g>
      <g
         stroke-opacity="1"
         stroke="#000000"
         font-family="Sans Serif"
         stroke-linecap="round"
         font-size="31.75"
         stroke-linejoin="bevel"
         font-style="normal"
         fill="none"
         stroke-width="7"
         transform="matrix(1,0,0,1,1004.82,1259.11)"
         font-weight="400"
         id="g31">
        <path
           d="M-376.486,0 C-376.486,49.7056 -416.781,90 -466.486,90 C-516.192,90 -556.486,49.7056 -556.486,0 C-556.486,-49.7056 -516.192,-90 -466.486,-90 C-416.781,-90 -376.486,-49.7056 -376.486,0 "
           fill-rule="evenodd"
           vector-effect="none"
           id="path30" />
      </g>
      <g
         stroke-opacity="1"
         stroke="#000000"
         font-family="Sans Serif"
         stroke-linecap="round"
         font-size="31.75"
         stroke-linejoin="bevel"
         font-style="normal"
         fill="none"
         stroke-width="7"
         transform="matrix(1,0,0,1,1004.82,1259.11)"
         font-weight="400"
         id="g32">
        <path
           d="M28.5138,-279 C-125.574,-279 -250.486,-154.087 -250.486,-3.41676e-14 C-250.486,154.087 -125.574,279 28.5138,279 "
           fill-rule="evenodd"
           vector-effect="none"
           id="path31" />
      </g>
      <g
         stroke-opacity="1"
         stroke="#000000"
         font-family="Sans Serif"
         stroke-linecap="round"
         font-size="31.75"
         stroke-linejoin="bevel"
         font-style="normal"
         fill="none"
         stroke-width="7"
         transform="matrix(1,0,0,1,1004.82,1259.11)"
         font-weight="400"
         id="g33">
        <path
           d="M28.5138,279 L682.486,279"
           fill-rule="evenodd"
           vector-effect="none"
           id="path32" />
      </g>
      <g
         stroke-opacity="1"
         stroke="#000000"
         font-family="Sans Serif"
         stroke-linecap="round"
         font-size="31.75"
         stroke-linejoin="bevel"
         font-style="normal"
         fill="none"
         stroke-width="7"
         transform="matrix(1,0,0,1,1004.82,1259.11)"
         font-weight="400"
         id="g34">
        <path
           d="M682.486,-279 C549.935,-589.697 217.078,-764.243 -113.871,-696.597 C-444.819,-628.952 -682.486,-337.791 -682.486,-5.61955e-13 C-682.486,337.791 -444.819,628.952 -113.871,696.597 C217.078,764.243 549.935,589.697 682.486,279 "
           fill-rule="evenodd"
           vector-effect="none"
           id="path33" />
      </g>
      <g
         stroke-opacity="1"
         stroke="#000000"
         font-family="Sans Serif"
         stroke-linecap="round"
         font-size="31.75"
         stroke-linejoin="bevel"
         font-style="normal"
         fill="none"
         stroke-width="7"
         transform="matrix(1,0,0,1,1004.82,1259.11)"
         font-weight="400"
         id="g35">
        <path
           d="M28.5138,-279 L682.486,-279"
           fill-rule="evenodd"
           vector-effect="none"
           id="path34" />
      </g>
      <g
         stroke-opacity="1"
         stroke="#000000"
         font-family="Sans Serif"
         stroke-linecap="round"
         font-size="31.75"
         stroke-linejoin="bevel"
         stroke-dasharray="84,42,42,42"
         stroke-dashoffset="0"
         font-style="normal"
         fill="none"
         stroke-width="3.5"
         transform="matrix(1,0,0,1,1004.82,1259.11)"
         font-weight="400"
         id="g36">
        <path
           d="M775.514,0 L-718.486,0"
           fill-rule="evenodd"
           vector-effect="none"
           id="path35" />
      </g>
      <g
         stroke-opacity="1"
         stroke="#000000"
         font-family="Sans Serif"
         stroke-linecap="round"
         font-size="31.75"
         stroke-linejoin="bevel"
         stroke-dasharray="84,42,42,42"
         stroke-dashoffset="0"
         font-style="normal"
         fill="none"
         stroke-width="3.5"
         transform="matrix(1,0,0,1,1004.82,1259.11)"
         font-weight="400"
         id="g37">
        <path
           d="M28.5138,747 L28.5138,-747"
           fill-rule="evenodd"
           vector-effect="none"
           id="path36" />
      </g>
      <g
         stroke-opacity="1"
         stroke="#000000"
         font-family="Sans Serif"
         stroke-linecap="square"
         font-size="31.75"
         stroke-linejoin="bevel"
         font-style="normal"
         fill="none"
         stroke-width="1"
         transform="matrix(1,0,0,1,726.827,1976.07)"
         font-weight="400"
         id="g38">
        <text
           stroke="none"
           x="4"
           font-family="osifont"
           y="93"
           font-size="67"
           font-style="normal"
           fill="#000000"
           fill-opacity="1"
           xml:space="preserve"
           font-weight="400"
           id="text37">27.5</text>
      </g>
      <g
         stroke-opacity="1"
         stroke="#000000"
         font-family="Sans Serif"
         stroke-linecap="round"
         font-size="31.75"
         stroke-linejoin="bevel"
         font-style="normal"
         fill="none"
         stroke-width="3.5"
         transform="matrix(1,0,0,1,1004.82,1259.11)"
         font-weight="400"
         id="g39">
        <path
           d="M-466.486,827.212 L28.5138,827.212 M28.5138,516 L28.5138,855.212 M-466.486,21 L-466.486,855.212"
           fill-rule="evenodd"
           vector-effect="none"
           id="path38" />
      </g>
      <g
         stroke-opacity="1"
         stroke="#000000"
         font-family="Sans Serif"
         stroke-linecap="round"
         font-size="31.75"
         stroke-linejoin="bevel"
         font-style="normal"
         fill="#000000"
         stroke-width="3.5"
         transform="matrix(1,0,0,1,1033.34,2086.32)"
         fill-opacity="1"
         font-weight="400"
         id="g40">
        <path
           d="M0,0 L-35,-5.83333 L-35,5.83333 L0,0"
           fill-rule="evenodd"
           vector-effect="none"
           id="path39" />
      </g>
      <g
         stroke-opacity="1"
         stroke="#000000"
         font-family="Sans Serif"
         stroke-linecap="round"
         font-size="31.75"
         stroke-linejoin="bevel"
         font-style="normal"
         fill="#000000"
         stroke-width="3.5"
         transform="matrix(1,0,0,1,538.335,2086.32)"
         fill-opacity="1"
         font-weight="400"
         id="g41">
        <path
           d="M0,0 L35,5.83333 L35,-5.83333 L0,0"
           fill-rule="evenodd"
           vector-effect="none"
           id="path40" />
      </g>
      <g
         stroke-opacity="1"
         stroke="#000000"
         font-family="Sans Serif"
         stroke-linecap="square"
         font-size="31.75"
         stroke-linejoin="bevel"
         font-style="normal"
         fill="none"
         stroke-width="1"
         transform="matrix(1,0,0,1,313.012,653.571)"
         font-weight="400"
         id="g42">
        <text
           stroke="none"
           x="4"
           font-family="osifont"
           y="93"
           font-size="67"
           font-style="normal"
           fill="#000000"
           fill-opacity="1"
           xml:space="preserve"
           font-weight="400"
           id="text41">R15.5</text>
      </g>
      <g
         stroke-opacity="1"
         stroke="#000000"
         font-family="Sans Serif"
         stroke-linecap="round"
         font-size="31.75"
         stroke-linejoin="bevel"
         font-style="normal"
         fill="none"
         stroke-width="3.5"
         transform="matrix(1,0,0,1,1004.82,1259.11)"
         font-weight="400"
         id="g43">
        <path
           d="M-182.409,-182.627 L-543.509,-495.286 M-691.376,-495.286 L-543.509,-495.286"
           fill-rule="evenodd"
           vector-effect="none"
           id="path42" />
      </g>
      <g
         stroke-opacity="1"
         stroke="#000000"
         font-family="Sans Serif"
         stroke-linecap="round"
         font-size="31.75"
         stroke-linejoin="bevel"
         font-style="normal"
         fill="#000000"
         stroke-width="3.5"
         transform="matrix(1,0,0,1,822.413,1076.48)"
         fill-opacity="1"
         font-weight="400"
         id="g44">
        <path
           d="M0,0 L-22.6414,-27.3202 L-30.2782,-18.5003 L0,0"
           fill-rule="evenodd"
           vector-effect="none"
           id="path43" />
      </g>
      <g
         stroke-opacity="1"
         stroke="#000000"
         font-family="Sans Serif"
         stroke-linecap="square"
         font-size="31.75"
         stroke-linejoin="bevel"
         font-style="normal"
         fill="none"
         stroke-width="1"
         transform="matrix(0,-1,1,0,1708.64,1070.61)"
         font-weight="400"
         id="g45">
        <text
           stroke="none"
           x="4"
           font-family="osifont"
           y="93"
           font-size="67"
           font-style="normal"
           fill="#000000"
           fill-opacity="1"
           xml:space="preserve"
           font-weight="400"
           id="text44">27.5</text>
      </g>
      <g
         stroke-opacity="1"
         stroke="#000000"
         font-family="Sans Serif"
         stroke-linecap="round"
         font-size="31.75"
         stroke-linejoin="bevel"
         font-style="normal"
         fill="none"
         stroke-width="3.5"
         transform="matrix(1,0,0,1,1004.82,1259.11)"
         font-weight="400"
         id="g46">
        <path
           d="M814.071,0 L814.071,-495 M49.5138,-495 L842.071,-495 M49.5138,9.49733e-16 L842.071,3.67934e-14"
           fill-rule="evenodd"
           vector-effect="none"
           id="path45" />
      </g>
      <g
         stroke-opacity="1"
         stroke="#000000"
         font-family="Sans Serif"
         stroke-linecap="round"
         font-size="31.75"
         stroke-linejoin="bevel"
         font-style="normal"
         fill="#000000"
         stroke-width="3.5"
         transform="matrix(1,0,0,1,1818.89,764.106)"
         fill-opacity="1"
         font-weight="400"
         id="g47">
        <path
           d="M0,0 L-5.83333,35 L5.83333,35 L0,0"
           fill-rule="evenodd"
           vector-effect="none"
           id="path46" />
      </g>
      <g
         stroke-opacity="1"
         stroke="#000000"
         font-family="Sans Serif"
         stroke-linecap="round"
         font-size="31.75"
         stroke-linejoin="bevel"
         font-style="normal"
         fill="#000000"
         stroke-width="3.5"
         transform="matrix(1,0,0,1,1818.89,1259.11)"
         fill-opacity="1"
         font-weight="400"
         id="g48">
        <path
           d="M0,0 L5.83333,-35 L-5.83333,-35 L0,0"
           fill-rule="evenodd"
           vector-effect="none"
           id="path47" />
      </g>
      <g
         stroke-opacity="1"
         stroke="#000000"
         font-family="Sans Serif"
         stroke-linecap="square"
         font-size="31.75"
         stroke-linejoin="bevel"
         font-style="normal"
         fill="none"
         stroke-width="1"
         transform="matrix(0,-1,1,0,1848.82,1263.54)"
         font-weight="400"
         id="g49">
        <text
           stroke="none"
           x="4"
           font-family="osifont"
           y="93"
           font-size="67"
           font-style="normal"
           fill="#000000"
           fill-opacity="1"
           xml:space="preserve"
           font-weight="400"
           id="text48">55</text>
      </g>
      <g
         stroke-opacity="1"
         stroke="#000000"
         font-family="Sans Serif"
         stroke-linecap="round"
         font-size="31.75"
         stroke-linejoin="bevel"
         font-style="normal"
         fill="none"
         stroke-width="3.5"
         transform="matrix(1,0,0,1,1004.82,1259.11)"
         font-weight="400"
         id="g50">
        <path
           d="M954.251,495 L954.251,-495 M49.5138,-495 L982.251,-495 M49.5138,495 L982.251,495"
           fill-rule="evenodd"
           vector-effect="none"
           id="path49" />
      </g>
      <g
         stroke-opacity="1"
         stroke="#000000"
         font-family="Sans Serif"
         stroke-linecap="round"
         font-size="31.75"
         stroke-linejoin="bevel"
         font-style="normal"
         fill="#000000"
         stroke-width="3.5"
         transform="matrix(1,0,0,1,1959.07,764.106)"
         fill-opacity="1"
         font-weight="400"
         id="g51">
        <path
           d="M0,0 L-5.83333,35 L5.83333,35 L0,0"
           fill-rule="evenodd"
           vector-effect="none"
           id="path50" />
      </g>
      <g
         stroke-opacity="1"
         stroke="#000000"
         font-family="Sans Serif"
         stroke-linecap="round"
         font-size="31.75"
         stroke-linejoin="bevel"
         font-style="normal"
         fill="#000000"
         stroke-width="3.5"
         transform="matrix(1,0,0,1,1959.07,1754.11)"
         fill-opacity="1"
         font-weight="400"
         id="g52">
        <path
           d="M0,0 L5.83333,-35 L-5.83333,-35 L0,0"
           fill-rule="evenodd"
           vector-effect="none"
           id="path51" />
      </g>
      <g
         stroke-opacity="1"
         stroke="#000000"
         font-family="Sans Serif"
         stroke-linecap="square"
         font-size="31.75"
         stroke-linejoin="bevel"
         font-style="normal"
         fill="none"
         stroke-width="1"
         transform="matrix(1,0,0,1,1583.32,501.557)"
         font-weight="400"
         id="g53">
        <text
           stroke="none"
           x="4"
           font-family="osifont"
           y="93"
           font-size="67"
           font-style="normal"
           fill="#000000"
           fill-opacity="1"
           xml:space="preserve"
           font-weight="400"
           id="text52">R39.5</text>
      </g>
      <g
         stroke-opacity="1"
         stroke="#000000"
         font-family="Sans Serif"
         stroke-linecap="round"
         font-size="31.75"
         stroke-linejoin="bevel"
         font-style="normal"
         fill="none"
         stroke-width="3.5"
         transform="matrix(1,0,0,1,1004.82,1259.11)"
         font-weight="400"
         id="g54">
        <path
           d="M489.059,-541.682 L578.857,-647.3 M736.568,-647.3 L578.857,-647.3"
           fill-rule="evenodd"
           vector-effect="none"
           id="path53" />
      </g>
      <g
         stroke-opacity="1"
         stroke="#000000"
         font-family="Sans Serif"
         stroke-linecap="round"
         font-size="31.75"
         stroke-linejoin="bevel"
         font-style="normal"
         fill="#000000"
         stroke-width="3.5"
         transform="matrix(1,0,0,1,1493.88,717.425)"
         fill-opacity="1"
         font-weight="400"
         id="g55">
        <path
           d="M0,0 L27.1152,-22.8866 L18.2268,-30.4436 L0,0"
           fill-rule="evenodd"
           vector-effect="none"
           id="path54" />
      </g>
      <g
         stroke-opacity="1"
         stroke="#000000"
         font-family="Sans Serif"
         stroke-linecap="square"
         font-size="31.75"
         stroke-linejoin="bevel"
         font-style="normal"
         fill="none"
         stroke-width="1"
         transform="matrix(1,0,0,1,1213.12,313.639)"
         font-weight="400"
         id="g56">
        <text
           stroke="none"
           x="4"
           font-family="osifont"
           y="93"
           font-size="67"
           font-style="normal"
           fill="#000000"
           fill-opacity="1"
           xml:space="preserve"
           font-weight="400"
           id="text55">3× R5</text>
      </g>
      <g
         stroke-opacity="1"
         stroke="#000000"
         font-family="Sans Serif"
         stroke-linecap="round"
         font-size="31.75"
         stroke-linejoin="bevel"
         font-style="normal"
         fill="none"
         stroke-width="3.5"
         transform="matrix(1,0,0,1,1004.82,1259.11)"
         font-weight="400"
         id="g57">
        <path
           d="M28.5138,-495 L208.464,-835.218 M379.8,-835.218 L208.464,-835.218"
           fill-rule="evenodd"
           vector-effect="none"
           id="path56" />
      </g>
      <g
         stroke-opacity="1"
         stroke="#000000"
         font-family="Sans Serif"
         stroke-linecap="round"
         font-size="31.75"
         stroke-linejoin="bevel"
         font-style="normal"
         fill="#000000"
         stroke-width="3.5"
         transform="matrix(1,0,0,1,1075.41,684.55)"
         fill-opacity="1"
         font-weight="400"
         id="g58">
        <path
           d="M0,0 L21.5208,-28.2114 L11.2079,-33.6662 L0,0"
           fill-rule="evenodd"
           vector-effect="none"
           id="path57" />
      </g>
    </g>
  </g>
</svg>
