<?xml version="1.0" encoding="UTF-8" standalone="no"?>
<svg
   height="297mm"
   viewBox="0 0 2100 2970"
   width="210mm"
   version="1.2"
   id="svg59"
   sodipodi:docname="Ex-2D-007.svg"
   inkscape:version="1.4-beta3 (01c8a1c, 2024-08-28)"
   inkscape:export-filename="../PDF/Ex-2D-007.pdf"
   inkscape:export-xdpi="96"
   inkscape:export-ydpi="96"
   xmlns:inkscape="http://www.inkscape.org/namespaces/inkscape"
   xmlns:sodipodi="http://sodipodi.sourceforge.net/DTD/sodipodi-0.dtd"
   xmlns:xlink="http://www.w3.org/1999/xlink"
   xmlns="http://www.w3.org/2000/svg"
   xmlns:svg="http://www.w3.org/2000/svg"
   xmlns:freecad="https://www.freecad.org/wiki/index.php?title=Svg_Namespace">
  <sodipodi:namedview
     id="namedview59"
     pagecolor="#ffffff"
     bordercolor="#000000"
     borderopacity="0.25"
     inkscape:showpageshadow="2"
     inkscape:pageopacity="0.0"
     inkscape:pagecheckerboard="0"
     inkscape:deskcolor="#d1d1d1"
     inkscape:document-units="mm"
     inkscape:zoom="0.67793911"
     inkscape:cx="396.7908"
     inkscape:cy="561.25984"
     inkscape:window-width="1866"
     inkscape:window-height="1011"
     inkscape:window-x="0"
     inkscape:window-y="0"
     inkscape:window-maximized="1"
     inkscape:current-layer="Page" />
  <title
     id="title1">FreeCAD SVG Export</title>
  <desc
     id="desc1">Drawing page: Page exported from FreeCAD document: Unnamed</desc>
  <defs
     id="defs1">
    <defs
       id="defs2">
      <linearGradient
         id="linearGradient573">
        <stop
           stop-color="#063b8c"
           offset="0"
           id="stop1" />
        <stop
           stop-color="#063b8c"
           stop-opacity="0"
           offset="1"
           id="stop2" />
      </linearGradient>
      <linearGradient
         xlink:href="#linearGradient573"
         y2="146.38"
         gradientTransform="translate(30.017,-38.793)"
         y1="68.294"
         x2="103.49"
         x1="79.604"
         gradientUnits="userSpaceOnUse"
         id="linearGradient568" />
      <linearGradient
         xlink:href="#linearGradient573"
         y2="117.89"
         gradientTransform="translate(0.22862,-37.857)"
         y1="78.836"
         x2="132.09"
         x1="127.41"
         gradientUnits="userSpaceOnUse"
         id="linearGradient570" />
      <linearGradient
         xlink:href="#linearGradient573"
         y2="109.86"
         gradientTransform="translate(74.933,-38.637)"
         y1="86.836"
         x2="72.409"
         x1="68.578"
         gradientUnits="userSpaceOnUse"
         id="linearGradient572" />
      <linearGradient
         xlink:href="#linearGradient573"
         y2="121.65"
         gradientTransform="translate(-0.19514,-38.052)"
         y1="79.697"
         x2="173.06"
         x1="164.69"
         gradientUnits="userSpaceOnUse"
         id="linearGradient574" />
    </defs>
  </defs>
  <g
     inkscape:label="TechDraw"
     inkscape:groupmode="layer"
     id="Page">
    <rect
       height="2970"
       fill="#ffffff"
       width="2100"
       id="rect2"
       x="0"
       y="0"
       style="stroke:none;stroke-width:10" />
    <rect
       height="2903.7"
       y="39.028"
       fill="none"
       stroke-width="10.583"
       width="2037.6"
       stroke="#000000"
       x="31.222"
       stroke-linejoin="round"
       id="rect3" />
    <path
       fill="#418fde"
       d="m 2049.468,2754.5936 -34.6936,34.6936 h -69.3872 v 26.0202 h 34.6936 v 34.6936 h -34.6936 v 43.367 l -34.6936,34.6936 h 35.1307 c 2.6303,0 4.9604,-1.6937 5.7731,-4.1952 l 6.2795,-19.327 c 0.6002,-1.8482 2.0512,-3.2944 3.8994,-3.8949 l 4.8272,-1.5687 c 1.8483,-0.6011 3.8732,-0.2819 5.4456,0.8604 l 16.4356,11.9446 c 2.1279,1.5458 5.0119,1.5458 7.14,0 l 14.7326,-10.7078 c 2.1281,-1.5459 3.018,-4.2841 2.2052,-6.7856 l -6.2795,-19.327 c -0.6011,-1.8483 -0.2776,-3.8732 0.8647,-5.4455 l 2.9851,-4.1057 c 1.1422,-1.5722 2.9645,-2.5053 4.9079,-2.5055 h 20.3217 c 2.6305,0 4.9604,-1.698 5.7731,-4.1997 l 5.6294,-17.3186 c 0.8127,-2.5016 -0.078,-5.2444 -2.2052,-6.7904 l -16.4404,-11.9446 c -1.5723,-1.1424 -2.501,-2.9644 -2.501,-4.9078 v -5.0783 c 2e-4,-1.9435 0.9286,-3.7702 2.501,-4.9122 l 18.8473,-13.6927 c 1.5726,-1.1422 2.5013,-2.9687 2.5013,-4.9122 z"
       id="path3"
       style="fill-rule:evenodd;stroke:none;stroke-width:2.43688" />
    <path
       fill="#ff585d"
       d="m 2014.7744,2719.9 -34.6936,34.6936 h 34.6936 v 34.6936 l 34.6936,-34.6936 V 2719.9 Z M 1910.6936,2858.6744 1876,2893.368 v 34.6936 h 34.6936 l 34.6936,-34.6936 h -34.6936 z"
       id="path4"
       style="fill-rule:evenodd;stroke:none;stroke-width:2.43688" />
    <path
       fill="#cb333b"
       d="M 1910.6936,2719.9 1876,2754.5936 v 138.7744 l 34.6936,-34.6936 v -104.0808 h 69.3872 l 34.6936,-34.6936 z"
       id="path5"
       style="fill-rule:evenodd;stroke:none;stroke-width:2.43688" />
    <path
       fill="#ffffff"
       d="m 1910.6936,2893.368 h 34.6936 v -43.367 h 34.6936 v -34.6936 h -34.6936 v -26.0202 h 69.3872 v -34.6936 h -104.0808 z"
       id="path6"
       style="fill-rule:evenodd;stroke:none;stroke-width:2.43688" />
    <g
       transform="matrix(3.5153,0,0,3.5153,-296.40361,2053.7858)"
       fill="#ffffff"
       id="g9"
       style="stroke:none">
      <rect
         height="57.174999"
         y="189.49001"
         width="116.78"
         x="219.2"
         id="rect6" />
      <rect
         height="54.089001"
         y="190.84"
         stroke-linecap="round"
         stroke-width="0.26458"
         width="113.7"
         stroke="#000000"
         x="220.74001"
         id="rect7" />
      <rect
         height="57.174999"
         y="189.49001"
         width="116.78"
         x="96.575996"
         id="rect8" />
      <rect
         height="54.089001"
         y="190.84"
         stroke-linecap="round"
         stroke-width="0.26458"
         width="113.7"
         stroke="#000000"
         x="98.119003"
         id="rect9" />
    </g>
    <g
       transform="matrix(3.5153,0,0,3.5153,-296.40361,2053.7858)"
       id="g17"
       style="stroke:none">
      <g
         transform="translate(130.35,176.01)"
         stroke-linecap="round"
         stroke-width="1.5875"
         stroke="#031a51"
         stroke-linejoin="round"
         id="g12">
        <g
           id="g11">
          <path
             fill="url(#linearGradient568)"
             d="m 116.75,54.759 c -8.6088,-2e-6 -13.436,-6.0156 -13.436,-13.436 0,-7.4207 5.5865,-13.436 13.436,-13.436 7.8495,0 10.636,0.0037 10.636,0.0037 l 0.42621,7.1783 -0.1478,-0.0084 c 0,0 -1.5423,-0.77956 -4.4488,-1.06 -2.9065,-0.28044 -5.051,-0.13573 -5.051,-0.13573 -4.1057,0.02439 -7.434,3.3527 -7.434,7.4584 0,4.1057 3.3283,7.434 7.434,7.434 h 3.5788 v -4.7256 h -4.243 v -5.5538 h 11.004 v 14.902 c 0,0 -3.146,1.3795 -11.755,1.3795 z"
             id="path9"
             style="fill:url(#linearGradient568)" />
          <path
             fill="url(#linearGradient570)"
             d="m 128.82,52.785 2.0977,0.6342 1.7562,0.48784 1.5123,0.19514 1.6099,0.0488 h 1.7562 l 1.9514,-0.2927 1.7562,-0.53663 1.6099,-0.68299 1.2684,-0.97569 0.73176,-0.97569 0.34149,-1.2196 0.24393,-1.8538 -0.14636,-1.6587 -0.48784,-1.2684 -0.68298,-1.2684 -0.53663,-0.6342 -0.82934,-0.87812 -0.92691,-1.0245 -1.2196,-1.0733 -1.1708,-0.87812 -1.0732,-0.78055 -1.122,-1.122 -0.58541,-0.73177 -0.43906,-0.78055 0.0976,-0.73177 0.43906,-0.48785 0.43906,-0.43906 0.82933,-0.39027 0.82934,-0.0488 h 1.0245 l 0.68298,0.19514 0.68298,0.24392 0.73177,0.24392 1.0733,0.19514 0.87812,-0.14636 0.29271,-0.43906 v -1.5611 l -0.14636,-2.1465 -0.0976,-0.6342 -0.73177,-0.58541 -1.2196,-0.53663 -1.2196,-0.34149 -1.4148,-0.04878 -1.8538,-0.04878 -2.1953,0.29271 -1.2684,0.29271 -2.049,0.68298 -1.6587,0.92691 -0.97569,1.4635 -0.58541,1.0245 -0.29271,1.122 -0.0976,0.97569 0.0488,1.0733 0.3415,1.4635 0.58541,0.82933 0.73177,1.0733 0.53663,0.87812 0.97568,1.0733 0.68299,0.6342 0.78055,0.68298 1.4148,1.0733 1.0733,0.6342 0.97569,0.82934 0.48784,0.58541 0.43907,0.6342 0.34149,1.0245 -0.48785,1.0245 -1.122,0.73177 -2.049,0.14635 -1.4148,-0.39028 -1.4148,-0.63419 -1.4635,-0.68299 -0.87812,-0.34149 -0.58541,-0.0488 z"
             id="path10"
             style="fill:url(#linearGradient570)" />
          <path
             fill="url(#linearGradient572)"
             d="m 144.3,34.539 h 7.3177 l 4.0003,11.611 4.293,-12.001 6.342,0.09757 -8.9764,24.392 -0.87812,1.2684 -1.0732,0.87812 -0.9757,0.78055 -1.2684,0.68298 -7.025,-0.19514 -0.78055,-0.19514 -0.39028,-0.97568 0.0976,-3.8052 0.48785,-0.39027 0.78055,-0.29271 0.78055,0.19514 0.48785,0.39028 0.78055,0.09757 0.68298,-0.09757 0.78055,-0.39028 0.87813,-0.68298 0.48784,-0.87812 0.29271,-0.58542 0.2927,-1.1708 z"
             id="path11"
             style="fill:url(#linearGradient572)" />
        </g>
        <path
           fill="url(#linearGradient574)"
           d="m 186.54,29.577 0.6914,5.5798 -1.6934,0.56562 c -3.2272,-2.7639 -8.0672,-2.4699 -10.936,0.66416 -2.8684,3.1341 -2.7298,7.9771 0.31311,10.942 3.0429,2.9652 7.8918,2.9824 10.956,0.03878 l 1.6041,0.22913 0.005,5.5528 -1.3172,0.78055 c -5.9621,3.3059 -13.439,1.8614 -17.738,-3.427 -4.2989,-5.2884 -4.1811,-12.896 0.2796,-18.049 4.4607,-5.1529 11.978,-6.3655 17.835,-2.8768"
           id="path12"
           style="fill:url(#linearGradient574)" />
      </g>
      <g
         transform="translate(-157.55,-91.546)"
         id="g16">
        <g
           transform="matrix(1.1855,0,0,1.1336,699.7,175.73)"
           aria-label="u"
           id="g13">
          <path
             d="m -354.54,130.98 v -2.2852 q -1.1328,1.2305 -2.5976,1.9141 -1.4453,0.6836 -2.8906,0.6836 -1.6992,0 -3.1445,-0.83985 -1.4258,-0.85937 -2.168,-2.3047 -0.72265,-1.4648 -0.72265,-4.8438 v -10.293 h 3.5547 v 10.254 q 0,2.832 0.80079,3.9648 0.82031,1.1133 2.8516,1.1133 2.5391,0 4.3164,-2.4805 v -12.852 h 3.5547 v 17.969 z"
             id="path13" />
        </g>
        <path
           style="paint-order:markers stroke fill"
           fill="#e10024"
           d="m 274.67,286.93 a 1.6252,1.6252 0 0 0 -1.6252,1.6252 1.6252,1.6252 0 0 0 1.6252,1.6252 1.6252,1.6252 0 0 0 1.6252,-1.6252 1.6252,1.6252 0 0 0 -1.6252,-1.6252 z m -6.4245,4.5615 a 2.6224,2.6224 0 0 0 -2.6224,2.6224 2.6224,2.6224 0 0 0 2.6224,2.6224 2.6224,2.6224 0 0 0 2.6224,-2.6224 2.6224,2.6224 0 0 0 -2.6224,-2.6224 z m 6.4245,0 a 2.6224,2.6224 0 0 0 -2.6224,2.6224 2.6224,2.6224 0 0 0 2.6224,2.6224 2.6224,2.6224 0 0 0 2.6224,-2.6224 2.6224,2.6224 0 0 0 -2.6224,-2.6224 z m 6.425,0 a 2.6224,2.6224 0 0 0 -2.6224,2.6224 2.6224,2.6224 0 0 0 2.6224,2.6224 2.6224,2.6224 0 0 0 2.6224,-2.6224 2.6224,2.6224 0 0 0 -2.6224,-2.6224 z m -12.85,6.6997 v 2.2981 h 12.85 v -2.2981 z"
           id="path14" />
        <path
           d="m 293.02,304.04 v 4.534 c 0,0.64583 0.0397,1.12 0.11922,1.4218 0.0831,0.3019 0.18616,0.55802 0.309,0.7682 0.12645,0.20635 0.27984,0.39354 0.46048,0.56168 0.59614,0.54264 1.3872,0.81389 2.3735,0.81389 0.96826,0 1.7524,-0.27321 2.3522,-0.81968 0.18064,-0.16432 0.33217,-0.34954 0.45501,-0.55589 0.12646,-0.21018 0.23137,-0.47219 0.31447,-0.78555 0.0867,-0.31336 0.13016,-0.77767 0.13016,-1.3929 v -4.5455 h -1.0894 v 4.5455 c 0,0.63054 -0.0466,1.0758 -0.14055,1.3357 -0.0939,0.25986 -0.24787,0.48573 -0.46104,0.6768 -0.40465,0.35539 -0.92812,0.53276 -1.5712,0.53276 -0.45162,0 -0.84398,-0.088 -1.1764,-0.26378 -0.33239,-0.17961 -0.57955,-0.4161 -0.74213,-0.71035 -0.16258,-0.29425 -0.24392,-0.81826 -0.24392,-1.5711 v -4.5455 z m 40.715,0 v 2.8431 c -0.3902,-0.14904 -0.75156,-0.22328 -1.084,-0.22328 -0.71537,0 -1.304,0.25022 -1.7665,0.75083 -0.45884,0.50061 -0.68853,1.1389 -0.68853,1.9147 0,0.82926 0.2191,1.49 0.65626,1.983 0.44078,0.49297 1.0294,0.73985 1.7665,0.73985 h 2.1083 V 304.04 Z m 10.523,0 v 2.8431 c -0.39019,-0.14904 -0.75101,-0.22328 -1.0834,-0.22328 -0.71537,0 -1.3046,0.25022 -1.767,0.75083 -0.45885,0.50061 -0.68799,1.1389 -0.68799,1.9147 0,0.82926 0.21855,1.49 0.65572,1.983 0.44078,0.49297 1.0294,0.73985 1.7665,0.73985 h 2.1083 V 304.04 Z m -37.17,0.51599 c -0.15174,0 -0.28581,0.063 -0.40142,0.18915 -0.11562,0.12229 -0.17337,0.26351 -0.17337,0.42401 0,0.16432 0.0578,0.30947 0.17337,0.43558 0.11561,0.12229 0.24968,0.18395 0.40142,0.18395 0.16257,0 0.30167,-0.0617 0.41727,-0.18395 0.11562,-0.12229 0.17337,-0.26744 0.17337,-0.43558 0,-0.17196 -0.0578,-0.31711 -0.17337,-0.43558 -0.1156,-0.11846 -0.2547,-0.17758 -0.41727,-0.17758 z m 21.343,0 c -0.15175,0 -0.28527,0.063 -0.40087,0.18915 -0.11562,0.12229 -0.17338,0.26351 -0.17338,0.42401 0,0.16432 0.0578,0.30947 0.17338,0.43558 0.1156,0.12229 0.24912,0.18395 0.40087,0.18395 0.16258,0 0.30221,-0.0617 0.41781,-0.18395 0.11562,-0.12229 0.17338,-0.26744 0.17338,-0.43558 0,-0.17196 -0.0578,-0.31711 -0.17338,-0.43558 -0.1156,-0.11846 -0.25523,-0.17758 -0.41781,-0.17758 z m -24.973,2.1154 c -0.56001,0 -1.0604,0.2575 -1.5012,0.77339 v -0.67043 h -1.0079 v 5.2738 h 1.0079 v -3.7663 c 0.32517,-0.49296 0.72069,-0.73927 1.1868,-0.73927 0.36491,0 0.62506,0.11628 0.78042,0.34939 0.15535,0.22929 0.23297,0.61347 0.23297,1.1523 v 3.0039 h 0.9866 v -3.0155 c 0,-0.642 -0.0707,-1.1102 -0.21164,-1.4045 -0.1373,-0.29808 -0.3397,-0.53122 -0.60706,-0.69936 -0.26735,-0.17196 -0.55611,-0.25741 -0.86682,-0.25741 z m 12.381,0 c -0.68645,0 -1.2446,0.25219 -1.6746,0.75662 -0.42995,0.50061 -0.6448,1.1521 -0.6448,1.9546 0,0.535 0.10121,1.0066 0.30353,1.4155 0.20594,0.40508 0.47853,0.72817 0.81815,0.96892 0.33962,0.24075 0.78416,0.36096 1.3333,0.36096 0.40103,0 0.74994,-0.0454 1.0462,-0.1371 0.29987,-0.0917 0.60161,-0.24471 0.90511,-0.45871 v -1.0204 c -0.54917,0.428 -1.149,0.64209 -1.7993,0.64209 -0.46606,0 -0.84729,-0.14908 -1.1436,-0.44715 -0.29265,-0.29808 -0.4516,-0.69934 -0.47689,-1.2038 h 3.5061 v -0.13189 c 0,-0.82161 -0.19683,-1.477 -0.59064,-1.9662 -0.39381,-0.4892 -0.92154,-0.73348 -1.5827,-0.73348 z m 5.8359,0 c -0.47691,0 -0.95377,0.40657 -1.4307,1.2205 l -0.0542,0.092 v -1.2096 h -0.99151 v 5.2738 H 320.19 v -2.7575 c 0,-0.43946 0.11551,-0.81971 0.34674,-1.1407 0.23484,-0.321 0.5117,-0.48127 0.82964,-0.48127 0.29264,0 0.61055,0.17205 0.95378,0.51598 l 0.52009,-0.91743 c -0.40464,-0.39743 -0.79329,-0.59581 -1.1654,-0.59581 z m 3.3054,0 c -0.46968,0 -0.85463,0.12806 -1.1545,0.38409 -0.29626,0.25604 -0.44463,0.5864 -0.44463,0.99148 0,0.31336 0.098,0.60365 0.29314,0.87116 0.19872,0.26368 0.61596,0.58284 1.2518,0.95734 0.31794,0.19108 0.52351,0.33819 0.61745,0.44137 0.0975,0.0994 0.14656,0.22545 0.14656,0.37831 0,0.14904 -0.0739,0.27709 -0.22204,0.38409 -0.14813,0.107 -0.32564,0.16024 -0.53158,0.16024 -0.19871,0 -0.44402,-0.063 -0.73666,-0.18916 -0.28904,-0.12993 -0.57277,-0.29805 -0.85096,-0.50441 v 1.1239 c 0.35045,0.1796 0.64106,0.30374 0.87229,0.37253 0.23123,0.065 0.4951,0.0972 0.79135,0.0972 0.5022,0 0.91258,-0.1373 1.2305,-0.41244 0.32155,-0.27897 0.48236,-0.63428 0.48236,-1.0661 0,-0.60379 -0.41595,-1.1541 -1.2469,-1.6509 l -0.3522,-0.21229 c -0.26735,-0.15668 -0.4549,-0.29063 -0.5633,-0.40145 -0.10477,-0.11082 -0.1575,-0.2271 -0.1575,-0.34939 0,-0.1414 0.0578,-0.25433 0.17337,-0.3384 0.11923,-0.0879 0.27501,-0.13189 0.46649,-0.13189 0.37214,0 0.85085,0.18718 1.4362,0.56169 v -1.0314 c -0.51304,-0.29042 -1.0135,-0.43557 -1.5012,-0.43557 z m 12.489,0 c -0.71898,0 -1.2698,0.23845 -1.6527,0.71613 v 1.1407 c 0.50942,-0.58851 1.0334,-0.88273 1.5718,-0.88273 0.59974,0 0.89964,0.3172 0.89964,0.95156 v 0.28113 l -1.2628,0.45814 c -0.41549,0.15286 -0.73711,0.36163 -0.96472,0.62531 -0.224,0.25986 -0.33579,0.55605 -0.33579,0.88852 0,0.36685 0.1155,0.67228 0.34673,0.91685 0.23122,0.24075 0.51998,0.36096 0.86683,0.36096 0.47329,0 0.91969,-0.17205 1.3388,-0.51599 0.0759,0.35158 0.32489,0.52756 0.7476,0.52756 0.14813,0 0.28907,-0.0283 0.42275,-0.0856 0.1373,-0.0535 0.31797,-0.1572 0.54197,-0.31006 v -0.6363 c -0.2529,0.18725 -0.43861,0.28113 -0.55783,0.28113 -0.11561,0 -0.17337,-0.09 -0.17337,-0.26956 v -2.241 c 0,-0.44329 -0.0129,-0.7434 -0.0383,-0.90008 -0.0217,-0.1605 -0.0757,-0.31939 -0.16242,-0.47607 -0.0867,-0.1605 -0.1842,-0.28798 -0.2926,-0.38352 -0.32516,-0.29807 -0.75726,-0.44714 -1.2956,-0.44714 z m -30.868,0.10296 v 5.2738 h 0.98605 v -5.2738 z m 1.7982,0 2.2548,5.3652 h 0.33031 l 2.2002,-5.3652 h -1.0675 l -1.295,3.2446 -1.3443,-3.2446 z m 19.545,0 v 5.2738 h 0.98605 v -5.2738 z m 4.8602,0.79075 c 0.31433,0 0.62481,0.0827 0.93192,0.247 v 3.3418 h -0.76402 c -0.44078,0 -0.74624,-0.0308 -0.91605,-0.092 -0.16981,-0.0611 -0.33062,-0.17939 -0.48236,-0.35517 -0.2529,-0.29425 -0.379,-0.71261 -0.379,-1.2553 0,-0.57704 0.14466,-1.036 0.43369,-1.3762 0.29265,-0.34011 0.68447,-0.5102 1.1758,-0.5102 z m 10.523,0 c 0.31433,0 0.62481,0.0827 0.93191,0.247 v 3.3418 h -0.76401 c -0.44078,0 -0.74569,-0.0308 -0.9155,-0.092 -0.16981,-0.0611 -0.33062,-0.17939 -0.48236,-0.35517 -0.2529,-0.29425 -0.37954,-0.71261 -0.37954,-1.2553 0,-0.57704 0.14465,-1.036 0.43368,-1.3762 0.29265,-0.34011 0.68446,-0.5102 1.1758,-0.5102 z m -27.488,0.0116 c 0.35407,0 0.63595,0.11293 0.8455,0.3384 0.20954,0.22546 0.3269,0.54659 0.3522,0.96313 h -2.5092 c 0.0686,-0.41654 0.21515,-0.73767 0.43915,-0.96313 0.22761,-0.22547 0.51823,-0.3384 0.8723,-0.3384 z m 22.449,1.8632 v 1.5647 c -0.26736,0.27133 -0.55852,0.40724 -0.87285,0.40724 -0.20954,0 -0.38095,-0.0689 -0.51463,-0.20651 -0.13006,-0.13757 -0.19524,-0.31552 -0.19524,-0.53334 0,-0.214 0.0689,-0.39137 0.20618,-0.53276 0.14091,-0.14521 0.37934,-0.2884 0.71534,-0.42979 z m 0.46595,6.9577 c -1.1525,0 -2.1224,0.39733 -2.91,1.1922 -0.784,0.79486 -1.1764,1.7753 -1.1764,2.9409 0,0.73371 0.17195,1.4155 0.51518,2.046 0.34322,0.63054 0.80895,1.1257 1.3978,1.4849 0.58891,0.35921 1.3061,0.53854 2.1515,0.53854 1.0405,0 1.9582,-0.22921 2.7531,-0.68779 v -1.261 c -0.87434,0.59615 -1.7703,0.8943 -2.688,0.8943 -0.87794,0 -1.5988,-0.28244 -2.1624,-0.84802 -0.56362,-0.56557 -0.84495,-1.288 -0.84495,-2.1669 0,-0.87129 0.28505,-1.5956 0.85589,-2.1727 0.57446,-0.58086 1.2953,-0.87116 2.1624,-0.87116 0.84542,0 1.7109,0.26732 2.5961,0.80232 v -1.2321 c -0.97187,-0.43947 -1.8554,-0.65944 -2.6502,-0.65944 z m -45.543,0.10296 v 8.0082 h 1.0839 v -3.4852 h 0.28165 c 0.35407,0 0.60495,0.044 0.75308,0.13189 0.15174,0.0841 0.31997,0.22333 0.50423,0.41823 0.18787,0.19489 0.39399,0.4569 0.61799,0.78554 l 0.36259,0.62474 0.33634,0.58482 0.2111,0.31526 c 0.0325,0.0458 0.0542,0.0781 0.0651,0.0972 l 0.33087,0.52755 h 1.2896 l -0.40087,-0.57325 c -0.15897,-0.22928 -0.37066,-0.57143 -0.6344,-1.0262 -0.4191,-0.72226 -0.74389,-1.2286 -0.97511,-1.519 -0.23123,-0.29043 -0.46781,-0.51964 -0.70987,-0.68778 0.41187,-0.16815 0.72792,-0.4223 0.94831,-0.76241 0.22039,-0.34011 0.33033,-0.74334 0.33033,-1.2096 0,-0.68404 -0.22544,-1.2265 -0.67706,-1.6278 -0.448,-0.40126 -1.0552,-0.60218 -1.8212,-0.60218 z m 19.983,0 v 7.7733 c 0,0.65729 -0.0491,1.0868 -0.14657,1.2894 -0.094,0.20254 -0.22374,0.34434 -0.38994,0.42459 -0.16257,0.0803 -0.39915,0.12032 -0.70987,0.12032 h -0.27672 l 0.20071,1.0661 c 0.1662,0.0229 0.28356,0.0341 0.35219,0.0341 0.44802,0 0.8311,-0.10705 1.149,-0.32105 0.31793,-0.21018 0.54708,-0.49262 0.68799,-0.84802 0.14451,-0.35157 0.21711,-0.89602 0.21711,-1.6336 v -7.9052 z m 37.946,0 v 8.0082 h 0.98605 v -8.0082 z m -56.846,0.9747 h 0.32486 c 0.5311,0 0.91047,0.042 1.1381,0.12611 0.23123,0.0841 0.41006,0.22922 0.53651,0.43558 0.12645,0.20253 0.18977,0.42978 0.18977,0.682 0,0.25603 -0.0577,0.48583 -0.17337,0.68836 -0.112,0.19872 -0.27095,0.34721 -0.47689,0.44657 -0.20232,0.0994 -0.57798,0.14924 -1.1272,0.14924 h -0.41181 z m 7.5805,1.6567 c -0.68646,0 -1.2446,0.2522 -1.6746,0.75663 -0.42994,0.50061 -0.64479,1.1521 -0.64479,1.9546 0,0.535 0.1012,1.0072 0.30353,1.4161 0.20593,0.40507 0.47853,0.72759 0.81815,0.96834 0.33962,0.24075 0.78416,0.36154 1.3333,0.36154 0.40103,0 0.74994,-0.046 1.0462,-0.13768 0.29988,-0.0917 0.60108,-0.24471 0.90457,-0.45871 v -1.0204 c -0.54917,0.428 -1.1484,0.64209 -1.7987,0.64209 -0.46606,0 -0.84729,-0.14908 -1.1436,-0.44715 -0.29265,-0.29808 -0.4516,-0.69934 -0.47689,-1.2038 h 3.5061 v -0.13189 c 0,-0.82161 -0.19683,-1.477 -0.59064,-1.9662 -0.39381,-0.4892 -0.92155,-0.73349 -1.5827,-0.73349 z m 20.741,0 c -0.71898,0 -1.2698,0.23904 -1.6527,0.71672 v 1.1407 c 0.50942,-0.5885 1.0334,-0.8833 1.5718,-0.8833 0.59975,0 0.89909,0.3172 0.89909,0.95156 v 0.28113 l -1.2622,0.45872 c -0.41548,0.15286 -0.73711,0.36105 -0.96472,0.62473 -0.224,0.25986 -0.33634,0.55605 -0.33634,0.88852 0,0.36686 0.11605,0.67228 0.34728,0.91685 0.23122,0.24075 0.51999,0.36154 0.86683,0.36154 0.47329,0 0.91969,-0.17206 1.3388,-0.51599 0.0758,0.35158 0.32489,0.52698 0.7476,0.52698 0.14814,0 0.28908,-0.0283 0.42275,-0.0856 0.1373,-0.0535 0.31797,-0.15662 0.54197,-0.30948 v -0.6363 c -0.2529,0.18725 -0.43914,0.28055 -0.55837,0.28055 -0.11562,0 -0.17337,-0.0894 -0.17337,-0.26898 v -2.2415 c 0,-0.44329 -0.0124,-0.7434 -0.0377,-0.90008 -0.0217,-0.1605 -0.0757,-0.31881 -0.16243,-0.47549 -0.0867,-0.1605 -0.18419,-0.28856 -0.29258,-0.3841 -0.32516,-0.29807 -0.75727,-0.44715 -1.2956,-0.44715 z m 5.9496,0 c -0.56,0 -1.0604,0.25809 -1.5012,0.77398 v -0.67101 h -1.0079 v 5.2738 h 1.0079 v -3.7663 c 0.32516,-0.49297 0.72069,-0.73927 1.1868,-0.73927 0.36491,0 0.62506,0.11686 0.78042,0.34997 0.15535,0.22929 0.23352,0.61289 0.23352,1.1517 v 3.0039 h 0.98605 v -3.0149 c 0,-0.642 -0.0701,-1.1102 -0.2111,-1.4045 -0.13729,-0.29807 -0.3397,-0.53121 -0.60705,-0.69935 -0.26736,-0.17197 -0.55667,-0.258 -0.86738,-0.258 z m 15.23,0 c -0.71898,0 -1.2698,0.23904 -1.6527,0.71672 v 1.1407 c 0.50941,-0.5885 1.0334,-0.8833 1.5718,-0.8833 0.59975,0 0.89965,0.3172 0.89965,0.95156 v 0.28113 l -1.2628,0.45872 c -0.41549,0.15286 -0.73711,0.36105 -0.96472,0.62473 -0.224,0.25986 -0.33634,0.55605 -0.33634,0.88852 0,0.36686 0.11604,0.67228 0.34728,0.91685 0.23122,0.24075 0.51998,0.36154 0.86682,0.36154 0.47329,0 0.9197,-0.17206 1.3388,-0.51599 0.0758,0.35158 0.32489,0.52698 0.7476,0.52698 0.14813,0 0.28907,-0.0283 0.42275,-0.0856 0.13729,-0.0535 0.31797,-0.15662 0.54197,-0.30948 v -0.6363 c -0.2529,0.18725 -0.4386,0.28055 -0.55783,0.28055 -0.11561,0 -0.17392,-0.0894 -0.17392,-0.26898 v -2.2415 c 0,-0.44329 -0.0124,-0.7434 -0.0377,-0.90008 -0.0216,-0.1605 -0.0757,-0.31881 -0.16242,-0.47549 -0.0867,-0.1605 -0.1842,-0.28856 -0.2926,-0.3841 -0.32516,-0.29807 -0.75726,-0.44715 -1.2956,-0.44715 z m 5.7046,0 c -0.4769,0 -0.95377,0.40716 -1.4307,1.2211 l -0.0546,0.0914 v -1.2096 h -0.99153 v 5.2738 h 0.99153 v -2.7575 c 0,-0.43946 0.11604,-0.81914 0.34728,-1.1401 0.23483,-0.321 0.51114,-0.48185 0.82908,-0.48185 0.29265,0 0.61056,0.17205 0.95379,0.51598 l 0.52009,-0.91743 c -0.40465,-0.39743 -0.79275,-0.59582 -1.1649,-0.59582 z m 11.086,0 c -0.46968,0 -0.85407,0.12807 -1.154,0.3841 -0.29626,0.25604 -0.44461,0.5864 -0.44461,0.99148 0,0.31336 0.0975,0.60365 0.29258,0.87116 0.19871,0.26368 0.61596,0.58284 1.2518,0.95734 0.31794,0.19107 0.52405,0.33819 0.61799,0.44137 0.0976,0.0994 0.14602,0.22545 0.14602,0.37831 0,0.14904 -0.0739,0.27709 -0.22204,0.3841 -0.14813,0.10699 -0.3251,0.16081 -0.53103,0.16081 -0.19871,0 -0.44457,-0.063 -0.73721,-0.18916 -0.28904,-0.12993 -0.57223,-0.29805 -0.85042,-0.50441 v 1.1234 c 0.35045,0.1796 0.64106,0.30374 0.87229,0.37253 0.23123,0.065 0.4951,0.0972 0.79136,0.0972 0.50219,0 0.91202,-0.1373 1.23,-0.41244 0.32155,-0.27897 0.48236,-0.63428 0.48236,-1.0661 0,-0.60379 -0.41539,-1.1541 -1.2464,-1.6509 l -0.3522,-0.21229 c -0.26736,-0.15668 -0.45546,-0.29005 -0.56384,-0.40087 -0.10479,-0.11082 -0.15696,-0.22768 -0.15696,-0.34997 0,-0.14139 0.0578,-0.25433 0.17336,-0.3384 0.11922,-0.0879 0.27447,-0.13131 0.46595,-0.13131 0.37213,0 0.85085,0.18718 1.4362,0.56168 v -1.032 c -0.51304,-0.29044 -1.0135,-0.43559 -1.5012,-0.43559 z m -4.8969,0.0914 c -0.76594,0 -1.4036,0.25808 -1.913,0.77398 -0.50581,0.51207 -0.75854,1.1543 -0.75854,1.9263 0,0.76429 0.25142,1.4026 0.75362,1.9147 0.5022,0.50825 1.1269,0.76183 1.8748,0.76183 0.77317,0 1.4146,-0.25023 1.924,-0.75084 0.50943,-0.50443 0.76401,-1.1369 0.76401,-1.8973 0,-0.7834 -0.25087,-1.4329 -0.75307,-1.9488 -0.5022,-0.51971 -1.133,-0.77976 -1.8917,-0.77976 z m -51.393,0.0116 1.9294,4.1446 -1.6965,3.8172 h 1.1004 l 3.528,-7.9619 h -1.1107 l -1.2846,2.975 -1.3437,-2.975 z m 11.346,0 v 3.0213 c 0,0.66111 0.067,1.1347 0.20071,1.4213 0.13729,0.28279 0.33784,0.50807 0.60158,0.67622 0.26736,0.16432 0.55798,0.24642 0.8723,0.24642 0.26736,0 0.53493,-0.0664 0.80229,-0.20015 0.27097,-0.13375 0.51125,-0.32093 0.72081,-0.56168 v 0.67043 h 0.98605 v -5.2738 h -0.98605 v 3.7721 c -0.32878,0.48532 -0.72802,0.7277 -1.1977,0.7277 -0.37575,0 -0.63961,-0.10901 -0.79135,-0.32683 -0.14813,-0.22165 -0.22205,-0.60917 -0.22205,-1.1633 v -3.0097 z m -13.767,0.8029 c 0.35406,0 0.63594,0.11236 0.84549,0.33782 0.20955,0.22547 0.32691,0.5466 0.3522,0.96314 h -2.5091 c 0.0686,-0.41654 0.21515,-0.73767 0.43915,-0.96314 0.22762,-0.22546 0.51823,-0.33782 0.8723,-0.33782 z m 53.761,0.12611 c 0.48774,0 0.89256,0.1642 1.2141,0.49284 0.32154,0.32865 0.48235,0.74308 0.48235,1.2437 0,0.50443 -0.15524,0.91886 -0.46595,1.2437 -0.3071,0.321 -0.70262,0.48186 -1.1868,0.48186 -0.48775,0 -0.88699,-0.15889 -1.1977,-0.47607 -0.31071,-0.32101 -0.4665,-0.73347 -0.4665,-1.2379 0,-0.50826 0.15207,-0.92661 0.45556,-1.2553 0.30348,-0.32864 0.69159,-0.49284 1.1649,-0.49284 z m -32.201,1.7365 v 1.5647 c -0.26735,0.27133 -0.55797,0.40724 -0.8723,0.40724 -0.20954,0 -0.38094,-0.0689 -0.51462,-0.20651 -0.13007,-0.13757 -0.19525,-0.31494 -0.19525,-0.53276 0,-0.214 0.0689,-0.39194 0.20618,-0.53334 0.14091,-0.14521 0.37934,-0.2884 0.71535,-0.42979 z m 21.18,0 v 1.5647 c -0.26736,0.27133 -0.55852,0.40724 -0.87285,0.40724 -0.20955,0 -0.38094,-0.0689 -0.51462,-0.20651 -0.13007,-0.13757 -0.19525,-0.31494 -0.19525,-0.53276 0,-0.214 0.0689,-0.39194 0.20618,-0.53334 0.1409,-0.14521 0.37934,-0.2884 0.71534,-0.42979 z"
           id="path15" />
        <path
           style="paint-order:markers stroke fill"
           fill="#e10024"
           opacity="0.56636"
           d="m 274.84,286.84 a 1.6289,1.6289 0 0 0 -1.6289,1.6289 1.6289,1.6289 0 0 0 1.6289,1.6289 1.6289,1.6289 0 0 0 1.6289,-1.6289 1.6289,1.6289 0 0 0 -1.6289,-1.6289 z m -6.4394,4.5721 a 2.6285,2.6285 0 0 0 -2.6285,2.6285 2.6285,2.6285 0 0 0 2.6285,2.6285 2.6285,2.6285 0 0 0 2.6285,-2.6285 2.6285,2.6285 0 0 0 -2.6285,-2.6285 z m 6.4394,0 a 2.6285,2.6285 0 0 0 -2.6285,2.6285 2.6285,2.6285 0 0 0 2.6285,2.6285 2.6285,2.6285 0 0 0 2.6285,-2.6285 2.6285,2.6285 0 0 0 -2.6285,-2.6285 z m 6.44,0 a 2.6285,2.6285 0 0 0 -2.6285,2.6285 2.6285,2.6285 0 0 0 2.6285,2.6285 2.6285,2.6285 0 0 0 2.6285,-2.6285 2.6285,2.6285 0 0 0 -2.6285,-2.6285 z m -12.879,6.7153 v 2.3034 h 12.879 v -2.3034 z"
           id="path16" />
      </g>
    </g>
    <text
       y="2869.3906"
       font-family="Ubuntu"
       stroke-linecap="round"
       text-align="center"
       fill="#2a7fff"
       stroke-width="2.9386"
       text-anchor="middle"
       x="1374.667"
       stroke-linejoin="round"
       xml:space="preserve"
       font-size="119.92px"
       id="text18"
       style="stroke:none">     <tspan
   font-weight="bold"
   y="2869.3906"
   font-family="Ubuntu"
   fill="#2a7fff"
   stroke-width="2.9386"
   x="1374.667"
   id="tspan18">MECATRÓNICA</tspan>   </text>
    <rect
       height="108.71001"
       y="2475.5"
       fill="none"
       width="808.27002"
       stroke="#000000"
       x="660.79004"
       id="rect18"
       style="stroke-width:5.2917;stroke-linejoin:round" />
    <text
       font-weight="bold"
       y="2546.4744"
       font-family="Ubuntu"
       text-align="center"
       fill="#000000"
       text-anchor="middle"
       x="1058.8345"
       xml:space="preserve"
       font-size="50.043px"
       id="text19"
       style="stroke:none;stroke-width:5.2917;stroke-linejoin:round">      <tspan
   y="2546.4744"
   fill="#000000"
   stroke-width="5.2917"
   x="1058.8345"
   id="tspan19">Ejercicios de Dibujo técnico 2D</tspan>    </text>
    <rect
       height="108.71001"
       y="2598.9001"
       fill="#0000ff"
       width="2000.3999"
       stroke="#000000"
       x="49.450996"
       id="rect19"
       style="stroke-width:5.2917;stroke-linejoin:round" />
    <text
       font-weight="bold"
       y="2677.3667"
       font-family="Ubuntu"
       text-align="center"
       fill="#ffffff"
       text-anchor="middle"
       x="1047.5083"
       xml:space="preserve"
       font-size="69.804px"
       id="text20"
       style="stroke:none;stroke-width:5.2917;stroke-linejoin:round">      <tspan
   y="2677.3667"
   fill="#ffffff"
   stroke-width="5.2917"
   x="1047.5083"
   id="tspan20">Libro: AUTOCAD MECHANICAL</tspan>    </text>
    <rect
       height="108.71001"
       y="2475.5"
       fill="#aaccff"
       width="228.46001"
       stroke="#000000"
       x="416.58002"
       id="rect20"
       style="stroke-width:5.2917;stroke-linejoin:round" />
    <text
       font-weight="bold"
       y="2564.5679"
       font-family="Ubuntu"
       text-align="center"
       fill="#000000"
       text-anchor="middle"
       x="561.77722"
       xml:space="preserve"
       font-size="99.031px"
       id="text21"
       style="stroke:none;stroke-width:5.2917;stroke-linejoin:round">      <tspan
   y="2564.5679"
   fill="#000000"
   stroke-width="5.2917"
   x="561.77722"
   id="tspan21">2D</tspan>    </text>
    <rect
       height="108.71001"
       y="2475.5"
       fill="none"
       width="414.5"
       stroke="#000000"
       x="1483.8"
       id="rect21"
       style="stroke-width:5.2917;stroke-linejoin:round" />
    <text
       font-weight="bold"
       y="2545.4958"
       font-family="Ubuntu"
       text-align="center"
       fill="#000000"
       text-anchor="middle"
       x="1688.855"
       xml:space="preserve"
       font-size="50.043px"
       id="text22"
       style="stroke:none;stroke-width:5.2917;stroke-linejoin:round">      <tspan
   y="2545.4958"
   fill="#000000"
   stroke-width="5.2917"
   x="1688.855"
   id="tspan22">Unidades: mm</tspan>    </text>
    <rect
       height="108.71001"
       y="2475.2"
       fill="#aaccff"
       width="351.20999"
       stroke="#000000"
       x="50.158001"
       id="rect22"
       style="stroke-width:5.2917;stroke-linejoin:round" />
    <text
       font-weight="bold"
       y="2564.2705"
       font-family="Ubuntu"
       text-align="center"
       fill="#000000"
       text-anchor="middle"
       x="182.91481"
       xml:space="preserve"
       font-size="99.031px"
       id="text23"
       style="stroke:none;stroke-width:5.2917;stroke-linejoin:round">      <tspan
   y="2564.2705"
   fill="#000000"
   stroke-width="5.2917"
   x="182.91481"
   id="tspan23">EX-</tspan>    </text>
    <text
       font-weight="bold"
       freecad:editable="Numero de ejercicio"
       y="2563.9736"
       font-family="Ubuntu"
       text-align="center"
       fill="#000000"
       text-anchor="middle"
       x="311.14676"
       font-size="99.031px"
       id="text24"
       style="stroke:none;stroke-width:5.2917;stroke-linejoin:round"><tspan
         y="2563.9736"
         fill="#000000"
         stroke-width="5.2917"
         x="311.14676"
         xml:space="preserve"
         id="tspan24">007</tspan></text>
    <g
       stroke-linecap="square"
       fill="none"
       stroke-width="1"
       fill-rule="evenodd"
       stroke="black"
       stroke-linejoin="bevel"
       id="DrawingContent">
      <g
         font-weight="400"
         font-style="normal"
         transform="matrix(1,0,0,1,1053.76,1221.46)"
         font-family="Sans Serif"
         fill="#f1f3f5"
         fill-opacity="0"
         stroke="none"
         font-size="31.75"
         id="g25">
        <path
           vector-effect="non-scaling-stroke"
           fill-rule="evenodd"
           d="M-650,426.777 L-650,-73.2233 L-296.447,-426.777 L296.447,-426.777 L650,-73.2233 L650,426.777 L-650,426.777"
           id="path24" />
      </g>
      <g
         font-weight="400"
         font-style="normal"
         transform="matrix(1,0,0,1,1053.76,1221.46)"
         font-family="Sans Serif"
         stroke-linecap="round"
         fill="none"
         stroke-width="7"
         stroke-opacity="1"
         stroke="#000000"
         stroke-linejoin="bevel"
         font-size="31.75"
         id="g26">
        <path
           vector-effect="none"
           fill-rule="evenodd"
           d="M-650,426.777 L-650,-73.2233"
           id="path25" />
      </g>
      <g
         font-weight="400"
         font-style="normal"
         transform="matrix(1,0,0,1,1053.76,1221.46)"
         font-family="Sans Serif"
         stroke-linecap="round"
         fill="none"
         stroke-width="7"
         stroke-opacity="1"
         stroke="#000000"
         stroke-linejoin="bevel"
         font-size="31.75"
         id="g27">
        <path
           vector-effect="none"
           fill-rule="evenodd"
           d="M-650,-73.2233 L-296.447,-426.777"
           id="path26" />
      </g>
      <g
         font-weight="400"
         font-style="normal"
         transform="matrix(1,0,0,1,1053.76,1221.46)"
         font-family="Sans Serif"
         stroke-linecap="round"
         fill="none"
         stroke-width="7"
         stroke-opacity="1"
         stroke="#000000"
         stroke-linejoin="bevel"
         font-size="31.75"
         id="g28">
        <path
           vector-effect="none"
           fill-rule="evenodd"
           d="M-296.447,-426.777 L296.447,-426.777"
           id="path27" />
      </g>
      <g
         font-weight="400"
         font-style="normal"
         transform="matrix(1,0,0,1,1053.76,1221.46)"
         font-family="Sans Serif"
         stroke-linecap="round"
         fill="none"
         stroke-width="7"
         stroke-opacity="1"
         stroke="#000000"
         stroke-linejoin="bevel"
         font-size="31.75"
         id="g29">
        <path
           vector-effect="none"
           fill-rule="evenodd"
           d="M296.447,-426.777 L650,-73.2233"
           id="path28" />
      </g>
      <g
         font-weight="400"
         font-style="normal"
         transform="matrix(1,0,0,1,1053.76,1221.46)"
         font-family="Sans Serif"
         stroke-linecap="round"
         fill="none"
         stroke-width="7"
         stroke-opacity="1"
         stroke="#000000"
         stroke-linejoin="bevel"
         font-size="31.75"
         id="g30">
        <path
           vector-effect="none"
           fill-rule="evenodd"
           d="M650,-73.2233 L650,426.777"
           id="path29" />
      </g>
      <g
         font-weight="400"
         font-style="normal"
         transform="matrix(1,0,0,1,1053.76,1221.46)"
         font-family="Sans Serif"
         stroke-linecap="round"
         fill="none"
         stroke-width="7"
         stroke-opacity="1"
         stroke="#000000"
         stroke-linejoin="bevel"
         font-size="31.75"
         id="g31">
        <path
           vector-effect="none"
           fill-rule="evenodd"
           d="M650,426.777 L-650,426.777"
           id="path30" />
      </g>
      <g
         font-weight="400"
         font-style="normal"
         transform="matrix(1,0,0,1,1022.23,1663.58)"
         font-family="Sans Serif"
         stroke-linecap="square"
         fill="none"
         stroke-width="1"
         stroke-opacity="1"
         stroke="#000000"
         stroke-linejoin="bevel"
         font-size="31.75"
         id="g32">
        <text
           font-weight="400"
           font-style="normal"
           y="93"
           font-family="osifont"
           fill="#000000"
           fill-opacity="1"
           stroke="none"
           x="4"
           xml:space="preserve"
           font-size="67"
           id="text31">13</text>
      </g>
      <g
         font-weight="400"
         font-style="normal"
         transform="matrix(1,0,0,1,1053.76,1221.46)"
         font-family="Sans Serif"
         stroke-linecap="round"
         fill="none"
         stroke-width="3.5"
         stroke-opacity="1"
         stroke="#000000"
         stroke-linejoin="bevel"
         font-size="31.75"
         id="g33">
        <path
           vector-effect="none"
           fill-rule="evenodd"
           d="M650,552.375 L-650,552.375 M-650,447.777 L-650,580.375 M650,447.777 L650,580.375"
           id="path32" />
      </g>
      <g
         font-weight="400"
         font-style="normal"
         transform="matrix(1,0,0,1,403.765,1773.83)"
         font-family="Sans Serif"
         stroke-linecap="round"
         fill="#000000"
         stroke-width="3.5"
         stroke-opacity="1"
         fill-opacity="1"
         stroke="#000000"
         stroke-linejoin="bevel"
         font-size="31.75"
         id="g34">
        <path
           vector-effect="none"
           fill-rule="evenodd"
           d="M0,0 L35,5.83333 L35,-5.83333 L0,0"
           id="path33" />
      </g>
      <g
         font-weight="400"
         font-style="normal"
         transform="matrix(1,0,0,1,1703.76,1773.83)"
         font-family="Sans Serif"
         stroke-linecap="round"
         fill="#000000"
         stroke-width="3.5"
         stroke-opacity="1"
         fill-opacity="1"
         stroke="#000000"
         stroke-linejoin="bevel"
         font-size="31.75"
         id="g35">
        <path
           vector-effect="none"
           fill-rule="evenodd"
           d="M0,0 L-35,-5.83333 L-35,5.83333 L0,0"
           id="path34" />
      </g>
      <g
         font-weight="400"
         font-style="normal"
         transform="matrix(0,-1,1,0,194.445,1418.88)"
         font-family="Sans Serif"
         stroke-linecap="square"
         fill="none"
         stroke-width="1"
         stroke-opacity="1"
         stroke="#000000"
         stroke-linejoin="bevel"
         font-size="31.75"
         id="g36">
        <text
           font-weight="400"
           font-style="normal"
           y="93"
           font-family="osifont"
           fill="#000000"
           fill-opacity="1"
           stroke="none"
           x="4"
           xml:space="preserve"
           font-size="67"
           id="text35">5</text>
      </g>
      <g
         font-weight="400"
         font-style="normal"
         transform="matrix(1,0,0,1,1053.76,1221.46)"
         font-family="Sans Serif"
         stroke-linecap="round"
         fill="none"
         stroke-width="3.5"
         stroke-opacity="1"
         stroke="#000000"
         stroke-linejoin="bevel"
         font-size="31.75"
         id="g37">
        <path
           vector-effect="none"
           fill-rule="evenodd"
           d="M-749.07,426.777 L-749.07,-73.2233 M-671,-73.2233 L-777.07,-73.2233 M-671,426.777 L-777.07,426.777"
           id="path36" />
      </g>
      <g
         font-weight="400"
         font-style="normal"
         transform="matrix(1,0,0,1,304.695,1148.23)"
         font-family="Sans Serif"
         stroke-linecap="round"
         fill="#000000"
         stroke-width="3.5"
         stroke-opacity="1"
         fill-opacity="1"
         stroke="#000000"
         stroke-linejoin="bevel"
         font-size="31.75"
         id="g38">
        <path
           vector-effect="none"
           fill-rule="evenodd"
           d="M0,0 L-5.83333,35 L5.83333,35 L0,0"
           id="path37" />
      </g>
      <g
         font-weight="400"
         font-style="normal"
         transform="matrix(1,0,0,1,304.695,1648.23)"
         font-family="Sans Serif"
         stroke-linecap="round"
         fill="#000000"
         stroke-width="3.5"
         stroke-opacity="1"
         fill-opacity="1"
         stroke="#000000"
         stroke-linejoin="bevel"
         font-size="31.75"
         id="g39">
        <path
           vector-effect="none"
           fill-rule="evenodd"
           d="M0,0 L5.83333,-35 L-5.83333,-35 L0,0"
           id="path38" />
      </g>
      <g
         font-weight="400"
         font-style="normal"
         transform="matrix(0,-1,1,0,1749.35,1418.88)"
         font-family="Sans Serif"
         stroke-linecap="square"
         fill="none"
         stroke-width="1"
         stroke-opacity="1"
         stroke="#000000"
         stroke-linejoin="bevel"
         font-size="31.75"
         id="g40">
        <text
           font-weight="400"
           font-style="normal"
           y="93"
           font-family="osifont"
           fill="#000000"
           fill-opacity="1"
           stroke="none"
           x="4"
           xml:space="preserve"
           font-size="67"
           id="text39">5</text>
      </g>
      <g
         font-weight="400"
         font-style="normal"
         transform="matrix(1,0,0,1,1053.76,1221.46)"
         font-family="Sans Serif"
         stroke-linecap="round"
         fill="none"
         stroke-width="3.5"
         stroke-opacity="1"
         stroke="#000000"
         stroke-linejoin="bevel"
         font-size="31.75"
         id="g41">
        <path
           vector-effect="none"
           fill-rule="evenodd"
           d="M805.831,-73.2233 L805.831,426.777 M671,426.777 L833.831,426.777 M671,-73.2233 L833.831,-73.2233"
           id="path40" />
      </g>
      <g
         font-weight="400"
         font-style="normal"
         transform="matrix(1,0,0,1,1859.6,1648.23)"
         font-family="Sans Serif"
         stroke-linecap="round"
         fill="#000000"
         stroke-width="3.5"
         stroke-opacity="1"
         fill-opacity="1"
         stroke="#000000"
         stroke-linejoin="bevel"
         font-size="31.75"
         id="g42">
        <path
           vector-effect="none"
           fill-rule="evenodd"
           d="M0,0 L5.83333,-35 L-5.83333,-35 L0,0"
           id="path41" />
      </g>
      <g
         font-weight="400"
         font-style="normal"
         transform="matrix(1,0,0,1,1859.6,1148.23)"
         font-family="Sans Serif"
         stroke-linecap="round"
         fill="#000000"
         stroke-width="3.5"
         stroke-opacity="1"
         fill-opacity="1"
         stroke="#000000"
         stroke-linejoin="bevel"
         font-size="31.75"
         id="g43">
        <path
           vector-effect="none"
           fill-rule="evenodd"
           d="M0,0 L-5.83333,35 L5.83333,35 L0,0"
           id="path42" />
      </g>
      <g
         font-weight="400"
         font-style="normal"
         transform="matrix(0.707107,-0.707107,0.707107,0.707107,403.549,823.667)"
         font-family="Sans Serif"
         stroke-linecap="square"
         fill="none"
         stroke-width="1"
         stroke-opacity="1"
         stroke="#000000"
         stroke-linejoin="bevel"
         font-size="31.75"
         id="g44">
        <text
           font-weight="400"
           font-style="normal"
           y="93"
           font-family="osifont"
           fill="#000000"
           fill-opacity="1"
           stroke="none"
           x="4"
           xml:space="preserve"
           font-size="67"
           id="text43">5</text>
      </g>
      <g
         font-weight="400"
         font-style="normal"
         transform="matrix(1,0,0,1,1053.76,1221.46)"
         font-family="Sans Serif"
         stroke-linecap="round"
         fill="none"
         stroke-width="3.5"
         stroke-opacity="1"
         stroke="#000000"
         stroke-linejoin="bevel"
         font-size="31.75"
         id="g45">
        <path
           vector-effect="none"
           fill-rule="evenodd"
           d="M-734.433,-157.656 L-380.88,-511.21 M-311.296,-441.626 L-400.679,-531.009 M-664.849,-88.0725 L-754.232,-177.455"
           id="path44" />
      </g>
      <g
         font-weight="400"
         font-style="normal"
         transform="matrix(1,0,0,1,672.885,710.248)"
         font-family="Sans Serif"
         stroke-linecap="round"
         fill="#000000"
         stroke-width="3.5"
         stroke-opacity="1"
         fill-opacity="1"
         stroke="#000000"
         stroke-linejoin="bevel"
         font-size="31.75"
         id="g46">
        <path
           vector-effect="none"
           fill-rule="evenodd"
           d="M0,0 L-28.8735,20.6239 L-20.6239,28.8735 L0,0"
           id="path45" />
      </g>
      <g
         font-weight="400"
         font-style="normal"
         transform="matrix(1,0,0,1,319.332,1063.8)"
         font-family="Sans Serif"
         stroke-linecap="round"
         fill="#000000"
         stroke-width="3.5"
         stroke-opacity="1"
         fill-opacity="1"
         stroke="#000000"
         stroke-linejoin="bevel"
         font-size="31.75"
         id="g47">
        <path
           vector-effect="none"
           fill-rule="evenodd"
           d="M0,0 L28.8735,-20.6239 L20.6239,-28.8735 L0,0"
           id="path46" />
      </g>
      <g
         font-weight="400"
         font-style="normal"
         transform="matrix(0.707107,0.707107,-0.707107,0.707107,1673.24,796.001)"
         font-family="Sans Serif"
         stroke-linecap="square"
         fill="none"
         stroke-width="1"
         stroke-opacity="1"
         stroke="#000000"
         stroke-linejoin="bevel"
         font-size="31.75"
         id="g48">
        <text
           font-weight="400"
           font-style="normal"
           y="93"
           font-family="osifont"
           fill="#000000"
           fill-opacity="1"
           stroke="none"
           x="4"
           xml:space="preserve"
           font-size="67"
           id="text47">5</text>
      </g>
      <g
         font-weight="400"
         font-style="normal"
         transform="matrix(1,0,0,1,1053.76,1221.46)"
         font-family="Sans Serif"
         stroke-linecap="round"
         fill="none"
         stroke-width="3.5"
         stroke-opacity="1"
         stroke="#000000"
         stroke-linejoin="bevel"
         font-size="31.75"
         id="g49">
        <path
           vector-effect="none"
           fill-rule="evenodd"
           d="M732.897,-156.12 L379.344,-509.674 M311.296,-441.626 L399.143,-529.473 M664.849,-88.0725 L752.696,-175.919"
           id="path48" />
      </g>
      <g
         font-weight="400"
         font-style="normal"
         transform="matrix(1,0,0,1,1433.11,711.784)"
         font-family="Sans Serif"
         stroke-linecap="round"
         fill="#000000"
         stroke-width="3.5"
         stroke-opacity="1"
         fill-opacity="1"
         stroke="#000000"
         stroke-linejoin="bevel"
         font-size="31.75"
         id="g50">
        <path
           vector-effect="none"
           fill-rule="evenodd"
           d="M0,0 L20.6239,28.8735 L28.8735,20.6239 L0,0"
           id="path49" />
      </g>
      <g
         font-weight="400"
         font-style="normal"
         transform="matrix(1,0,0,1,1786.66,1065.34)"
         font-family="Sans Serif"
         stroke-linecap="round"
         fill="#000000"
         stroke-width="3.5"
         stroke-opacity="1"
         fill-opacity="1"
         stroke="#000000"
         stroke-linejoin="bevel"
         font-size="31.75"
         id="g51">
        <path
           vector-effect="none"
           fill-rule="evenodd"
           d="M0,0 L-20.6239,-28.8735 L-28.8735,-20.6239 L0,0"
           id="path50" />
      </g>
      <g
         font-weight="400"
         font-style="normal"
         transform="matrix(0.451386,-0.892329,0.892329,0.451386,448.066,1239.31)"
         font-family="Sans Serif"
         stroke-linecap="square"
         fill="none"
         stroke-width="1"
         stroke-opacity="1"
         stroke="#000000"
         stroke-linejoin="bevel"
         font-size="31.75"
         id="g52">
        <text
           font-weight="400"
           font-style="normal"
           y="93"
           font-family="osifont"
           fill="#000000"
           fill-opacity="1"
           stroke="none"
           x="4"
           xml:space="preserve"
           font-size="67"
           id="text51">135°</text>
      </g>
      <g
         font-weight="400"
         font-style="normal"
         transform="matrix(1,0,0,1,1053.76,1221.46)"
         font-family="Sans Serif"
         stroke-linecap="round"
         fill="none"
         stroke-width="3.5"
         stroke-opacity="1"
         stroke="#000000"
         stroke-linejoin="bevel"
         font-size="31.75"
         id="g53">
        <path
           vector-effect="none"
           fill-rule="evenodd"
           d="M-650,117.669 C-544.573,117.669 -459.108,32.2036 -459.108,-73.2233 C-459.108,-125.937 -480.474,-173.66 -515.019,-208.205 M-650,405.777 L-650,89.669 M-311.296,-411.927 L-534.818,-188.406"
           id="path52" />
      </g>
      <g
         font-weight="400"
         font-style="normal"
         transform="matrix(1,0,0,1,403.765,1339.13)"
         font-family="Sans Serif"
         stroke-linecap="round"
         fill="#000000"
         stroke-width="3.5"
         stroke-opacity="1"
         fill-opacity="1"
         stroke="#000000"
         stroke-linejoin="bevel"
         font-size="31.75"
         id="g54">
        <path
           vector-effect="none"
           fill-rule="evenodd"
           d="M0,0 L35,5.83333 L35,-5.83333 L0,0"
           id="path53" />
      </g>
      <g
         font-weight="400"
         font-style="normal"
         transform="matrix(1,0,0,1,538.746,1013.25)"
         font-family="Sans Serif"
         stroke-linecap="round"
         fill="#000000"
         stroke-width="3.5"
         stroke-opacity="1"
         fill-opacity="1"
         stroke="#000000"
         stroke-linejoin="bevel"
         font-size="31.75"
         id="g55">
        <path
           vector-effect="none"
           fill-rule="evenodd"
           d="M0,0 L20.6239,28.8735 L28.8735,20.6239 L0,0"
           id="path54" />
      </g>
      <g
         font-weight="400"
         font-style="normal"
         transform="matrix(0.513708,0.857965,-0.857965,0.513708,1612.2,1131.64)"
         font-family="Sans Serif"
         stroke-linecap="square"
         fill="none"
         stroke-width="1"
         stroke-opacity="1"
         stroke="#000000"
         stroke-linejoin="bevel"
         font-size="31.75"
         id="g56">
        <text
           font-weight="400"
           font-style="normal"
           y="93"
           font-family="osifont"
           fill="#000000"
           fill-opacity="1"
           stroke="none"
           x="4"
           xml:space="preserve"
           font-size="67"
           id="text55">135°</text>
      </g>
      <g
         font-weight="400"
         font-style="normal"
         transform="matrix(1,0,0,1,1053.76,1221.46)"
         font-family="Sans Serif"
         stroke-linecap="round"
         fill="none"
         stroke-width="3.5"
         stroke-opacity="1"
         stroke="#000000"
         stroke-linejoin="bevel"
         font-size="31.75"
         id="g57">
        <path
           vector-effect="none"
           fill-rule="evenodd"
           d="M522.515,-200.708 C489.889,-168.082 469.709,-123.009 469.709,-73.2233 C469.709,26.3484 550.428,107.067 650,107.067 M650,405.777 L650,79.0672 M311.296,-411.927 L542.314,-180.909"
           id="path56" />
      </g>
      <g
         font-weight="400"
         font-style="normal"
         transform="matrix(1,0,0,1,1703.76,1328.52)"
         font-family="Sans Serif"
         stroke-linecap="round"
         fill="#000000"
         stroke-width="3.5"
         stroke-opacity="1"
         fill-opacity="1"
         stroke="#000000"
         stroke-linejoin="bevel"
         font-size="31.75"
         id="g58">
        <path
           vector-effect="none"
           fill-rule="evenodd"
           d="M0,0 L-35,-5.83333 L-35,5.83333 L0,0"
           id="path57" />
      </g>
      <g
         font-weight="400"
         font-style="normal"
         transform="matrix(1,0,0,1,1576.28,1020.75)"
         font-family="Sans Serif"
         stroke-linecap="round"
         fill="#000000"
         stroke-width="3.5"
         stroke-opacity="1"
         fill-opacity="1"
         stroke="#000000"
         stroke-linejoin="bevel"
         font-size="31.75"
         id="g59">
        <path
           vector-effect="none"
           fill-rule="evenodd"
           d="M0,0 L-28.8735,20.6239 L-20.6239,28.8735 L0,0"
           id="path58" />
      </g>
    </g>
  </g>
</svg>
